<?xml version="1.0" encoding="UTF-8"?>
<!-- Generator: visioncortex VTracer 0.6.3 -->
<svg version="1.1" xmlns="http://www.w3.org/2000/svg" width="1280" height="1280">
<path d="M0 0 C1.24 0 1.24 0 2.5 0.01 C3.89 0.01 3.89 0.01 5.32 0.01 C6.33 0.01 7.34 0.02 8.39 0.02 C9.42 0.02 10.46 0.03 11.52 0.03 C14.85 0.03 18.17 0.05 21.49 0.06 C23.73 0.06 25.96 0.07 28.19 0.07 C33.12 0.08 38.05 0.1 42.98 0.11 C44.69 0.12 46.4 0.12 48.12 0.12 C53.28 1.28 58.35 2.67 63.18 4.87 C64.15 5.28 65.12 5.7 66.12 6.12 C66.78 5.79 67.44 5.46 68.12 5.12 C68.12 5.78 68.12 6.44 68.12 7.12 C68.92 7.3 69.73 7.48 70.56 7.67 C71.63 7.92 72.7 8.17 73.8 8.43 C74.86 8.68 75.91 8.92 77 9.17 C80.1 10.12 82.4 11.39 85.12 13.12 C85.84 13.29 86.56 13.45 87.3 13.62 C89.12 14.12 89.12 14.12 91.12 17.12 C93.82 18.49 96.58 19.6 99.39 20.74 C102.25 22.19 103.92 23.81 106.12 26.12 C107.09 26.59 108.05 27.07 109.05 27.56 C112.45 29.29 114.47 31.41 117.12 34.12 C118.2 34.65 118.2 34.65 119.3 35.18 C121.12 36.12 121.12 36.12 121.99 37.94 C123.29 40.46 124.81 41.94 126.87 43.87 C133.35 50.21 138.16 57.57 143.12 65.12 C143.76 66.07 144.4 67.01 145.07 67.99 C147.12 71.13 148.96 74.32 150.74 77.62 C151.33 78.7 151.92 79.79 152.53 80.9 C154.03 83.94 155.1 86.9 156.12 90.12 C156.63 91.25 157.15 92.39 157.68 93.56 C159.13 97.15 159.6 100.3 160.12 104.12 C160.78 105.11 161.44 106.1 162.12 107.12 C164.17 113.97 164.49 121.12 164.87 128.21 C164.93 131.06 164.93 131.06 166.12 133.12 C166.21 134.78 166.25 136.43 166.25 138.09 C166.25 139.07 166.25 140.06 166.25 141.07 C166.25 142.1 166.24 143.12 166.24 144.18 C166.25 145.73 166.25 145.73 166.25 147.31 C166.25 148.29 166.25 149.27 166.25 150.28 C166.25 151.64 166.25 151.64 166.25 153.02 C166.12 155.12 166.12 155.12 165.12 156.12 C164.88 159.24 164.72 162.36 164.6 165.49 C164.4 169.22 163.95 171.87 162.12 175.12 C162.12 176.13 162.12 177.14 162.12 178.18 C162.12 181.12 162.12 181.12 160.12 184.12 C159.63 185.96 159.2 187.82 158.8 189.68 C157.58 194.85 155.83 199.21 153.3 203.87 C152.06 206.13 152.06 206.13 151.12 208.66 C150.16 211.01 149.06 212.99 147.68 215.12 C146.3 217.27 144.95 219.41 143.68 221.62 C141.03 225.86 138.13 230.16 134.53 233.66 C132.43 235.83 131.38 238.41 130.12 241.12 C129.46 241.12 128.8 241.12 128.12 241.12 C128.12 241.78 128.12 242.44 128.12 243.12 C127.46 243.12 126.8 243.12 126.12 243.12 C125.79 244.11 125.46 245.1 125.12 246.12 C124.46 246.12 123.8 246.12 123.12 246.12 C123.12 246.78 123.12 247.44 123.12 248.12 C122.46 248.12 121.8 248.12 121.12 248.12 C120.79 249.11 120.46 250.1 120.12 251.12 C119.46 251.12 118.8 251.12 118.12 251.12 C118.12 251.78 118.12 252.44 118.12 253.12 C116.51 254.27 116.51 254.27 114.37 255.5 C111.15 257.42 108.73 259.42 106.12 262.12 C103.54 263.81 100.95 265.2 98.18 266.56 C95.08 268.05 95.08 268.05 92.3 270.06 C89.05 272.16 85.83 273.66 82.28 275.18 C80.48 275.96 78.73 276.84 76.99 277.75 C73.75 279.29 70.58 280.18 67.12 281.12 C65.66 281.64 64.2 282.16 62.74 282.68 C58.9 283.99 55.3 284.56 51.26 284.81 C49.03 285.04 49.03 285.04 46.8 286.13 C43.98 287.17 42.05 287.34 39.07 287.27 C38.09 287.25 37.11 287.24 36.1 287.22 C35.06 287.19 34.02 287.16 32.94 287.13 C31.87 287.11 30.79 287.09 29.68 287.06 C27.4 287.01 25.13 286.96 22.86 286.9 C19.36 286.81 15.87 286.73 12.38 286.66 C10.17 286.61 7.96 286.56 5.76 286.51 C4.71 286.48 3.65 286.46 2.57 286.44 C1.61 286.41 0.64 286.38 -0.35 286.36 C-1.63 286.32 -1.63 286.32 -2.94 286.29 C-4.88 286.12 -4.88 286.12 -5.88 285.12 C-7.73 284.79 -9.59 284.51 -11.45 284.25 C-16.63 283.41 -21.07 282.12 -25.88 280.12 C-27.82 279.38 -29.76 278.65 -31.7 277.93 C-33.07 277.42 -33.07 277.42 -34.47 276.89 C-36.94 275.97 -36.94 275.97 -39.88 276.12 C-41.57 277.77 -41.57 277.77 -43.13 280 C-43.75 280.82 -44.36 281.65 -44.99 282.5 C-45.62 283.36 -46.24 284.23 -46.88 285.12 C-47.76 286.33 -47.76 286.33 -48.65 287.56 C-55.8 297.51 -55.8 297.51 -61.88 308.12 C-62.54 308.12 -63.2 308.12 -63.88 308.12 C-64.13 308.66 -64.38 309.19 -64.63 309.75 C-66.96 314.16 -69.9 318.14 -72.88 322.12 C-73.54 323.13 -74.2 324.14 -74.88 325.18 C-76.47 327.52 -77.92 329.16 -79.88 331.12 C-80.91 332.77 -81.9 334.44 -82.88 336.12 C-83.87 337.67 -84.87 339.21 -85.88 340.75 C-86.38 341.5 -86.87 342.26 -87.38 343.03 C-88.76 344.95 -90.21 346.48 -91.88 348.12 C-92.9 349.78 -93.9 351.44 -94.88 353.12 C-95.88 354.45 -96.88 355.79 -97.88 357.12 C-98.53 358.23 -98.53 358.23 -99.2 359.37 C-101.03 362.36 -103.09 365.09 -105.21 367.88 C-106.99 370.26 -108.69 372.68 -110.38 375.12 C-113.95 380.25 -117.69 385.24 -121.47 390.21 C-122.94 392.13 -122.94 392.13 -124.2 394.37 C-125.65 396.74 -127.19 398.86 -128.88 401.06 C-131.32 404.25 -133.23 407.44 -134.88 411.12 C-135.54 411.12 -136.2 411.12 -136.88 411.12 C-137.14 411.66 -137.4 412.21 -137.66 412.77 C-139.1 415.54 -140.75 418.12 -142.45 420.75 C-144.8 424.35 -144.8 424.35 -146.88 428.12 C-147.54 428.12 -148.2 428.12 -148.88 428.12 C-149.13 428.66 -149.38 429.19 -149.63 429.75 C-151.96 434.16 -154.9 438.14 -157.88 442.12 C-158.54 443.13 -159.2 444.14 -159.88 445.18 C-161.47 447.52 -162.92 449.16 -164.88 451.12 C-165.91 452.77 -166.9 454.44 -167.88 456.12 C-171.65 461.98 -175.66 467.59 -179.88 473.12 C-181.45 475.17 -182.9 477.14 -184.2 479.37 C-186.03 482.36 -188.09 485.09 -190.21 487.88 C-192.61 491.09 -194.87 494.37 -197.15 497.66 C-199.23 500.61 -201.41 503.48 -203.62 506.33 C-206.22 509.91 -206.22 509.91 -206.63 514.12 C-205.85 516.21 -204.94 518.16 -203.88 520.12 C-203.22 520.12 -202.56 520.12 -201.88 520.12 C-200.48 521.73 -200.48 521.73 -198.95 523.87 C-198.44 524.57 -197.94 525.26 -197.42 525.98 C-196.91 526.69 -196.41 527.39 -195.88 528.12 C-195.36 528.82 -194.83 529.52 -194.28 530.23 C-192.88 532.12 -192.88 532.12 -191.45 534.56 C-189.95 537.15 -189.95 537.15 -188.02 539.37 C-185.72 542.33 -183.97 545.33 -182.2 548.62 C-181.59 549.72 -180.99 550.83 -180.37 551.96 C-179.05 554.77 -178.31 557.07 -177.88 560.12 C-177.22 560.12 -176.56 560.12 -175.88 560.12 C-175.6 560.85 -175.32 561.59 -175.03 562.34 C-173.99 564.86 -172.81 567.17 -171.51 569.56 C-168.83 574.83 -167.28 580.22 -165.78 585.92 C-164.97 589.08 -164.97 589.08 -163.77 591.81 C-162.57 594.93 -162.88 597.8 -162.88 601.12 C-162.22 601.78 -161.56 602.44 -160.88 603.12 C-160.54 605.55 -160.54 605.55 -160.38 608.43 C-160.22 611.41 -160.06 613.7 -158.89 616.45 C-157.81 619.33 -157.57 621.58 -157.47 624.64 C-157.41 626.17 -157.41 626.17 -157.35 627.74 C-157.32 628.79 -157.29 629.85 -157.26 630.93 C-157.2 632.54 -157.2 632.54 -157.14 634.19 C-157.05 636.83 -156.96 639.48 -156.88 642.12 C-156.06 642.18 -155.23 642.23 -154.37 642.29 C-148.68 642.69 -143.26 643.31 -137.72 644.72 C-135.71 645.23 -135.71 645.23 -132.88 645.12 C-132.55 645.78 -132.22 646.44 -131.88 647.12 C-129.37 647.52 -129.37 647.52 -126.38 647.62 C-121.67 647.93 -117.3 648.55 -112.72 649.72 C-110.71 650.23 -110.71 650.23 -107.88 650.12 C-107.55 650.78 -107.22 651.44 -106.88 652.12 C-104.47 652.52 -104.47 652.52 -101.57 652.62 C-97.07 652.93 -92.65 653.37 -88.2 654.06 C-87.2 654.21 -86.21 654.36 -85.19 654.52 C-84.43 654.72 -83.67 654.92 -82.88 655.12 C-82.55 655.78 -82.22 656.44 -81.88 657.12 C-79.47 657.52 -79.47 657.52 -76.57 657.62 C-72.07 657.93 -67.65 658.37 -63.2 659.06 C-62.2 659.21 -61.21 659.36 -60.19 659.52 C-59.43 659.72 -58.67 659.92 -57.88 660.12 C-57.55 660.78 -57.22 661.44 -56.88 662.12 C-55.52 662.06 -55.52 662.06 -54.13 662 C-47.33 662 -40.36 663.26 -33.88 665.31 C-30.26 666.31 -30.26 666.31 -26.88 665.12 C-25.64 663.22 -25.64 663.22 -24.88 661.12 C-23.35 658.05 -21.6 655.1 -19.88 652.12 C-19.22 652.12 -18.56 652.12 -17.88 652.12 C-17.73 650.98 -17.73 650.98 -17.57 649.81 C-16.82 646.87 -16.1 646.07 -13.88 644.12 C-13.22 643.13 -12.56 642.14 -11.88 641.12 C-11.35 640.6 -10.81 640.09 -10.26 639.56 C-8.65 638.21 -8.65 638.21 -8.88 636.12 C-7.56 635.79 -6.24 635.46 -4.88 635.12 C-4.55 633.8 -4.22 632.48 -3.88 631.12 C-2.93 630.97 -2.93 630.97 -1.95 630.81 C-1.27 630.58 -0.59 630.35 0.12 630.12 C0.45 629.13 0.78 628.14 1.12 627.12 C2.77 626.1 4.44 625.1 6.12 624.12 C7.91 622.63 9.64 621.09 11.37 619.52 C13.2 618.05 14.99 617.1 17.12 616.12 C19.17 615.18 19.17 615.18 20.93 613.68 C23.24 612.03 25.47 611.12 28.12 610.12 C28.45 609.79 28.78 609.46 29.12 609.12 C31.12 609.08 33.12 609.08 35.12 609.12 C35.12 608.46 35.12 607.8 35.12 607.12 C44.71 603.05 54.85 601.49 65.12 600.12 C65.12 599.79 65.12 599.46 65.12 599.12 C82.27 598.77 82.27 598.77 89.13 600.68 C92.12 601.34 95.03 601.17 98.07 601 C100.52 601.15 101.95 602 104.12 603.12 C105.78 603.48 107.44 603.81 109.12 604.12 C121.12 607.68 132.33 613.86 143.12 620.12 C143.12 620.78 143.12 621.44 143.12 622.12 C143.71 622.39 144.31 622.66 144.93 622.93 C147.13 624.13 148.36 625.37 150.12 627.12 C150.9 627.57 151.68 628.03 152.49 628.5 C156.82 631.17 160.18 634.36 162.12 639.12 C162.78 639.12 163.44 639.12 164.12 639.12 C164.12 640.11 164.12 641.1 164.12 642.12 C165.11 642.45 166.1 642.78 167.12 643.12 C171.97 648.11 174.94 653.97 178.12 660.12 C178.89 661.57 178.89 661.57 179.69 663.04 C183.01 669.37 185.4 675.63 187.35 682.5 C188.02 685.07 188.02 685.07 189.12 687.12 C189.4 690.59 189.56 694.06 189.74 697.54 C189.98 701.09 189.98 701.09 191.14 704.18 C193.54 711.39 192.54 719.55 190.62 726.79 C189.79 730.63 189.66 734.51 189.46 738.42 C189.11 741.13 188.4 742.75 187.12 745.12 C187.01 746.09 186.91 747.06 186.8 748.06 C185.98 754.97 183.35 763.39 178.12 768.12 C177.4 770.22 177.4 770.22 177.12 772.12 C176.46 772.12 175.8 772.12 175.12 772.12 C174.87 773.01 174.62 773.89 174.37 774.81 C172.81 778.94 170.49 781.56 167.59 784.85 C167.06 785.45 166.54 786.06 165.99 786.68 C165.49 787.24 165 787.8 164.48 788.37 C163.04 790.1 163.04 790.1 162.09 792.23 C160.87 794.6 159.24 795.36 157.01 796.72 C154.47 798.6 152.42 800.83 150.24 803.12 C146.71 806.73 143.69 809.28 139.06 811.26 C134.46 813.3 130.29 816.33 126.12 819.12 C123.02 820.25 119.91 821.18 116.74 822.06 C113.08 823.04 113.08 823.04 109.68 824.68 C104.88 826.58 99.85 826.6 94.75 826.74 C90.94 826.87 88.46 827.39 85.12 829.12 C82.09 829.39 82.09 829.39 78.74 829.37 C77.64 829.38 76.54 829.38 75.4 829.39 C72.12 829.12 72.12 829.12 69.09 828.1 C65.78 827.01 63.39 827.05 59.93 827.25 C53.24 827.38 48.19 825.76 42.12 823.12 C39.32 822.14 39.32 822.14 37.24 821.68 C33.62 820.72 30.79 819.79 28.12 817.12 C25.57 815.65 22.94 814.71 20.18 813.75 C16.56 812.42 14.05 810.66 11.12 808.12 C10.29 807.65 9.47 807.17 8.62 806.68 C5.66 804.84 3.55 802.61 1.12 800.12 C0.08 799.23 -0.96 798.36 -2.01 797.5 C-6.57 793.73 -6.57 793.73 -7.88 792.12 C-7.88 791.13 -7.88 790.14 -7.88 789.12 C-8.54 789.12 -9.2 789.12 -9.88 789.12 C-9.88 788.46 -9.88 787.8 -9.88 787.12 C-10.87 787.12 -11.86 787.12 -12.88 787.12 C-13.22 786.48 -13.56 785.83 -13.92 785.17 C-17.43 778.61 -21.22 772.32 -25.25 766.07 C-26.79 763.29 -27.33 761.2 -27.88 758.12 C-28.54 757.79 -29.2 757.46 -29.88 757.12 C-30.78 753.52 -31.43 749.89 -32.1 746.25 C-32.36 745.21 -32.62 744.18 -32.88 743.12 C-33.54 742.79 -34.2 742.46 -34.88 742.12 C-35.34 739.78 -35.67 737.42 -35.95 735.06 C-36.03 734.38 -36.11 733.7 -36.2 733 C-36.43 731.04 -36.66 729.08 -36.88 727.12 C-37.09 725.47 -37.3 723.83 -37.51 722.18 C-37.69 720.67 -37.69 720.67 -37.88 719.12 C-43.8 716.74 -49.26 714.82 -55.63 714.33 C-60.84 713.85 -66 712.77 -70.95 711.06 C-74.15 710.03 -77.11 709.72 -80.45 709.4 C-85.73 708.8 -90.93 707.8 -95.95 706.06 C-99.15 705.03 -102.11 704.72 -105.45 704.4 C-110.73 703.8 -115.93 702.8 -120.95 701.06 C-124.15 700.03 -127.11 699.72 -130.45 699.4 C-135.7 698.8 -140.9 697.82 -145.88 696.06 C-149.44 694.95 -152.82 694.65 -156.52 694.37 C-158.73 694.14 -160.75 693.72 -162.88 693.12 C-163.22 694.02 -163.56 694.93 -163.91 695.86 C-164.35 697.04 -164.8 698.22 -165.26 699.43 C-165.7 700.6 -166.14 701.78 -166.6 702.98 C-167.88 706.12 -167.88 706.12 -169.88 709.12 C-170.85 711.82 -171.71 714.55 -172.54 717.3 C-174.06 722.18 -175.88 725.93 -178.88 730.12 C-180.99 733.67 -182.93 737.2 -184.7 740.93 C-188.12 747.88 -192.91 754.21 -197.88 760.12 C-198.32 760.64 -198.76 761.17 -199.21 761.7 C-205.02 768.5 -211.41 774.69 -217.79 780.93 C-219.27 782.38 -220.75 783.84 -222.22 785.3 C-223.09 786.15 -223.96 787.01 -224.86 787.89 C-227.08 790.03 -227.08 790.03 -227.88 793.12 C-226.89 793.45 -225.9 793.78 -224.88 794.12 C-222.88 797.12 -222.88 797.12 -222.88 800.12 C-222.22 800.12 -221.56 800.12 -220.88 800.12 C-219.45 801.98 -219.45 801.98 -217.88 804.43 C-217.37 805.23 -216.85 806.03 -216.32 806.86 C-215.61 807.98 -215.61 807.98 -214.88 809.12 C-214.22 810.11 -213.56 811.1 -212.88 812.12 C-212.88 813.11 -212.88 814.1 -212.88 815.12 C-211.89 815.45 -210.9 815.78 -209.88 816.12 C-208.57 817.86 -208.57 817.86 -207.32 820 C-206.91 820.69 -206.49 821.39 -206.07 822.11 C-205.68 822.78 -205.29 823.44 -204.88 824.12 C-204.22 825.11 -203.56 826.1 -202.88 827.12 C-202.88 828.11 -202.88 829.1 -202.88 830.12 C-201.89 830.45 -200.9 830.78 -199.88 831.12 C-198.06 833.52 -198.06 833.52 -196.2 836.5 C-195.57 837.47 -194.95 838.45 -194.31 839.46 C-192.88 842.12 -192.88 842.12 -192.88 845.12 C-191.89 845.45 -190.9 845.78 -189.88 846.12 C-188.53 847.86 -188.53 847.86 -187.26 850 C-186.83 850.69 -186.41 851.39 -185.97 852.11 C-184.88 854.12 -184.88 854.12 -183.88 857.12 C-183.22 857.12 -182.56 857.12 -181.88 857.12 C-180.58 859.03 -179.37 861 -178.2 863 C-175.16 868.08 -171.98 872.99 -168.52 877.8 C-165.44 882.15 -162.55 886.62 -159.69 891.12 C-156.03 896.86 -152.28 902.51 -148.29 908.03 C-146.88 910.12 -146.88 910.12 -145.88 912.21 C-144.8 914.28 -143.55 915.5 -141.88 917.12 C-141.1 918.26 -140.35 919.43 -139.63 920.62 C-138.99 921.67 -138.99 921.67 -138.33 922.75 C-137.85 923.53 -137.38 924.31 -136.88 925.12 C-133.04 931.36 -129.08 937.33 -124.52 943.06 C-121.62 946.72 -118.86 950.48 -116.47 954.5 C-114.29 958.09 -111.8 961.43 -109.31 964.82 C-107.88 967.12 -107.88 967.12 -107.88 970.12 C-106.89 970.45 -105.9 970.78 -104.88 971.12 C-103.57 972.86 -103.57 972.86 -102.32 975 C-101.91 975.69 -101.49 976.39 -101.07 977.11 C-100.68 977.78 -100.29 978.44 -99.88 979.12 C-99.22 980.11 -98.56 981.1 -97.88 982.12 C-97.88 983.11 -97.88 984.1 -97.88 985.12 C-96.89 985.45 -95.9 985.78 -94.88 986.12 C-93.24 988.38 -93.24 988.38 -91.51 991.25 C-89.47 994.57 -87.43 997.84 -85.13 1001 C-82.49 1004.67 -80.28 1008.26 -78.38 1012.37 C-77.13 1015.42 -77.13 1015.42 -73.88 1016.12 C-72.5 1018.12 -72.5 1018.12 -71.2 1020.56 C-70.54 1021.76 -70.54 1021.76 -69.87 1022.99 C-68.88 1025.12 -68.88 1025.12 -68.88 1027.12 C-67.89 1027.45 -66.9 1027.78 -65.88 1028.12 C-64.2 1029.68 -64.2 1029.68 -62.88 1031.12 C-62.88 1030.46 -62.88 1029.8 -62.88 1029.12 C-57.13 1028 -57.13 1028 -54.88 1029.12 C-54.88 1028.46 -54.88 1027.8 -54.88 1027.12 C-52.9 1026.79 -50.92 1026.46 -48.88 1026.12 C-48.88 1025.46 -48.88 1024.8 -48.88 1024.12 C-45.25 1023.79 -41.62 1023.46 -37.88 1023.12 C-37.88 1022.79 -37.88 1022.46 -37.88 1022.12 C-34.58 1022.12 -31.28 1022.12 -27.88 1022.12 C-27.88 1021.46 -27.88 1020.8 -27.88 1020.12 C-27.2 1020.31 -26.52 1020.49 -25.82 1020.68 C-22.31 1021.21 -19.36 1020.73 -15.88 1020.12 C-15.88 1019.79 -15.88 1019.46 -15.88 1019.12 C-9.47 1018.69 -4 1020.26 2.12 1022.12 C2.45 1021.46 2.78 1020.8 3.12 1020.12 C3.12 1020.78 3.12 1021.44 3.12 1022.12 C4.94 1022.03 4.94 1022.03 6.8 1021.93 C12.19 1021.91 17.1 1023.14 22.3 1024.46 C25.12 1025.23 25.12 1025.23 28.12 1025.12 C28.12 1025.78 28.12 1026.44 28.12 1027.12 C28.92 1027.3 29.73 1027.48 30.56 1027.67 C31.63 1027.92 32.7 1028.17 33.8 1028.43 C35.39 1028.8 35.39 1028.8 37 1029.17 C40.12 1030.12 42.39 1031.35 45.12 1033.12 C46.49 1033.88 47.86 1034.63 49.24 1035.37 C54.69 1038.38 59.89 1041.74 65.12 1045.12 C66.05 1045.69 66.05 1045.69 67.01 1046.28 C70.47 1048.44 72.61 1050.93 75.12 1054.12 C76.11 1054.45 77.1 1054.78 78.12 1055.12 C78.12 1055.78 78.12 1056.44 78.12 1057.12 C79.11 1057.12 80.1 1057.12 81.12 1057.12 C81.12 1058.11 81.12 1059.1 81.12 1060.12 C81.78 1060.12 82.44 1060.12 83.12 1060.12 C83.12 1060.78 83.12 1061.44 83.12 1062.12 C83.78 1062.12 84.44 1062.12 85.12 1062.12 C89.55 1066.95 93.19 1072.56 96.76 1078.05 C97.61 1079.34 98.48 1080.62 99.38 1081.88 C101.64 1085.04 102.12 1086.05 102.12 1090.12 C102.78 1090.12 103.44 1090.12 104.12 1090.12 C104.3 1091.08 104.3 1091.08 104.49 1092.06 C104.8 1093.08 104.8 1093.08 105.12 1094.12 C105.78 1094.45 106.44 1094.78 107.12 1095.12 C107.86 1097.13 108.51 1099.18 109.12 1101.25 C109.46 1102.42 109.81 1103.59 110.17 1104.8 C110.89 1107.32 111.6 1109.84 112.3 1112.37 C112.84 1115.01 112.84 1115.01 114.12 1116.12 C114.34 1118.05 114.56 1119.98 114.74 1121.92 C115.02 1124.17 115.02 1124.17 116.11 1126.23 C117.64 1130.61 117.64 1134.95 117.8 1139.56 C117.86 1141.06 117.86 1141.06 117.92 1142.6 C118.15 1149.83 118.1 1157.02 117.8 1164.25 C117.77 1165.16 117.73 1166.08 117.7 1167.02 C117.47 1171.48 117.06 1175.04 115.12 1179.12 C114.74 1181.11 114.4 1183.11 114.12 1185.12 C113.46 1185.12 112.8 1185.12 112.12 1185.12 C112.16 1186.38 112.2 1187.64 112.24 1188.93 C112.35 1192.41 112.17 1193.03 110.12 1196.12 C109.62 1197.71 109.16 1199.32 108.74 1200.93 C107.48 1205.31 105.72 1208.36 103.12 1212.12 C101.35 1215.74 99.72 1219.42 98.12 1223.12 C97.46 1223.12 96.8 1223.12 96.12 1223.12 C95.87 1223.66 95.62 1224.19 95.37 1224.75 C91.49 1232.1 86.12 1237.42 80.24 1243.25 C79.36 1244.14 78.47 1245.03 77.56 1245.95 C73.31 1250.18 69.3 1254.05 64.12 1257.12 C62.8 1257.95 61.48 1258.79 60.17 1259.63 C58.78 1260.5 57.38 1261.37 55.99 1262.25 C54.94 1262.91 54.94 1262.91 53.86 1263.59 C53.18 1264.01 52.5 1264.44 51.8 1264.88 C51.18 1265.26 50.57 1265.64 49.94 1266.04 C43.75 1269.71 37.44 1272.67 30.12 1272.12 C30.12 1272.78 30.12 1273.44 30.12 1274.12 C29.27 1274.32 29.27 1274.32 28.4 1274.52 C27.67 1274.7 26.93 1274.88 26.18 1275.06 C25.08 1275.32 25.08 1275.32 23.96 1275.59 C22.12 1275.96 22.12 1275.96 21.12 1277.12 C19.31 1277.49 17.5 1277.82 15.68 1278.12 C11.77 1278.73 11.77 1278.73 8.12 1280.12 C5.09 1280.24 2.08 1280.31 -0.95 1280.32 C-1.86 1280.33 -2.77 1280.33 -3.7 1280.34 C-5.63 1280.35 -7.56 1280.36 -9.49 1280.36 C-12.41 1280.37 -15.34 1280.4 -18.26 1280.43 C-20.14 1280.44 -22.01 1280.44 -23.89 1280.45 C-24.75 1280.46 -25.62 1280.47 -26.51 1280.49 C-33.68 1280.46 -39.87 1279.13 -45.88 1275.12 C-47.86 1274.56 -47.86 1274.56 -50.01 1274.18 C-58.43 1272.41 -65.64 1269.39 -73.28 1265.42 C-75.9 1264.04 -75.9 1264.04 -78.88 1263.12 C-78.88 1262.46 -78.88 1261.8 -78.88 1261.12 C-79.42 1261.06 -79.96 1261 -80.51 1260.93 C-83.24 1260 -85 1258.5 -87.13 1256.57 C-88.99 1254.98 -88.99 1254.98 -91.66 1253.34 C-95.31 1250.83 -98.42 1248.03 -101.63 1245 C-102.21 1244.46 -102.79 1243.92 -103.38 1243.37 C-106.83 1240.14 -110.04 1237.02 -112.88 1233.25 C-113.4 1232.57 -113.92 1231.89 -114.45 1231.19 C-115.81 1229.23 -116.82 1227.26 -117.88 1225.12 C-118.66 1224.41 -118.66 1224.41 -119.45 1223.68 C-121.34 1221.63 -121.52 1219.84 -121.88 1217.12 C-122.87 1216.79 -123.86 1216.46 -124.88 1216.12 C-125.98 1214.19 -125.98 1214.19 -126.95 1211.81 C-129.2 1206.01 -129.2 1206.01 -132.88 1201.12 C-133.03 1200.05 -133.17 1198.98 -133.32 1197.87 C-133.9 1194.03 -135.1 1191.53 -136.88 1188.12 C-136.88 1187.13 -136.88 1186.14 -136.88 1185.12 C-137.17 1184.42 -137.46 1183.72 -137.76 1183 C-144.72 1165.2 -141.76 1143.7 -140.88 1125.12 C-140.22 1125.12 -139.56 1125.12 -138.88 1125.12 C-138.74 1124.03 -138.6 1122.93 -138.45 1121.81 C-137.88 1118.12 -137.88 1118.12 -136.88 1115.12 C-136.72 1113.77 -136.57 1112.41 -136.45 1111.06 C-135.88 1107.12 -135.88 1107.12 -133.88 1105.12 C-133.53 1103.46 -133.2 1101.79 -132.88 1100.12 C-131.95 1098.06 -131.95 1098.06 -130.88 1096.12 C-130.6 1095.52 -130.31 1094.92 -130.01 1094.31 C-128.4 1091.18 -126.64 1088.16 -124.88 1085.12 C-124.22 1085.12 -123.56 1085.12 -122.88 1085.12 C-122.98 1083.98 -122.98 1083.98 -123.07 1082.81 C-122.85 1079.59 -122.22 1079.19 -119.88 1077.12 C-119.62 1076.52 -119.35 1075.92 -119.07 1075.31 C-117.58 1072.55 -115.59 1070.72 -113.32 1068.59 C-110.88 1066.1 -109.38 1063.22 -107.88 1060.12 C-108.54 1059.79 -109.2 1059.46 -109.88 1059.12 C-110.03 1058.5 -110.17 1057.88 -110.32 1057.25 C-110.99 1054.72 -111.91 1053.78 -113.88 1052.12 C-114.54 1051.79 -115.2 1051.46 -115.88 1051.12 C-116.01 1050.58 -116.13 1050.05 -116.26 1049.5 C-117.4 1045.14 -119.66 1041.34 -122.82 1038.18 C-125.21 1035.8 -126.72 1033.28 -128.46 1030.41 C-130.58 1027.01 -132.91 1023.77 -135.24 1020.51 C-136.33 1018.92 -137.38 1017.3 -138.37 1015.64 C-140.5 1012.09 -142.94 1008.78 -145.36 1005.42 C-146.88 1003.12 -146.88 1003.12 -147.88 1000.12 C-148.32 999.69 -148.75 999.25 -149.2 998.81 C-152.33 995.67 -154.47 991.98 -156.38 988 C-157.91 985.07 -159.53 983.4 -161.88 981.12 C-162.91 979.47 -163.91 977.8 -164.88 976.12 C-165.54 975.46 -166.2 974.8 -166.88 974.12 C-168.24 971.8 -169.58 969.47 -170.88 967.12 C-172.75 963.46 -172.75 963.46 -175.88 961.12 C-175.88 960.13 -175.88 959.14 -175.88 958.12 C-176.54 958.12 -177.2 958.12 -177.88 958.12 C-179.53 955.69 -181.07 953.26 -182.57 950.75 C-183.48 949.26 -184.38 947.78 -185.29 946.3 C-185.96 945.22 -185.96 945.22 -186.64 944.11 C-188.68 940.84 -190.91 937.71 -193.15 934.57 C-195.24 931.61 -197.29 928.62 -199.32 925.62 C-200 924.62 -200.68 923.62 -201.38 922.59 C-202.88 920.12 -202.88 920.12 -202.88 918.12 C-203.54 918.12 -204.2 918.12 -204.88 918.12 C-205.69 916.64 -205.69 916.64 -206.51 915.12 C-208.58 911.47 -211.02 908.21 -213.61 904.92 C-214.88 903.12 -214.88 903.12 -215.88 900.12 C-217.49 898.3 -218.71 897.21 -220.88 896.12 C-221.93 893.81 -222.93 891.47 -223.88 889.12 C-225.01 886.49 -225.9 885.11 -227.95 883.06 C-229.88 881.12 -229.88 881.12 -230.88 878.12 C-231.54 877.79 -232.2 877.46 -232.88 877.12 C-233.73 875.73 -234.51 874.31 -235.26 872.87 C-237.18 869.29 -239.28 866.25 -241.88 863.12 C-242.34 862.35 -242.8 861.59 -243.27 860.8 C-245.44 857.2 -247.9 853.83 -250.36 850.42 C-251.88 848.12 -251.88 848.12 -252.88 845.12 C-253.32 844.69 -253.75 844.25 -254.2 843.81 C-257.33 840.67 -259.47 836.98 -261.38 833 C-262.91 830.07 -264.53 828.4 -266.88 826.12 C-268.65 823.43 -269.86 821.18 -270.88 818.12 C-275.54 817.77 -278.77 818.67 -282.99 820.39 C-285.25 821.26 -287.52 821.65 -289.88 822.12 C-290.87 822.78 -291.86 823.44 -292.88 824.12 C-295.19 824.72 -295.19 824.72 -297.76 825.18 C-299.02 825.42 -299.02 825.42 -300.31 825.66 C-301.16 825.81 -302.01 825.96 -302.88 826.12 C-305.18 826.56 -307.45 827 -309.71 827.61 C-316.73 829.4 -323.67 829.52 -330.88 829.68 C-333.32 829.74 -335.76 829.81 -338.2 829.87 C-339.27 829.9 -340.33 829.92 -341.44 829.95 C-343.83 829.85 -343.83 829.85 -344.88 831.12 C-347.38 831.25 -347.38 831.25 -349.88 831.12 C-350.21 830.79 -350.54 830.46 -350.88 830.12 C-352.47 829.99 -354.06 829.92 -355.65 829.87 C-356.63 829.84 -357.6 829.81 -358.6 829.77 C-360.65 829.71 -362.71 829.66 -364.76 829.6 C-366.22 829.55 -366.22 829.55 -367.72 829.5 C-368.61 829.47 -369.51 829.45 -370.43 829.42 C-373.01 829.1 -374.61 828.33 -376.88 827.12 C-378.94 826.93 -381.01 826.81 -383.07 826.75 C-388.4 826.42 -392.24 825.43 -396.97 823.03 C-399.54 821.81 -402.08 821.54 -404.88 821.12 C-406.94 820.42 -408.94 819.65 -410.95 818.84 C-412.91 818.11 -414.85 817.59 -416.88 817.12 C-416.88 816.46 -416.88 815.8 -416.88 815.12 C-420.35 813.87 -420.35 813.87 -423.88 814.12 C-428.59 817.99 -431.83 822.91 -434.88 828.12 C-435.88 829.45 -436.88 830.79 -437.88 832.12 C-438.32 832.86 -438.75 833.61 -439.2 834.37 C-441.03 837.36 -443.09 840.09 -445.21 842.88 C-446.99 845.26 -448.69 847.68 -450.38 850.12 C-453.95 855.25 -457.69 860.24 -461.47 865.21 C-462.94 867.13 -462.94 867.13 -464.2 869.37 C-465.65 871.74 -467.19 873.86 -468.88 876.06 C-471.32 879.25 -473.23 882.44 -474.88 886.12 C-475.54 886.12 -476.2 886.12 -476.88 886.12 C-477.14 886.66 -477.4 887.21 -477.66 887.77 C-479.1 890.54 -480.75 893.12 -482.45 895.75 C-484.8 899.35 -484.8 899.35 -486.88 903.12 C-487.54 903.12 -488.2 903.12 -488.88 903.12 C-489.26 903.92 -489.26 903.92 -489.63 904.75 C-491.58 908.44 -493.92 911.85 -496.45 915.18 C-497.94 917.12 -497.94 917.12 -499.2 919.37 C-501.03 922.36 -503.09 925.09 -505.21 927.88 C-506.99 930.26 -508.69 932.68 -510.38 935.12 C-513.95 940.25 -517.69 945.24 -521.47 950.21 C-522.94 952.13 -522.94 952.13 -524.2 954.37 C-525.59 956.64 -527.03 958.69 -528.63 960.81 C-538.6 973.92 -538.6 973.92 -546.88 988.12 C-547.54 988.12 -548.2 988.12 -548.88 988.12 C-549.26 988.92 -549.26 988.92 -549.63 989.75 C-551.96 994.16 -554.9 998.14 -557.88 1002.12 C-561.43 1006.71 -561.43 1006.71 -562.88 1012.12 C-561.56 1014.84 -559.96 1017.02 -558.07 1019.37 C-552.6 1026.25 -548.52 1033.56 -544.69 1041.45 C-543.3 1044.31 -541.91 1047.08 -540.25 1049.8 C-537.36 1054.71 -535.99 1060.49 -535.32 1066.12 C-535.17 1069.23 -535.17 1069.23 -532.88 1071.12 C-532.51 1073.21 -532.51 1073.21 -532.32 1075.62 C-532.07 1079 -532.07 1079 -530.88 1082.12 C-530.57 1085.23 -530.37 1088.35 -530.17 1091.47 C-530.17 1094.04 -530.17 1094.04 -528.88 1095.12 C-528.78 1097.1 -528.75 1099.08 -528.75 1101.05 C-528.75 1102.26 -528.75 1103.47 -528.75 1104.71 C-528.75 1105.98 -528.76 1107.25 -528.76 1108.56 C-528.76 1109.82 -528.75 1111.09 -528.75 1112.4 C-528.75 1114.21 -528.75 1114.21 -528.75 1116.05 C-528.75 1117.17 -528.75 1118.28 -528.75 1119.43 C-528.88 1122.12 -528.88 1122.12 -529.88 1124.12 C-530.04 1126.06 -530.16 1127.99 -530.26 1129.93 C-530.91 1139.27 -533.18 1148.18 -535.88 1157.12 C-536.54 1157.12 -537.2 1157.12 -537.88 1157.12 C-537.81 1158.11 -537.74 1159.1 -537.66 1160.11 C-537.67 1164.74 -539.39 1168.18 -541.45 1172.25 C-541.81 1172.99 -542.17 1173.73 -542.55 1174.49 C-543.64 1176.71 -544.76 1178.91 -545.88 1181.12 C-546.2 1181.75 -546.51 1182.38 -546.84 1183.03 C-550.07 1189.47 -553.53 1195.34 -558.11 1200.91 C-560.76 1204.21 -563.06 1207.73 -565.4 1211.25 C-565.89 1211.87 -566.38 1212.48 -566.88 1213.12 C-567.54 1213.12 -568.2 1213.12 -568.88 1213.12 C-569.29 1214.08 -569.29 1214.08 -569.7 1215.06 C-570.88 1217.12 -570.88 1217.12 -573.88 1218.12 C-574.21 1219.11 -574.54 1220.1 -574.88 1221.12 C-575.54 1221.12 -576.2 1221.12 -576.88 1221.12 C-576.88 1221.78 -576.88 1222.44 -576.88 1223.12 C-577.54 1223.12 -578.2 1223.12 -578.88 1223.12 C-579.21 1224.11 -579.54 1225.1 -579.88 1226.12 C-580.54 1226.12 -581.2 1226.12 -581.88 1226.12 C-581.88 1226.78 -581.88 1227.44 -581.88 1228.12 C-583.46 1229.27 -583.46 1229.27 -585.57 1230.5 C-588.9 1232.49 -591.88 1234.65 -594.88 1237.12 C-599.46 1240.56 -603.79 1243.25 -609.08 1245.46 C-612.71 1247.01 -616.2 1248.8 -619.7 1250.62 C-624.64 1253.15 -629.48 1255.15 -634.85 1256.57 C-637.01 1257.1 -637.01 1257.1 -639.45 1258.25 C-642.54 1259.35 -645.51 1259.54 -648.76 1259.84 C-651 1260.04 -651 1260.04 -653.32 1261.18 C-656.72 1262.42 -659.71 1262.18 -663.29 1262 C-665.95 1261.99 -665.95 1261.99 -668.51 1263.1 C-673.33 1264.56 -677.94 1264.41 -682.95 1264.37 C-683.93 1264.38 -684.91 1264.39 -685.92 1264.39 C-686.87 1264.39 -687.82 1264.39 -688.79 1264.39 C-689.65 1264.38 -690.51 1264.38 -691.39 1264.38 C-694.19 1264.09 -696.3 1263.19 -698.88 1262.12 C-701.66 1261.85 -704.36 1261.66 -707.13 1261.56 C-714.76 1261.24 -714.76 1261.24 -715.88 1260.12 C-717.25 1259.77 -718.63 1259.47 -720.01 1259.18 C-726.86 1257.71 -733.36 1255.67 -739.88 1253.12 C-741.09 1252.66 -741.09 1252.66 -742.32 1252.18 C-744.75 1251.18 -747.16 1250.16 -749.57 1249.12 C-750.34 1248.79 -751.11 1248.46 -751.9 1248.12 C-753.88 1247.12 -753.88 1247.12 -755.88 1245.12 C-756.83 1244.75 -757.78 1244.38 -758.76 1244 C-765.24 1241.35 -771.94 1237.07 -776.88 1232.12 C-778.2 1231.42 -779.53 1230.75 -780.88 1230.12 C-780.88 1229.46 -780.88 1228.8 -780.88 1228.12 C-781.78 1227.72 -781.78 1227.72 -782.7 1227.31 C-784.88 1226.12 -786.14 1224.86 -787.88 1223.12 C-788.54 1222.83 -789.2 1222.54 -789.88 1222.25 C-792.59 1220.73 -793.34 1218.78 -794.88 1216.12 C-795.75 1215.25 -796.62 1214.39 -797.51 1213.5 C-799.88 1211.12 -799.88 1211.12 -800.88 1208.12 C-801.54 1208.12 -802.2 1208.12 -802.88 1208.12 C-803.9 1206.46 -804.9 1204.8 -805.88 1203.12 C-806.54 1202.79 -807.2 1202.46 -807.88 1202.12 C-808.75 1200.69 -809.55 1199.23 -810.32 1197.75 C-811.99 1194.48 -811.99 1194.48 -814.35 1191.72 C-816 1190 -816.83 1188.49 -817.82 1186.32 C-818.33 1185.22 -818.33 1185.22 -818.85 1184.11 C-819.19 1183.35 -819.53 1182.59 -819.88 1181.81 C-820.57 1180.31 -821.26 1178.82 -821.95 1177.32 C-822.28 1176.6 -822.6 1175.88 -822.94 1175.14 C-823.76 1173.38 -824.63 1171.65 -825.5 1169.92 C-826.86 1167.18 -827.97 1164.44 -829.01 1161.56 C-829.34 1160.65 -829.67 1159.74 -830.02 1158.8 C-830.84 1156.25 -831.38 1153.75 -831.88 1151.12 C-832.38 1149.64 -832.38 1149.64 -832.88 1148.12 C-833.78 1145.43 -834.36 1142.9 -834.88 1140.12 C-835.05 1139.26 -835.21 1138.4 -835.38 1137.51 C-835.55 1136.62 -835.71 1135.73 -835.88 1134.81 C-836.05 1133.92 -836.21 1133.04 -836.38 1132.13 C-837.77 1123.81 -838.04 1115.81 -838.01 1107.37 C-838.01 1106.15 -838.02 1104.93 -838.02 1103.68 C-838.02 1102.51 -838.02 1101.34 -838.02 1100.14 C-838.02 1099.08 -838.01 1098.02 -838.01 1096.93 C-837.9 1094.47 -837.54 1092.47 -836.88 1090.12 C-836.63 1086.98 -836.44 1083.85 -836.26 1080.7 C-836.14 1079.85 -836.01 1079 -835.88 1078.12 C-835.22 1077.79 -834.56 1077.46 -833.88 1077.12 C-833.42 1074.76 -833.42 1074.76 -833.26 1072.06 C-833.18 1071.14 -833.11 1070.22 -833.03 1069.27 C-832.98 1068.56 -832.93 1067.85 -832.88 1067.12 C-832.55 1067.12 -832.22 1067.12 -831.88 1067.12 C-831.7 1065.45 -831.7 1065.45 -831.51 1063.75 C-830.88 1060.12 -830.88 1060.12 -828.88 1058.12 C-828.28 1056.27 -827.74 1054.39 -827.26 1052.5 C-826.87 1050.99 -826.87 1050.99 -826.47 1049.46 C-826.28 1048.69 -826.08 1047.91 -825.88 1047.12 C-825.22 1047.12 -824.56 1047.12 -823.88 1047.12 C-823.78 1046.21 -823.68 1045.31 -823.57 1044.37 C-822.87 1041.04 -822.01 1039.68 -819.88 1037.12 C-819.55 1036.13 -819.22 1035.14 -818.88 1034.12 C-818.55 1033.46 -818.22 1032.8 -817.88 1032.12 C-817.22 1032.12 -816.56 1032.12 -815.88 1032.12 C-816.38 1030.64 -816.38 1030.64 -816.88 1029.12 C-816.22 1029.12 -815.56 1029.12 -814.88 1029.12 C-814.88 1028.46 -814.88 1027.8 -814.88 1027.12 C-814.22 1027.12 -813.56 1027.12 -812.88 1027.12 C-812.55 1026.13 -812.22 1025.14 -811.88 1024.12 C-811 1022.31 -810.08 1020.52 -809.13 1018.75 C-808.64 1017.81 -808.15 1016.87 -807.65 1015.91 C-805.7 1012.83 -803.48 1010.66 -800.88 1008.12 C-799.32 1006.52 -797.76 1004.93 -796.2 1003.33 C-794.43 1001.53 -792.66 999.73 -790.88 997.93 C-789.99 997.02 -789.11 996.1 -788.19 995.16 C-787.33 994.29 -786.46 993.41 -785.57 992.51 C-784.4 991.32 -784.4 991.32 -783.21 990.1 C-780.83 988.08 -778.83 987.09 -775.88 986.12 C-775.88 985.46 -775.88 984.8 -775.88 984.12 C-772.8 982.36 -771.65 982.12 -767.88 982.12 C-767.88 981.13 -767.88 980.14 -767.88 979.12 C-766.89 979.12 -765.9 979.12 -764.88 979.12 C-764.88 978.46 -764.88 977.8 -764.88 977.12 C-763.56 976.46 -762.24 975.8 -760.88 975.12 C-760.88 974.79 -760.88 974.46 -760.88 974.12 C-759.77 973.93 -759.77 973.93 -758.63 973.75 C-756.06 973.16 -754.14 972.49 -751.88 971.12 C-751.55 970.46 -751.22 969.8 -750.88 969.12 C-748.9 969.12 -746.92 969.12 -744.88 969.12 C-744.88 968.46 -744.88 967.8 -744.88 967.12 C-744.08 966.81 -743.28 966.5 -742.45 966.18 C-739.99 965.36 -739.99 965.36 -738.88 964.12 C-736.55 964.08 -734.22 964.08 -731.88 964.12 C-731.88 963.46 -731.88 962.8 -731.88 962.12 C-730.18 961.93 -730.18 961.93 -728.45 961.75 C-727.27 961.54 -726.1 961.33 -724.88 961.12 C-724.55 960.46 -724.22 959.8 -723.88 959.12 C-721.6 958.71 -721.6 958.71 -718.82 958.5 C-717.9 958.42 -716.98 958.35 -716.04 958.27 C-715.33 958.22 -714.62 958.17 -713.88 958.12 C-713.88 957.79 -713.88 957.46 -713.88 957.12 C-712.76 957.07 -711.64 957.02 -710.49 956.97 C-709.02 956.9 -707.54 956.82 -706.07 956.75 C-705.33 956.71 -704.6 956.68 -703.84 956.65 C-700.07 956.45 -698.09 956.26 -694.88 954.12 C-692.77 953.86 -692.77 953.86 -690.35 953.85 C-689.46 953.85 -688.56 953.85 -687.64 953.85 C-686.71 953.85 -685.78 953.86 -684.82 953.87 C-683.92 953.86 -683.01 953.85 -682.08 953.85 C-676.55 953.86 -671.45 954.43 -666.05 955.65 C-663.46 956.21 -660.85 956.47 -658.21 956.78 C-649.81 958.01 -641.74 959.92 -633.88 963.12 C-632.51 963.54 -631.14 963.96 -629.76 964.37 C-624.28 966.14 -619.29 968.9 -614.22 971.6 C-611.01 973.06 -608.33 973.58 -604.88 974.12 C-604.55 974.78 -604.22 975.44 -603.88 976.12 C-603.45 975.4 -603.02 974.68 -602.57 973.93 C-602.01 973 -601.46 972.08 -600.88 971.12 C-600.43 970.32 -599.98 969.51 -599.51 968.68 C-597.52 965.54 -595.38 962.88 -592.88 960.12 C-592.22 960.12 -591.56 960.12 -590.88 960.12 C-590.78 959.54 -590.68 958.97 -590.57 958.37 C-589.78 955.78 -588.51 954.27 -586.88 952.12 C-586.17 950.47 -585.49 948.81 -584.88 947.12 C-584.22 947.12 -583.56 947.12 -582.88 947.12 C-582.48 946.16 -582.48 946.16 -582.07 945.18 C-580.88 943.12 -580.88 943.12 -577.88 942.12 C-577.78 941.36 -577.68 940.59 -577.57 939.81 C-576.8 936.77 -576.08 936.24 -573.88 934.12 C-572.46 931.83 -571.18 929.49 -569.88 927.12 C-569.22 927.12 -568.56 927.12 -567.88 927.12 C-567.55 926.13 -567.22 925.14 -566.88 924.12 C-565.37 921.39 -563.78 918.99 -561.82 916.56 C-560.15 914.45 -558.97 912.57 -557.88 910.12 C-557.22 910.12 -556.56 910.12 -555.88 910.12 C-555.55 909.13 -555.22 908.14 -554.88 907.12 C-553.86 904.67 -552.94 903.17 -551.01 901.31 C-548.28 898.5 -546.74 895.56 -544.88 892.12 C-544.22 892.12 -543.56 892.12 -542.88 892.12 C-542.55 891.13 -542.22 890.14 -541.88 889.12 C-540.96 887.23 -540 885.36 -539.01 883.5 C-538.5 882.51 -537.98 881.53 -537.45 880.52 C-535.88 878.12 -535.88 878.12 -532.88 877.12 C-532.88 876.46 -532.88 875.8 -532.88 875.12 C-532.22 875.12 -531.56 875.12 -530.88 875.12 C-530.55 873.8 -530.22 872.48 -529.88 871.12 C-529.22 871.45 -528.56 871.78 -527.88 872.12 C-527.76 871.36 -527.64 870.59 -527.51 869.81 C-526.41 865.09 -522.96 860.84 -519.88 857.12 C-519.22 857.12 -518.56 857.12 -517.88 857.12 C-517.78 856.36 -517.68 855.59 -517.57 854.81 C-516.8 851.77 -516.08 851.24 -513.88 849.12 C-512.46 846.83 -511.18 844.49 -509.88 842.12 C-509.22 842.12 -508.56 842.12 -507.88 842.12 C-507.55 841.13 -507.22 840.14 -506.88 839.12 C-505.37 836.39 -503.78 833.99 -501.82 831.56 C-500.15 829.45 -498.97 827.57 -497.88 825.12 C-497.22 825.12 -496.56 825.12 -495.88 825.12 C-495.55 824.13 -495.22 823.14 -494.88 822.12 C-493.86 819.67 -492.94 818.17 -491.01 816.31 C-488.28 813.5 -486.74 810.56 -484.88 807.12 C-484.22 807.12 -483.56 807.12 -482.88 807.12 C-482.55 806.13 -482.22 805.14 -481.88 804.12 C-480.37 801.39 -478.78 798.99 -476.82 796.56 C-475.15 794.45 -473.97 792.57 -472.88 790.12 C-472.22 790.12 -471.56 790.12 -470.88 790.12 C-470.88 788.47 -470.88 786.82 -470.88 785.12 C-470.55 785.78 -470.22 786.44 -469.88 787.12 C-469.22 787.12 -468.56 787.12 -467.88 787.12 C-470.21 782.59 -472.95 780.22 -476.88 777.12 C-479.38 774.62 -479.38 774.62 -481.88 772.12 C-482.48 771.56 -483.08 771.01 -483.7 770.43 C-486.2 767.79 -488.29 764.97 -490.42 762.02 C-492.21 759.69 -494.18 757.74 -496.38 755.81 C-498.79 753.1 -500.88 749.81 -500.88 746.12 C-501.54 746.12 -502.2 746.12 -502.88 746.12 C-522.88 706.12 -522.88 706.12 -523.26 702.37 C-523.58 699.49 -523.97 697.95 -525.32 695.31 C-527.17 691.53 -527.73 688.04 -528.36 683.9 C-528.82 681.07 -528.82 681.07 -529.91 678.29 C-531.08 674.5 -531.3 670.86 -531.45 666.93 C-531.64 661.45 -531.64 661.45 -532.88 656.12 C-532.97 653.68 -533 651.27 -532.98 648.83 C-532.98 647.77 -532.98 647.77 -532.98 646.69 C-532.97 644.44 -532.96 642.18 -532.95 639.93 C-532.94 638.4 -532.94 636.88 -532.93 635.35 C-532.92 631.61 -532.9 627.86 -532.88 624.12 C-532.55 624.12 -532.22 624.12 -531.88 624.12 C-531.55 618.18 -531.22 612.24 -530.88 606.12 C-530.22 605.79 -529.56 605.46 -528.88 605.12 C-528.42 602.76 -528.42 602.76 -528.26 600.06 C-528.18 599.14 -528.11 598.22 -528.03 597.27 C-527.98 596.56 -527.93 595.85 -527.88 595.12 C-527.55 595.12 -527.22 595.12 -526.88 595.12 C-526.76 593.84 -526.64 592.56 -526.51 591.25 C-526.13 587.37 -526.13 587.37 -523.88 585.12 C-523.24 582.55 -523.24 582.55 -522.88 580.12 C-522.22 580.12 -521.56 580.12 -520.88 580.12 C-520.88 577.15 -520.88 574.18 -520.88 571.12 C-520.22 571.45 -519.56 571.78 -518.88 572.12 C-518.74 571.17 -518.6 570.22 -518.45 569.25 C-517.88 566.12 -517.88 566.12 -516.88 564.12 C-517.1 560.77 -517.68 559.35 -519.92 556.8 C-525.39 551.95 -525.39 551.95 -531.51 548 C-535.13 545.98 -537.84 543.64 -540.88 540.86 C-542.81 539.19 -544.78 537.74 -546.88 536.31 C-547.87 535.59 -548.86 534.86 -549.88 534.12 C-549.88 533.46 -549.88 532.8 -549.88 532.12 C-550.45 532.03 -551.01 531.93 -551.6 531.84 C-554.45 530.94 -556.2 529.51 -558.51 527.62 C-561.54 525.12 -561.54 525.12 -564.88 523.12 C-564.88 522.46 -564.88 521.8 -564.88 521.12 C-565.44 520.87 -566 520.63 -566.57 520.37 C-569.31 518.89 -571.47 517.1 -573.88 515.12 C-575.23 514.05 -576.59 512.99 -577.95 511.93 C-578.71 511.34 -579.47 510.74 -580.26 510.13 C-582.2 508.64 -584.16 507.18 -586.13 505.74 C-586.68 505.33 -587.23 504.93 -587.8 504.52 C-589.39 503.35 -590.98 502.19 -592.58 501.04 C-593.34 500.41 -594.1 499.77 -594.88 499.12 C-594.88 498.46 -594.88 497.8 -594.88 497.12 C-595.46 497.03 -596.04 496.93 -596.63 496.84 C-599.41 495.95 -600.83 494.61 -602.95 492.62 C-605.39 490.33 -606.66 489.19 -609.88 488.12 C-609.88 487.46 -609.88 486.8 -609.88 486.12 C-610.72 485.75 -610.72 485.75 -611.57 485.37 C-614.28 483.9 -616.48 482.04 -618.88 480.12 C-620.2 479.41 -621.52 478.73 -622.88 478.12 C-622.88 477.46 -622.88 476.8 -622.88 476.12 C-623.44 475.87 -624 475.63 -624.57 475.37 C-627.31 473.89 -629.54 472.09 -631.95 470.12 C-634.55 467.99 -637.08 465.99 -639.88 464.12 C-639.88 463.46 -639.88 462.8 -639.88 462.12 C-640.46 462.03 -641.04 461.93 -641.63 461.84 C-644.41 460.95 -645.83 459.61 -647.95 457.62 C-650.39 455.33 -651.66 454.19 -654.88 453.12 C-654.88 452.46 -654.88 451.8 -654.88 451.12 C-655.72 450.75 -655.72 450.75 -656.57 450.37 C-659.28 448.9 -661.48 447.04 -663.88 445.12 C-665.2 444.41 -666.52 443.73 -667.88 443.12 C-667.88 442.46 -667.88 441.8 -667.88 441.12 C-668.44 440.87 -669 440.63 -669.57 440.37 C-672.31 438.89 -674.54 437.09 -676.95 435.12 C-679.55 432.99 -682.08 430.99 -684.88 429.12 C-684.88 428.46 -684.88 427.8 -684.88 427.12 C-685.5 426.98 -686.12 426.83 -686.76 426.68 C-688.88 426.12 -688.88 426.12 -690.88 425.12 C-690.88 424.46 -690.88 423.8 -690.88 423.12 C-691.46 422.85 -692.04 422.58 -692.64 422.3 C-694.87 421.13 -696.76 419.83 -698.76 418.31 C-699.8 417.52 -699.8 417.52 -700.86 416.71 C-702.66 415.3 -704.4 413.85 -706.13 412.37 C-708.38 410.54 -710.24 409.24 -712.88 408.12 C-712.88 407.46 -712.88 406.8 -712.88 406.12 C-713.72 406.03 -713.72 406.03 -714.57 405.93 C-717.17 405.02 -718.47 403.7 -720.33 401.72 C-722.28 399.71 -724.32 397.82 -726.38 395.93 C-727.12 395.26 -727.85 394.58 -728.6 393.89 C-730.96 392.07 -733.13 391.19 -735.88 390.12 C-736.21 389.46 -736.54 388.8 -736.88 388.12 C-740.25 388.7 -741.56 389.7 -743.88 392.12 C-750.37 396.45 -757.49 399.71 -764.88 402.12 C-768.02 403.36 -771.15 404.63 -774.27 405.9 C-784.49 409.35 -794.38 409.46 -805.07 409.44 C-807.75 409.43 -810.42 409.46 -813.1 409.48 C-822.43 409.52 -830.95 409.14 -839.88 406.12 C-840.61 405.88 -841.33 405.63 -842.08 405.38 C-844.04 404.69 -845.96 403.91 -847.88 403.12 C-848.82 402.76 -849.76 402.4 -850.72 402.03 C-856.66 399.69 -861.87 397.09 -867.04 393.35 C-868.97 391.94 -868.97 391.94 -871.88 391.12 C-871.88 390.46 -871.88 389.8 -871.88 389.12 C-873.89 388.1 -875.9 387.11 -877.95 386.19 C-878.97 385.72 -878.97 385.72 -880.01 385.25 C-880.69 384.94 -881.38 384.63 -882.08 384.32 C-884.27 382.86 -884.81 381.48 -885.88 379.12 C-886.54 378.79 -887.2 378.46 -887.88 378.12 C-887.88 377.46 -887.88 376.8 -887.88 376.12 C-889.53 375.46 -891.18 374.8 -892.88 374.12 C-892.88 373.13 -892.88 372.14 -892.88 371.12 C-893.87 370.79 -894.86 370.46 -895.88 370.12 C-896.56 368.46 -897.22 366.79 -897.88 365.12 C-899.2 363.77 -900.53 362.43 -901.88 361.12 C-902.91 359.47 -903.91 357.8 -904.88 356.12 C-905.54 355.46 -906.2 354.8 -906.88 354.12 C-907.58 352.47 -908.24 350.8 -908.88 349.12 C-909.84 347.12 -910.8 345.12 -911.76 343.12 C-914.79 336.6 -916.95 330.04 -918.88 323.12 C-919.18 322.13 -919.49 321.13 -919.79 320.1 C-921.31 314.93 -922.24 310.51 -921.88 305.12 C-922.21 305.12 -922.54 305.12 -922.88 305.12 C-922.91 301.7 -922.93 298.29 -922.95 294.87 C-922.96 293.9 -922.96 292.93 -922.97 291.94 C-922.98 291 -922.98 290.07 -922.98 289.1 C-922.99 288.25 -922.99 287.39 -923 286.5 C-922.89 284.22 -922.49 282.31 -921.88 280.12 C-921.63 277.76 -921.44 275.41 -921.26 273.05 C-921.14 272.41 -921.01 271.78 -920.88 271.12 C-920.22 270.79 -919.56 270.46 -918.88 270.12 C-918.42 267.76 -918.42 267.76 -918.26 265.06 C-918.18 264.14 -918.11 263.22 -918.03 262.27 C-917.98 261.56 -917.93 260.85 -917.88 260.12 C-917.22 260.12 -916.56 260.12 -915.88 260.12 C-915.88 258.14 -915.88 256.16 -915.88 254.12 C-915.22 253.79 -914.56 253.46 -913.88 253.12 C-912.97 250.55 -912.97 250.55 -912.26 247.56 C-912 246.55 -911.74 245.53 -911.47 244.49 C-911.28 243.71 -911.08 242.93 -910.88 242.12 C-910.22 242.12 -909.56 242.12 -908.88 242.12 C-908.69 241.55 -908.5 240.99 -908.3 240.41 C-908.04 239.67 -907.78 238.94 -907.51 238.18 C-907.13 237.09 -907.13 237.09 -906.74 235.97 C-905.88 234.12 -905.88 234.12 -903.88 233.12 C-903.55 232.13 -903.22 231.14 -902.88 230.12 C-902.22 230.12 -901.56 230.12 -900.88 230.12 C-900.88 229.13 -900.88 228.14 -900.88 227.12 C-899.89 227.12 -898.9 227.12 -897.88 227.12 C-897.8 226.39 -897.72 225.66 -897.64 224.91 C-896.71 221.47 -895.31 220.03 -892.81 217.51 C-891.97 216.67 -891.14 215.84 -890.29 214.98 C-889.41 214.12 -888.54 213.26 -887.63 212.37 C-886.77 211.49 -885.91 210.62 -885.03 209.72 C-883.77 208.47 -883.77 208.47 -882.49 207.2 C-881.35 206.06 -881.35 206.06 -880.18 204.9 C-877.68 202.96 -875.99 202.46 -872.88 202.12 C-872.88 201.46 -872.88 200.8 -872.88 200.12 C-868.02 195.99 -862.76 193.42 -856.63 191.76 C-854.67 191.27 -854.67 191.27 -853.88 189.12 C-851.57 189.12 -849.26 189.12 -846.88 189.12 C-846.88 188.46 -846.88 187.8 -846.88 187.12 C-846.08 186.81 -845.28 186.5 -844.45 186.18 C-841.99 185.36 -841.99 185.36 -840.88 184.12 C-839.04 183.89 -837.18 183.71 -835.32 183.56 C-834.31 183.47 -833.3 183.39 -832.26 183.3 C-831.47 183.24 -830.69 183.18 -829.88 183.12 C-829.88 182.79 -829.88 182.46 -829.88 182.12 C-821.49 181.04 -813.15 180.94 -804.7 180.93 C-803.36 180.92 -802.02 180.91 -800.68 180.9 C-799.39 180.89 -798.1 180.89 -796.78 180.89 C-795.04 180.88 -795.04 180.88 -793.27 180.88 C-789.58 181.14 -786.41 182.02 -782.88 183.12 C-781.56 183.29 -780.22 183.42 -778.88 183.5 C-775.28 183.88 -772.82 185.13 -769.73 187.08 C-766.99 188.63 -764.09 189.46 -761.1 190.41 C-756.41 191.92 -752.26 193.39 -748.88 197.12 C-748.22 197.12 -747.56 197.12 -746.88 197.12 C-746.88 197.78 -746.88 198.44 -746.88 199.12 C-746.35 199.39 -745.81 199.66 -745.26 199.93 C-744.48 200.32 -743.69 200.72 -742.88 201.12 C-741.83 201.59 -740.78 202.07 -739.7 202.56 C-736.88 204.12 -736.88 204.12 -735.88 207.12 C-733.87 207.85 -733.87 207.85 -731.88 208.12 C-731.88 208.78 -731.88 209.44 -731.88 210.12 C-730.89 210.45 -729.9 210.78 -728.88 211.12 C-728.88 211.78 -728.88 212.44 -728.88 213.12 C-728.31 213.37 -727.73 213.62 -727.13 213.87 C-722.65 216.36 -720.45 219.81 -717.88 224.12 C-716.66 225.6 -715.44 227.07 -714.2 228.53 C-709.27 234.46 -703.77 241.75 -702.49 249.49 C-701.81 252.46 -700.4 254.6 -698.84 257.2 C-697.17 260.55 -696.77 264.07 -696.26 267.75 C-696.04 269.22 -695.82 270.69 -695.6 272.16 C-695.51 272.8 -695.42 273.44 -695.32 274.1 C-694.93 276.22 -694.93 276.22 -693.86 278.47 C-692.7 281.63 -692.63 284.19 -692.62 287.56 C-692.62 288.78 -692.61 290.01 -692.61 291.27 C-692.62 292.54 -692.63 293.81 -692.63 295.12 C-692.63 296.39 -692.62 297.66 -692.61 298.97 C-692.61 300.2 -692.62 301.42 -692.62 302.68 C-692.62 303.8 -692.62 304.91 -692.63 306.06 C-692.89 309.15 -693.64 311.31 -694.88 314.12 C-695.02 315.74 -695.1 317.37 -695.13 319 C-695.68 326.63 -698.87 333.19 -701.88 340.12 C-703.84 344.54 -703.84 344.54 -702.88 349.12 C-702.22 349.12 -701.56 349.12 -700.88 349.12 C-700.88 350.11 -700.88 351.1 -700.88 352.12 C-699.89 352.12 -698.9 352.12 -697.88 352.12 C-696.51 353.41 -695.18 354.75 -693.88 356.12 C-693.22 356.45 -692.56 356.78 -691.88 357.12 C-691.88 357.78 -691.88 358.44 -691.88 359.12 C-690.56 359.12 -689.24 359.12 -687.88 359.12 C-687.82 359.74 -687.76 360.36 -687.7 361 C-687.09 363.34 -687.09 363.34 -684.7 364.12 C-683.77 364.45 -682.84 364.78 -681.88 365.12 C-676.06 368.59 -676.06 368.59 -674.88 372.12 C-671.88 373.83 -671.88 373.83 -668.88 375.12 C-668.88 375.78 -668.88 376.44 -668.88 377.12 C-668.11 377.49 -668.11 377.49 -667.32 377.87 C-664.11 379.52 -661.01 381.32 -657.88 383.12 C-657.88 383.78 -657.88 384.44 -657.88 385.12 C-657.22 385.12 -656.56 385.12 -655.88 385.12 C-655.88 385.78 -655.88 386.44 -655.88 387.12 C-655.33 387.2 -654.77 387.29 -654.2 387.37 C-651.15 388.36 -649.23 389.97 -646.88 392.12 C-646.88 392.78 -646.88 393.44 -646.88 394.12 C-645.56 394.12 -644.24 394.12 -642.88 394.12 C-642.55 395.44 -642.22 396.76 -641.88 398.12 C-640.94 398.2 -639.99 398.29 -639.01 398.37 C-635.88 399.12 -635.88 399.12 -634.76 400.93 C-634.33 402.02 -634.33 402.02 -633.88 403.12 C-631.75 405.63 -630.04 407.04 -627.07 408.5 C-623.69 410.22 -621.34 412.23 -618.6 414.82 C-616.7 416.26 -615.21 416.7 -612.88 417.12 C-612.88 418.11 -612.88 419.1 -612.88 420.12 C-612.22 420.12 -611.56 420.12 -610.88 420.12 C-610.88 420.78 -610.88 421.44 -610.88 422.12 C-609.89 422.45 -608.9 422.78 -607.88 423.12 C-607.29 423.57 -606.69 424.03 -606.07 424.5 C-603.83 426.28 -603.83 426.28 -600.7 427.56 C-599.77 428.07 -598.84 428.59 -597.88 429.12 C-597.52 430.45 -597.19 431.78 -596.88 433.12 C-595.24 433.85 -593.57 434.51 -591.88 435.12 C-588.84 437.31 -586.98 438.98 -584.88 442.12 C-583 443.23 -583 443.23 -580.88 444.12 C-577.65 445.55 -576.95 446.02 -574.88 449.12 C-573.89 449.45 -572.9 449.78 -571.88 450.12 C-571.88 450.78 -571.88 451.44 -571.88 452.12 C-569.9 452.78 -567.92 453.44 -565.88 454.12 C-565.88 455.11 -565.88 456.1 -565.88 457.12 C-564.89 457.12 -563.9 457.12 -562.88 457.12 C-561.55 458.45 -560.22 459.79 -558.88 461.12 C-557.31 461.89 -557.31 461.89 -555.7 462.68 C-552.88 464.12 -552.88 464.12 -551.88 467.12 C-549.83 468.51 -549.83 468.51 -547.38 469.68 C-542.99 471.92 -542.99 471.92 -541.88 474.12 C-541.57 475.14 -541.57 475.14 -541.26 476.18 C-540.81 476.82 -540.35 477.46 -539.88 478.12 C-538.75 478.26 -537.62 478.41 -536.45 478.56 C-535.27 478.74 -534.1 478.93 -532.88 479.12 C-531.13 481.62 -531.13 481.62 -529.88 484.12 C-528.89 484.45 -527.9 484.78 -526.88 485.12 C-526.88 485.78 -526.88 486.44 -526.88 487.12 C-525.56 487.12 -524.24 487.12 -522.88 487.12 C-522.88 488.11 -522.88 489.1 -522.88 490.12 C-522.22 490.12 -521.56 490.12 -520.88 490.12 C-520.55 490.78 -520.22 491.44 -519.88 492.12 C-517.66 493.56 -515.38 494.86 -513.03 496.1 C-507.99 498.82 -507.99 498.82 -506.88 502.12 C-504.8 503.58 -504.8 503.58 -502.32 504.81 C-501.5 505.24 -500.67 505.68 -499.82 506.13 C-499.18 506.46 -498.54 506.78 -497.88 507.12 C-497.88 507.78 -497.88 508.44 -497.88 509.12 C-495.38 510.84 -492.97 512.09 -490.13 513.18 C-487.88 514.12 -487.88 514.12 -486.88 516.12 C-483.78 514.78 -482.07 513.41 -480.01 510.75 C-476.61 506.61 -473.01 503.83 -467.88 502.12 C-467.19 500.8 -466.53 499.46 -465.88 498.12 C-462.34 494.47 -458.3 491.63 -453.88 489.12 C-452.55 488.13 -451.21 487.13 -449.88 486.12 C-449.22 485.79 -448.56 485.46 -447.88 485.12 C-446.89 484.46 -445.9 483.8 -444.88 483.12 C-444.22 483.45 -443.56 483.78 -442.88 484.12 C-442.88 483.46 -442.88 482.8 -442.88 482.12 C-436.26 478.3 -436.26 478.3 -433.51 477 C-431.69 476.22 -431.69 476.22 -430.88 474.12 C-429.22 473.76 -427.56 473.43 -425.88 473.12 C-422.71 471.86 -422.71 471.86 -420.88 469.12 C-418.56 468.71 -416.23 468.38 -413.88 468.12 C-413.88 467.79 -413.88 467.46 -413.88 467.12 C-411.9 466.79 -409.92 466.46 -407.88 466.12 C-407.88 465.46 -407.88 464.8 -407.88 464.12 C-405.24 463.79 -402.6 463.46 -399.88 463.12 C-399.88 462.79 -399.88 462.46 -399.88 462.12 C-398.77 462 -397.66 461.87 -396.51 461.75 C-392.85 461.47 -392.85 461.47 -390.88 459.12 C-388.28 458.71 -388.28 458.71 -385.26 458.5 C-384.26 458.42 -383.25 458.35 -382.22 458.27 C-381.45 458.22 -380.68 458.17 -379.88 458.12 C-379.88 457.79 -379.88 457.46 -379.88 457.12 C-378.69 457.07 -377.5 457.02 -376.27 456.97 C-374.7 456.9 -373.14 456.82 -371.57 456.75 C-370.79 456.71 -370 456.68 -369.19 456.65 C-368.43 456.61 -367.68 456.57 -366.9 456.53 C-365.85 456.49 -365.85 456.49 -364.79 456.44 C-362.56 456.2 -362.56 456.2 -359.88 454.12 C-355.73 453.67 -351.56 453.8 -347.38 453.81 C-346.25 453.79 -345.12 453.78 -343.95 453.76 C-336.47 453.75 -329.98 454.75 -322.88 457.12 C-322.55 456.46 -322.22 455.8 -321.88 455.12 C-321.88 455.78 -321.88 456.44 -321.88 457.12 C-320.06 457.03 -320.06 457.03 -318.2 456.93 C-309.56 456.92 -301.1 459.66 -292.88 462.12 C-291.82 462.42 -290.75 462.71 -289.66 463.01 C-279.22 466.07 -269.4 470.05 -259.93 475.4 C-256.33 477.43 -252.84 478.94 -248.88 480.12 C-248.2 478.67 -248.2 478.67 -247.51 477.18 C-245.88 474.12 -245.88 474.12 -243.88 473.12 C-243.55 472.13 -243.22 471.14 -242.88 470.12 C-242.22 470.12 -241.56 470.12 -240.88 470.12 C-240.55 469.13 -240.22 468.14 -239.88 467.12 C-238.81 464.55 -237.85 463.08 -235.82 461.12 C-233.73 458.96 -233.52 457.95 -232.88 455.12 C-231.45 453.37 -231.45 453.37 -229.88 452.12 C-229.22 452.12 -228.56 452.12 -227.88 452.12 C-227.55 451.13 -227.22 450.14 -226.88 449.12 C-225.37 446.39 -223.78 443.99 -221.82 441.56 C-220.15 439.45 -218.97 437.57 -217.88 435.12 C-217.22 435.12 -216.56 435.12 -215.88 435.12 C-215.55 433.8 -215.22 432.48 -214.88 431.12 C-214.22 431.45 -213.56 431.78 -212.88 432.12 C-212.76 431.4 -212.64 430.68 -212.51 429.93 C-211.24 424.21 -209.36 421.03 -204.88 417.12 C-204.22 417.12 -203.56 417.12 -202.88 417.12 C-202.78 416.36 -202.68 415.59 -202.57 414.81 C-201.8 411.8 -201.06 411.21 -198.88 409.12 C-198.39 408.13 -197.89 407.14 -197.38 406.12 C-196.08 403.5 -195.16 401.9 -192.88 400.12 C-192.22 400.12 -191.56 400.12 -190.88 400.12 C-190.78 399.54 -190.68 398.97 -190.57 398.37 C-189.78 395.78 -188.51 394.27 -186.88 392.12 C-186.17 390.47 -185.49 388.81 -184.88 387.12 C-184.22 387.12 -183.56 387.12 -182.88 387.12 C-182.62 386.48 -182.35 385.84 -182.07 385.18 C-180.88 383.12 -180.88 383.12 -177.88 382.12 C-177.78 381.36 -177.68 380.59 -177.57 379.81 C-176.8 376.77 -176.08 376.24 -173.88 374.12 C-172.46 371.83 -171.18 369.49 -169.88 367.12 C-169.22 367.12 -168.56 367.12 -167.88 367.12 C-167.55 366.13 -167.22 365.14 -166.88 364.12 C-165.37 361.39 -163.78 358.99 -161.82 356.56 C-160.15 354.45 -158.97 352.57 -157.88 350.12 C-157.22 350.12 -156.56 350.12 -155.88 350.12 C-155.55 349.13 -155.22 348.14 -154.88 347.12 C-153.86 344.67 -152.94 343.17 -151.01 341.31 C-148.28 338.5 -146.74 335.56 -144.88 332.12 C-144.22 332.12 -143.56 332.12 -142.88 332.12 C-142.82 331.4 -142.76 330.68 -142.7 329.93 C-141.63 326.25 -139.66 324.69 -136.88 322.12 C-135.34 319.8 -134.09 317.61 -132.88 315.12 C-132.22 315.12 -131.56 315.12 -130.88 315.12 C-130.55 313.8 -130.22 312.48 -129.88 311.12 C-129.22 311.45 -128.56 311.78 -127.88 312.12 C-127.76 311.36 -127.64 310.59 -127.51 309.81 C-126.41 305.09 -122.96 300.84 -119.88 297.12 C-119.22 297.12 -118.56 297.12 -117.88 297.12 C-117.78 296.36 -117.68 295.59 -117.57 294.81 C-116.8 291.8 -116.06 291.21 -113.88 289.12 C-113.39 288.13 -112.89 287.14 -112.38 286.12 C-111.08 283.5 -110.16 281.9 -107.88 280.12 C-107.22 280.12 -106.56 280.12 -105.88 280.12 C-105.78 279.54 -105.68 278.97 -105.57 278.37 C-104.78 275.78 -103.51 274.27 -101.88 272.12 C-101.17 270.47 -100.49 268.81 -99.88 267.12 C-99.22 267.12 -98.56 267.12 -97.88 267.12 C-97.88 266.46 -97.88 265.8 -97.88 265.12 C-97.22 265.12 -96.56 265.12 -95.88 265.12 C-95.55 264.13 -95.22 263.14 -94.88 262.12 C-93.84 259.63 -92.91 258.14 -90.95 256.25 C-88.52 253.75 -87.33 251.27 -85.88 248.12 C-85.22 246.79 -84.56 245.45 -83.88 244.12 C-84.39 243.49 -84.89 242.87 -85.42 242.22 C-86.07 241.4 -86.71 240.59 -87.38 239.75 C-88.03 238.93 -88.68 238.12 -89.35 237.28 C-90.88 235.12 -90.88 235.12 -90.88 233.12 C-91.54 233.12 -92.2 233.12 -92.88 233.12 C-93.9 231.46 -94.9 229.8 -95.88 228.12 C-96.54 227.79 -97.2 227.46 -97.88 227.12 C-97.88 225.8 -97.88 224.48 -97.88 223.12 C-98.54 223.12 -99.2 223.12 -99.88 223.12 C-106.58 211.05 -112.5 199.24 -116.88 186.12 C-117.25 185.04 -117.62 183.96 -117.99 182.85 C-118.84 180.27 -119.38 177.79 -119.88 175.12 C-120.63 172.3 -120.63 172.3 -121.38 169.48 C-122.72 163.19 -123.03 157 -123.02 150.6 C-123.02 149.83 -123.02 149.05 -123.02 148.25 C-123.02 146.62 -123.02 144.99 -123.01 143.36 C-123.01 140.86 -123.01 138.37 -123.02 135.88 C-123.02 134.29 -123.02 132.7 -123.02 131.1 C-123.02 130.36 -123.02 129.62 -123.02 128.86 C-123.01 125.45 -122.87 122.39 -121.88 119.12 C-121.74 117.92 -121.6 116.73 -121.45 115.5 C-120.88 112.12 -120.88 112.12 -118.88 110.12 C-118.5 108.15 -118.5 108.15 -118.38 105.93 C-118 101.75 -117.29 98.09 -115.88 94.12 C-115.22 93.79 -114.56 93.46 -113.88 93.12 C-113.23 90.59 -113.23 90.59 -112.88 88.12 C-112.22 88.12 -111.56 88.12 -110.88 88.12 C-110.88 85.81 -110.88 83.5 -110.88 81.12 C-110.22 80.79 -109.56 80.46 -108.88 80.12 C-107.98 78.24 -107.98 78.24 -107.26 76.06 C-106.87 74.96 -106.87 74.96 -106.47 73.84 C-106.28 73.27 -106.08 72.7 -105.88 72.12 C-105.22 72.12 -104.56 72.12 -103.88 72.12 C-103.64 71.42 -103.4 70.72 -103.15 70 C-102.81 69.09 -102.48 68.18 -102.13 67.25 C-101.65 65.89 -101.65 65.89 -101.15 64.5 C-99.69 61.76 -98.67 61.31 -95.88 60.12 C-95.08 58.07 -95.08 58.07 -94.88 56.12 C-94.22 56.45 -93.56 56.78 -92.88 57.12 C-93.21 56.13 -93.54 55.14 -93.88 54.12 C-90.13 50.26 -86.35 46.42 -82.57 42.58 C-81.28 41.28 -80 39.97 -78.72 38.66 C-76.88 36.77 -75.03 34.9 -73.18 33.03 C-72.61 32.44 -72.04 31.85 -71.45 31.24 C-70 29.79 -68.45 28.44 -66.88 27.12 C-65.56 27.12 -64.24 27.12 -62.88 27.12 C-62.88 26.46 -62.88 25.8 -62.88 25.12 C-60.99 23.68 -60.99 23.68 -58.51 22.12 C-56.03 20.55 -53.96 19.2 -51.88 17.12 C-49.9 16.72 -47.89 16.38 -45.88 16.12 C-45.88 15.46 -45.88 14.8 -45.88 14.12 C-44.93 13.83 -44.93 13.83 -43.95 13.53 C-42.71 13.14 -42.71 13.14 -41.45 12.75 C-40.62 12.49 -39.8 12.23 -38.95 11.97 C-36.71 11.31 -36.71 11.31 -35.88 9.12 C-32.82 8.5 -32.82 8.5 -29.88 8.12 C-29.88 7.79 -29.88 7.46 -29.88 7.12 C-28.75 7 -27.62 6.87 -26.45 6.75 C-25.27 6.54 -24.1 6.33 -22.88 6.12 C-22.55 5.46 -22.22 4.8 -21.88 4.12 C-19.82 3.71 -19.82 3.71 -17.32 3.5 C-16.5 3.42 -15.67 3.35 -14.82 3.27 C-13.86 3.2 -13.86 3.2 -12.88 3.12 C-12.88 2.46 -12.88 1.8 -12.88 1.12 C-12.17 1.13 -11.46 1.14 -10.73 1.16 C-9.81 1.16 -8.89 1.17 -7.95 1.18 C-6.57 1.2 -6.57 1.2 -5.17 1.22 C-2.58 1.11 -2.45 0.16 0 0 Z " fill="#000100" transform="translate(1004.8843688964844,-0.1202545166015625)"/>
<path d="M0 0 C13.53 0 27.06 0 41 0 C41 0.33 41 0.66 41 1 C27.47 1 13.94 1 0 1 C0 0.67 0 0.34 0 0 Z " fill="#FDFDFD" transform="translate(1006,287)"/>
<path d="M0 0 C6.6 0 13.2 0 20 0 C20 0.33 20 0.66 20 1 C13.4 1 6.8 1 0 1 C0 0.67 0 0.34 0 0 Z " fill="#FDFDFD" transform="translate(188,410)"/>
<path d="M0 0 C5.94 0 11.88 0 18 0 C18 0.33 18 0.66 18 1 C12.06 1 6.12 1 0 1 C0 0.67 0 0.34 0 0 Z " fill="#FDFDFD" transform="translate(661,830)"/>
<path d="M0 0 C3.63 0 7.26 0 11 0 C11 0.33 11 0.66 11 1 C7.37 1 3.74 1 0 1 C0 0.67 0 0.34 0 0 Z " fill="#FDFDFD" transform="translate(1060,827)"/>
<path d="M0 0 C3.3 0 6.6 0 10 0 C10 0.33 10 0.66 10 1 C6.7 1 3.4 1 0 1 C0 0.67 0 0.34 0 0 Z " fill="#FDFDFD" transform="translate(296,1262)"/>
<path d="M0 0 C3.3 0 6.6 0 10 0 C10 0.33 10 0.66 10 1 C6.7 1 3.4 1 0 1 C0 0.67 0 0.34 0 0 Z " fill="#FDFDFD" transform="translate(644,830)"/>
<path d="M0 0 C0.33 0 0.66 0 1 0 C1 2.31 1 4.62 1 7 C0.67 7 0.34 7 0 7 C0 4.69 0 2.38 0 0 Z " fill="#FDFDFD" transform="translate(1195,729)"/>
<path d="M0 0 C0.33 0 0.66 0 1 0 C1 2.31 1 4.62 1 7 C0.67 7 0.34 7 0 7 C0 4.69 0 2.38 0 0 Z " fill="#FDFDFD" transform="translate(1170,156)"/>
<path d="M0 0 C0.33 0 0.66 0 1 0 C1 2.31 1 4.62 1 7 C0.67 7 0.34 7 0 7 C0 4.69 0 2.38 0 0 Z " fill="#FDFDFD" transform="translate(1170,124)"/>
<path d="M0 0 C1.98 0 3.96 0 6 0 C6 0.33 6 0.66 6 1 C4.02 1 2.04 1 0 1 C0 0.67 0 0.34 0 0 Z " fill="#FDFDFD" transform="translate(622,827)"/>
<path d="M0 0 C0.33 0 0.66 0 1 0 C1 1.98 1 3.96 1 6 C0.67 6 0.34 6 0 6 C0 4.02 0 2.04 0 0 Z " fill="#FDFDFD" transform="translate(1195,695)"/>
<path d="M0 0 C1.65 0 3.3 0 5 0 C5 0.33 5 0.66 5 1 C3.35 1 1.7 1 0 1 C0 0.67 0 0.34 0 0 Z " fill="#FDFDFD" transform="translate(1099,827)"/>
<path d="M0 0 C0.66 0.33 1.32 0.66 2 1 C1.01 1.66 0.02 2.32 -1 3 C-0.67 2.01 -0.34 1.02 0 0 Z " fill="#000100" transform="translate(994,638)"/>
<path d="M0 0 C0.66 0.33 1.32 0.66 2 1 C1.01 1.66 0.02 2.32 -1 3 C-0.67 2.01 -0.34 1.02 0 0 Z " fill="#000100" transform="translate(999,633)"/>
<path d="M0 0 C0.66 0.33 1.32 0.66 2 1 C1.01 1.66 0.02 2.32 -1 3 C-0.67 2.01 -0.34 1.02 0 0 Z " fill="#000100" transform="translate(1004,628)"/>
<path d="M0 0 C4 1 4 1 4 1 Z " fill="#FDFDFD" transform="translate(344,1262)"/>
<path d="M0 0 C1 4 1 4 1 4 Z " fill="#FDFDFD" transform="translate(475,1124)"/>
<path d="M0 0 C1 4 1 4 1 4 Z " fill="#FDFDFD" transform="translate(845,610)"/>
<path d="M0 0 C4 1 4 1 4 1 Z " fill="#000100" transform="translate(201,179)"/>
<path d="M0 0 C3 1 3 1 3 1 Z " fill="#FDFDFD" transform="translate(354,1260)"/>
<path d="" fill="#FDFDFD" transform="translate(0,0)"/>
<path d="" fill="#FDFDFD" transform="translate(0,0)"/>
<path d="M0 0 C3 1 3 1 3 1 Z " fill="#FDFDFD" transform="translate(878,700)"/>
<path d="M0 0 C3 1 3 1 3 1 Z " fill="#FDFDFD" transform="translate(853,695)"/>
<path d="" fill="#FDFDFD" transform="translate(0,0)"/>
<path d="M0 0 C3 1 3 1 3 1 Z " fill="#FDFDFD" transform="translate(1054,285)"/>
<path d="M0 0 C3 1 3 1 3 1 Z " fill="#FDFDFD" transform="translate(996,285)"/>
<path d="M0 0 C2 1 2 1 2 1 Z " fill="#FDFDFD" transform="translate(957,1275)"/>
<path d="M0 0 C2 1 2 1 2 1 Z " fill="#FDFDFD" transform="translate(287,1260)"/>
<path d="" fill="#FDFDFD" transform="translate(0,0)"/>
<path d="" fill="#FDFDFD" transform="translate(0,0)"/>
<path d="M0 0 C2 1 2 1 2 1 Z " fill="#FDFDFD" transform="translate(704,825)"/>
<path d="M0 0 C2 1 2 1 2 1 Z " fill="#FDFDFD" transform="translate(1044,822)"/>
<path d="M0 0 C2 1 2 1 2 1 Z " fill="#FDFDFD" transform="translate(604,822)"/>
<path d="M0 0 C2 1 2 1 2 1 Z " fill="#FDFDFD" transform="translate(721,820)"/>
<path d="M0 0 C2 1 2 1 2 1 Z " fill="#FDFDFD" transform="translate(597,820)"/>
<path d="M0 0 C2 1 2 1 2 1 Z " fill="#FDFDFD" transform="translate(954,715)"/>
<path d="M0 0 C2 1 2 1 2 1 Z " fill="#FDFDFD" transform="translate(929,710)"/>
<path d="M0 0 C2 1 2 1 2 1 Z " fill="#FDFDFD" transform="translate(904,705)"/>
<path d="" fill="#FDFDFD" transform="translate(0,0)"/>
<path d="M0 0 C2 1 2 1 2 1 Z " fill="#000100" transform="translate(197,179)"/>
<path d="M0 0 C2 1 2 1 2 1 Z " fill="#000100" transform="translate(187,179)"/>
<path d="" fill="#FDFDFD" transform="translate(0,0)"/>
<path d="" fill="#FDFDFD" transform="translate(0,0)"/>
<path d="" fill="#FDFDFD" transform="translate(0,0)"/>
<path d="" fill="#FDFDFD" transform="translate(0,0)"/>
<path d="" fill="#FDFDFD" transform="translate(0,0)"/>
<path d="" fill="#FDFDFD" transform="translate(0,0)"/>
<path d="" fill="#FDFDFD" transform="translate(0,0)"/>
<path d="" fill="#FDFDFD" transform="translate(0,0)"/>
<path d="" fill="#FDFDFD" transform="translate(0,0)"/>
<path d="" fill="#FDFDFD" transform="translate(0,0)"/>
<path d="" fill="#FDFDFD" transform="translate(0,0)"/>
<path d="" fill="#FDFDFD" transform="translate(0,0)"/>
<path d="" fill="#FDFDFD" transform="translate(0,0)"/>
<path d="" fill="#FDFDFD" transform="translate(0,0)"/>
<path d="" fill="#FDFDFD" transform="translate(0,0)"/>
<path d="" fill="#000100" transform="translate(0,0)"/>
<path d="" fill="#000100" transform="translate(0,0)"/>
<path d="" fill="#FDFDFD" transform="translate(0,0)"/>
<path d="" fill="#000100" transform="translate(0,0)"/>
<path d="" fill="#FDFDFD" transform="translate(0,0)"/>
<path d="" fill="#000100" transform="translate(0,0)"/>
<path d="" fill="#000100" transform="translate(0,0)"/>
<path d="" fill="#000100" transform="translate(0,0)"/>
<path d="" fill="#FDFDFD" transform="translate(0,0)"/>
<path d="" fill="#000100" transform="translate(0,0)"/>
<path d="" fill="#000100" transform="translate(0,0)"/>
<path d="" fill="#000100" transform="translate(0,0)"/>
<path d="" fill="#FDFDFD" transform="translate(0,0)"/>
<path d="" fill="#FDFDFD" transform="translate(0,0)"/>
<path d="" fill="#000100" transform="translate(0,0)"/>
<path d="" fill="#FDFDFD" transform="translate(0,0)"/>
<path d="" fill="#000100" transform="translate(0,0)"/>
<path d="" fill="#000100" transform="translate(0,0)"/>
<path d="" fill="#000100" transform="translate(0,0)"/>
<path d="" fill="#000100" transform="translate(0,0)"/>
<path d="" fill="#000100" transform="translate(0,0)"/>
<path d="" fill="#000100" transform="translate(0,0)"/>
<path d="" fill="#FDFDFD" transform="translate(0,0)"/>
<path d="" fill="#000100" transform="translate(0,0)"/>
<path d="" fill="#000100" transform="translate(0,0)"/>
<path d="" fill="#000100" transform="translate(0,0)"/>
<path d="" fill="#000100" transform="translate(0,0)"/>
<path d="" fill="#000100" transform="translate(0,0)"/>
<path d="" fill="#000100" transform="translate(0,0)"/>
<path d="" fill="#000100" transform="translate(0,0)"/>
<path d="" fill="#FDFDFD" transform="translate(0,0)"/>
<path d="" fill="#000100" transform="translate(0,0)"/>
<path d="" fill="#FDFDFD" transform="translate(0,0)"/>
<path d="" fill="#000100" transform="translate(0,0)"/>
<path d="" fill="#000100" transform="translate(0,0)"/>
<path d="" fill="#000100" transform="translate(0,0)"/>
<path d="" fill="#FDFDFD" transform="translate(0,0)"/>
<path d="" fill="#FDFDFD" transform="translate(0,0)"/>
<path d="" fill="#000100" transform="translate(0,0)"/>
<path d="" fill="#FDFDFD" transform="translate(0,0)"/>
<path d="" fill="#000100" transform="translate(0,0)"/>
<path d="" fill="#FDFDFD" transform="translate(0,0)"/>
<path d="" fill="#FDFDFD" transform="translate(0,0)"/>
<path d="" fill="#FDFDFD" transform="translate(0,0)"/>
<path d="" fill="#FDFDFD" transform="translate(0,0)"/>
<path d="" fill="#FDFDFD" transform="translate(0,0)"/>
<path d="" fill="#FDFDFD" transform="translate(0,0)"/>
<path d="" fill="#FDFDFD" transform="translate(0,0)"/>
<path d="" fill="#FDFDFD" transform="translate(0,0)"/>
<path d="" fill="#FDFDFD" transform="translate(0,0)"/>
<path d="" fill="#FDFDFD" transform="translate(0,0)"/>
<path d="" fill="#FDFDFD" transform="translate(0,0)"/>
<path d="" fill="#FDFDFD" transform="translate(0,0)"/>
<path d="" fill="#FDFDFD" transform="translate(0,0)"/>
<path d="" fill="#000100" transform="translate(0,0)"/>
<path d="" fill="#000100" transform="translate(0,0)"/>
<path d="" fill="#000100" transform="translate(0,0)"/>
<path d="" fill="#FDFDFD" transform="translate(0,0)"/>
<path d="" fill="#FDFDFD" transform="translate(0,0)"/>
<path d="" fill="#FDFDFD" transform="translate(0,0)"/>
<path d="" fill="#FDFDFD" transform="translate(0,0)"/>
<path d="" fill="#000100" transform="translate(0,0)"/>
<path d="" fill="#FDFDFD" transform="translate(0,0)"/>
<path d="" fill="#000100" transform="translate(0,0)"/>
<path d="" fill="#FDFDFD" transform="translate(0,0)"/>
<path d="" fill="#000100" transform="translate(0,0)"/>
<path d="" fill="#000100" transform="translate(0,0)"/>
<path d="" fill="#000100" transform="translate(0,0)"/>
<path d="" fill="#000100" transform="translate(0,0)"/>
<path d="" fill="#000100" transform="translate(0,0)"/>
<path d="" fill="#000100" transform="translate(0,0)"/>
<path d="" fill="#000100" transform="translate(0,0)"/>
<path d="" fill="#000100" transform="translate(0,0)"/>
<path d="" fill="#000100" transform="translate(0,0)"/>
<path d="" fill="#FDFDFD" transform="translate(0,0)"/>
<path d="" fill="#FDFDFD" transform="translate(0,0)"/>
<path d="" fill="#FDFDFD" transform="translate(0,0)"/>
<path d="" fill="#000100" transform="translate(0,0)"/>
<path d="" fill="#FDFDFD" transform="translate(0,0)"/>
<path d="" fill="#000100" transform="translate(0,0)"/>
<path d="" fill="#000100" transform="translate(0,0)"/>
<path d="" fill="#000100" transform="translate(0,0)"/>
<path d="" fill="#000100" transform="translate(0,0)"/>
<path d="" fill="#000100" transform="translate(0,0)"/>
<path d="" fill="#000100" transform="translate(0,0)"/>
<path d="" fill="#FDFDFD" transform="translate(0,0)"/>
<path d="" fill="#000100" transform="translate(0,0)"/>
<path d="" fill="#000100" transform="translate(0,0)"/>
<path d="" fill="#FDFDFD" transform="translate(0,0)"/>
<path d="" fill="#FDFDFD" transform="translate(0,0)"/>
<path d="" fill="#FDFDFD" transform="translate(0,0)"/>
<path d="" fill="#000100" transform="translate(0,0)"/>
<path d="" fill="#FDFDFD" transform="translate(0,0)"/>
<path d="" fill="#FDFDFD" transform="translate(0,0)"/>
<path d="" fill="#000100" transform="translate(0,0)"/>
<path d="" fill="#FDFDFD" transform="translate(0,0)"/>
<path d="" fill="#FDFDFD" transform="translate(0,0)"/>
<path d="" fill="#FDFDFD" transform="translate(0,0)"/>
<path d="" fill="#000100" transform="translate(0,0)"/>
<path d="" fill="#FDFDFD" transform="translate(0,0)"/>
<path d="" fill="#000100" transform="translate(0,0)"/>
<path d="" fill="#FDFDFD" transform="translate(0,0)"/>
<path d="" fill="#000100" transform="translate(0,0)"/>
<path d="" fill="#000100" transform="translate(0,0)"/>
<path d="" fill="#000100" transform="translate(0,0)"/>
<path d="" fill="#FDFDFD" transform="translate(0,0)"/>
<path d="" fill="#FDFDFD" transform="translate(0,0)"/>
<path d="" fill="#FDFDFD" transform="translate(0,0)"/>
<path d="" fill="#FDFDFD" transform="translate(0,0)"/>
<path d="" fill="#FDFDFD" transform="translate(0,0)"/>
<path d="" fill="#FDFDFD" transform="translate(0,0)"/>
<path d="" fill="#000100" transform="translate(0,0)"/>
<path d="" fill="#FDFDFD" transform="translate(0,0)"/>
<path d="" fill="#FDFDFD" transform="translate(0,0)"/>
<path d="" fill="#000100" transform="translate(0,0)"/>
<path d="" fill="#000100" transform="translate(0,0)"/>
<path d="" fill="#FDFDFD" transform="translate(0,0)"/>
<path d="" fill="#000100" transform="translate(0,0)"/>
<path d="" fill="#FDFDFD" transform="translate(0,0)"/>
<path d="" fill="#FDFDFD" transform="translate(0,0)"/>
<path d="" fill="#000100" transform="translate(0,0)"/>
<path d="" fill="#000100" transform="translate(0,0)"/>
<path d="" fill="#000100" transform="translate(0,0)"/>
<path d="" fill="#000100" transform="translate(0,0)"/>
<path d="" fill="#000100" transform="translate(0,0)"/>
<path d="" fill="#FDFDFD" transform="translate(0,0)"/>
<path d="" fill="#000100" transform="translate(0,0)"/>
<path d="" fill="#000100" transform="translate(0,0)"/>
<path d="" fill="#000100" transform="translate(0,0)"/>
<path d="" fill="#FDFDFD" transform="translate(0,0)"/>
<path d="" fill="#000100" transform="translate(0,0)"/>
<path d="" fill="#FDFDFD" transform="translate(0,0)"/>
<path d="" fill="#000100" transform="translate(0,0)"/>
<path d="" fill="#000100" transform="translate(0,0)"/>
<path d="" fill="#000100" transform="translate(0,0)"/>
<path d="" fill="#000100" transform="translate(0,0)"/>
</svg>
