<?xml version="1.0" encoding="UTF-8"?>
<!-- Generator: visioncortex VTracer 0.6.3 -->
<svg version="1.1" xmlns="http://www.w3.org/2000/svg" width="1280" height="1280">
<path d="M0 0 C4.19 3.83 7.38 7.95 10 13 C10 13.66 10 14.32 10 15 C10.66 15 11.32 15 12 15 C13.44 16.71 13.44 16.71 15 18.94 C17.05 21.99 17.05 21.99 20 24 C20 24.66 20 25.32 20 26 C20.56 26.25 21.12 26.5 21.7 26.76 C24.34 28.18 26.45 29.89 28.75 31.81 C36.11 37.76 43.13 41.71 52 45 C52.67 45.27 53.34 45.53 54.03 45.81 C78.01 55.27 108.58 55.01 132.38 45.18 C136.44 43.35 140.39 41.33 144.34 39.27 C146.6 38.19 148.56 37.48 151 37 C151 36.34 151 35.68 151 35 C152.68 33.49 152.68 33.49 154.88 31.88 C155.95 31.07 155.95 31.07 157.05 30.24 C159 29 159 29 161 29 C161 28.34 161 27.68 161 27 C162.07 26.06 163.18 25.18 164.31 24.31 C168.52 20.76 171.66 16.74 174.88 12.31 C175.59 11.33 175.59 11.33 176.32 10.33 C178.47 7.32 180.5 4.4 182 1 C184.25 1.06 184.25 1.06 187 2 C189.06 5.19 189.06 5.19 190.02 7.09 C190.97 8.95 192.05 10.6 193.25 12.31 C195 15 195 15 195 17 C195.66 17 196.32 17 197 17 C198.62 18.68 198.62 18.68 200.44 20.88 C202.58 23.46 204.17 25.11 207 27 C207 27.66 207 28.32 207 29 C207.8 29.37 207.8 29.37 208.62 29.75 C211.58 31.31 214.3 33.03 217 35 C217 35.66 217 36.32 217 37 C217.54 37.11 218.09 37.21 218.65 37.32 C221.53 38.15 223.97 39.43 226.62 40.81 C245.49 50.37 263.11 52.43 284 52 C285.11 51.98 286.23 51.97 287.38 51.95 C299.42 51.42 311.48 47.87 322 42 C323.17 41.55 323.17 41.55 324.37 41.09 C331.93 37.96 338.53 32.87 344.44 27.29 C346 26 346 26 348 26 C348 25.34 348 24.68 348 24 C349.64 22.31 351.31 20.65 353 19 C353.84 17.86 353.84 17.86 354.69 16.69 C355.34 15.85 355.34 15.85 356 15 C356.66 15 357.32 15 358 15 C358.28 14.44 358.56 13.87 358.85 13.29 C360.02 10.97 361.21 8.66 362.44 6.38 C362.85 5.6 363.26 4.82 363.68 4.02 C365 2 365 2 368 0 C369.18 1.43 370.34 2.87 371.5 4.31 C372.15 5.11 372.8 5.91 373.47 6.74 C375 9 375 9 375 12 C375.66 12 376.32 12 377 12 C378.69 13.86 378.69 13.86 380.56 16.31 C381.18 17.11 381.8 17.91 382.44 18.74 C384 21 384 21 385 24 C386.32 24.69 387.66 25.35 389 26 C390.86 27.56 392.69 29.14 394.5 30.75 C400.2 35.66 406.14 38.89 413 42 C414.23 42.68 415.46 43.37 416.69 44.06 C427.28 49.31 439.26 51.82 451 52 C451.99 52.02 451.99 52.02 453 52.04 C479.85 52.55 502.85 46.96 525 31 C525.72 30.27 526.44 29.54 527.19 28.79 C529 27 529 27 531 27 C531.27 26.36 531.54 25.72 531.81 25.06 C533 23 533 23 536 22 C536.71 20.69 537.37 19.35 538 18 C539.1 16.56 540.22 15.15 541.38 13.75 C544.6 9.69 546.86 5.71 549 1 C551.3 1.19 551.3 1.19 554 2 C555.7 4.15 555.7 4.15 557.25 6.94 C570.12 28.44 592.32 42.84 616.13 49.2 C619 50 619 50 621 51 C647.69 56.02 673.61 52.78 696.79 38.25 C699 37 699 37 702 37 C702 209.59 702 382.18 702 560 C551.84 560.08 551.84 560.08 494.4 560.1 C479.39 560.1 464.37 560.1 449.35 560.11 C447.53 560.11 445.71 560.11 443.9 560.11 C414.91 560.12 385.92 560.13 356.94 560.15 C327.16 560.17 297.38 560.18 267.6 560.19 C263.4 560.19 259.2 560.19 254.99 560.19 C254.17 560.19 253.34 560.19 252.49 560.19 C239.15 560.19 225.81 560.2 212.48 560.21 C199.08 560.23 185.69 560.23 172.3 560.23 C164.33 560.23 156.36 560.23 148.4 560.24 C142.46 560.25 136.53 560.25 130.59 560.24 C128.18 560.24 125.77 560.24 123.36 560.25 C120.1 560.26 116.84 560.25 113.59 560.25 C112.63 560.25 111.68 560.26 110.69 560.26 C109.83 560.26 108.97 560.25 108.08 560.25 C107.34 560.25 106.59 560.25 105.82 560.25 C104 560 104 560 102 558 C101.75 555.41 101.75 555.41 101.74 552.04 C101.73 550.12 101.73 550.12 101.72 548.16 C101.73 546.73 101.73 545.3 101.73 543.87 C101.73 542.36 101.73 540.84 101.72 539.33 C101.71 535.17 101.71 531 101.71 526.83 C101.71 522.34 101.7 517.85 101.69 513.36 C101.68 505.57 101.67 497.79 101.66 490.01 C101.66 478.74 101.64 467.48 101.62 456.22 C101.58 437.94 101.55 419.66 101.53 401.38 C101.53 400.28 101.53 399.19 101.53 398.06 C101.52 390.29 101.51 382.52 101.5 374.75 C101.49 365.88 101.48 357.01 101.47 348.14 C101.47 347.05 101.47 345.96 101.46 344.83 C101.44 326.63 101.41 308.42 101.38 290.22 C101.35 278.98 101.34 267.75 101.33 256.51 C101.33 248.81 101.32 241.12 101.3 233.42 C101.29 228.97 101.29 224.53 101.29 220.09 C101.29 216.02 101.28 211.95 101.27 207.88 C101.27 206.41 101.27 204.94 101.27 203.47 C101.27 201.46 101.27 199.46 101.26 197.46 C101.25 196.35 101.25 195.24 101.25 194.1 C100.98 190.74 100.33 188.1 99 185 C98.01 184.34 97.02 183.68 96 183 C96 182.34 96 181.68 96 181 C56.1 180.93 16.2 180.88 -23.7 180.85 C-28.41 180.84 -33.12 180.84 -37.83 180.84 C-38.76 180.83 -39.7 180.83 -40.67 180.83 C-55.85 180.82 -71.04 180.8 -86.22 180.77 C-101.8 180.74 -117.38 180.72 -132.96 180.72 C-142.57 180.71 -152.19 180.7 -161.8 180.68 C-168.4 180.66 -174.99 180.66 -181.58 180.66 C-185.38 180.66 -189.18 180.66 -192.99 180.64 C-197.11 180.63 -201.23 180.63 -205.36 180.64 C-206.56 180.63 -207.77 180.62 -209.01 180.61 C-216.95 180.6 -216.95 180.6 -224 184 C-227.16 187.34 -227.38 189.76 -227.38 194.28 C-227.4 196.23 -227.4 196.23 -227.41 198.22 C-227.4 199.67 -227.4 201.11 -227.39 202.56 C-227.4 204.09 -227.4 205.62 -227.41 207.16 C-227.43 211.38 -227.42 215.6 -227.42 219.82 C-227.42 224.36 -227.43 228.91 -227.44 233.46 C-227.46 241.34 -227.47 249.22 -227.47 257.1 C-227.47 268.5 -227.49 279.89 -227.52 291.29 C-227.56 309.78 -227.58 328.27 -227.6 346.76 C-227.62 364.72 -227.64 382.68 -227.66 400.64 C-227.66 402.3 -227.66 402.3 -227.67 403.99 C-227.69 416.06 -227.7 428.13 -227.73 440.2 C-227.73 441.26 -227.73 442.32 -227.73 443.41 C-227.74 447.65 -227.75 451.88 -227.75 456.12 C-227.78 468.54 -227.79 480.96 -227.8 493.38 C-227.81 501.16 -227.82 508.95 -227.83 516.73 C-227.84 521.23 -227.84 525.73 -227.84 530.23 C-227.84 534.34 -227.85 538.45 -227.86 542.56 C-227.86 544.05 -227.86 545.55 -227.86 547.04 C-227.86 549.06 -227.86 551.08 -227.87 553.09 C-227.87 554.22 -227.87 555.34 -227.87 556.5 C-228 559 -228 559 -229 560 C-263.65 560 -298.3 560 -334 560 C-334 387.41 -334 214.82 -334 37 C-330.56 37.86 -328.13 38.95 -325.08 40.68 C-302.24 53.62 -275.67 56.34 -250.2 50.34 C-247.76 49.65 -245.39 48.86 -243 48 C-241.81 47.57 -241.81 47.57 -240.59 47.13 C-238.03 46.15 -235.51 45.1 -233 44 C-232.1 43.61 -231.2 43.23 -230.27 42.83 C-213.97 35.32 -198.65 22.91 -189.47 7.45 C-186.68 2.81 -186.68 2.81 -185 1 C-183.68 1 -182.36 1 -181 1 C-180.6 1.8 -180.6 1.8 -180.19 2.62 C-177.21 8.27 -173.7 13.06 -169.57 17.93 C-168 20 -168 20 -168 22 C-167.36 22.27 -166.72 22.54 -166.06 22.81 C-164 24 -164 24 -163 27 C-161.69 27.71 -160.35 28.37 -159 29 C-157.65 30.06 -156.31 31.14 -155 32.25 C-150.56 35.77 -145.93 38.24 -140.82 40.66 C-138.59 41.72 -136.47 42.86 -134.31 44.06 C-123.72 49.31 -111.74 51.82 -100 52 C-99.01 52.02 -99.01 52.02 -98 52.04 C-68.59 52.6 -42.64 45.84 -20.59 25.29 C-19 24 -19 24 -17 24 C-16.73 23.43 -16.46 22.86 -16.19 22.27 C-14.96 19.92 -13.57 17.88 -12 15.75 C-11.48 15.04 -10.97 14.34 -10.44 13.61 C-9.73 12.81 -9.73 12.81 -9 12 C-8.34 12 -7.68 12 -7 12 C-6.9 11.43 -6.8 10.86 -6.69 10.27 C-5.88 7.6 -4.65 5.94 -2.94 3.75 C-2.39 3.04 -1.84 2.34 -1.28 1.61 C-0.65 0.81 -0.65 0.81 0 0 Z M191.09 186.25 C189.65 189.88 189.58 193.23 189.61 197.08 C189.61 197.89 189.6 198.69 189.6 199.53 C189.58 202.23 189.59 204.94 189.6 207.65 C189.59 209.59 189.58 211.53 189.58 213.47 C189.56 218.75 189.56 224.02 189.56 229.29 C189.57 233.69 189.56 238.09 189.56 242.49 C189.54 252.88 189.54 263.26 189.55 273.64 C189.57 284.36 189.55 295.07 189.52 305.78 C189.5 314.98 189.5 324.17 189.5 333.37 C189.51 338.86 189.5 344.36 189.49 349.85 C189.47 355.02 189.47 360.18 189.49 365.35 C189.5 367.24 189.49 369.14 189.48 371.03 C189.47 373.62 189.48 376.21 189.5 378.8 C189.49 379.54 189.48 380.29 189.47 381.07 C189.54 386.18 190.63 389.15 194 393 C198.4 395.65 201.65 396.38 206.75 396.38 C207.41 396.38 208.06 396.39 208.74 396.39 C210.94 396.4 213.14 396.39 215.34 396.38 C216.93 396.38 218.52 396.39 220.11 396.4 C224.49 396.41 228.87 396.4 233.24 396.39 C237.96 396.39 242.68 396.4 247.4 396.4 C256.65 396.42 265.89 396.41 275.14 396.41 C282.65 396.4 290.16 396.4 297.68 396.4 C299.28 396.4 299.28 396.4 300.92 396.4 C303.09 396.4 305.26 396.4 307.43 396.41 C327.79 396.41 348.16 396.4 368.52 396.39 C386 396.37 403.48 396.38 420.96 396.39 C441.25 396.41 461.54 396.41 481.83 396.4 C484 396.4 486.16 396.4 488.32 396.4 C489.39 396.4 490.45 396.4 491.55 396.4 C499.05 396.4 506.56 396.4 514.06 396.41 C523.21 396.42 532.35 396.42 541.5 396.4 C546.16 396.39 550.83 396.39 555.5 396.4 C559.77 396.41 564.04 396.4 568.31 396.39 C569.86 396.38 571.4 396.38 572.95 396.39 C575.05 396.4 577.15 396.39 579.25 396.38 C580.42 396.38 581.58 396.38 582.79 396.38 C587.56 395.82 590.84 394.08 594.34 390.82 C596.5 387.15 596.56 383.98 596.51 379.84 C596.51 379.02 596.52 378.2 596.53 377.36 C596.54 374.63 596.53 371.89 596.52 369.15 C596.52 367.19 596.53 365.23 596.54 363.26 C596.56 357.93 596.55 352.6 596.54 347.27 C596.53 341.7 596.54 336.12 596.54 330.54 C596.55 321.18 596.54 311.81 596.52 302.45 C596.5 291.62 596.51 280.79 596.53 269.96 C596.55 260.66 596.55 251.37 596.54 242.07 C596.53 236.52 596.53 230.97 596.55 225.42 C596.56 220.19 596.55 214.97 596.53 209.75 C596.52 207.84 596.52 205.92 596.53 204 C596.54 201.39 596.53 198.78 596.51 196.16 C596.52 195.4 596.53 194.64 596.53 193.86 C596.48 190.39 596.11 188.19 594.34 185.18 C589.72 180.88 585.49 179.63 579.25 179.62 C578.6 179.62 577.94 179.61 577.26 179.61 C575.07 179.59 572.87 179.6 570.67 179.61 C569.08 179.61 567.49 179.6 565.89 179.6 C561.52 179.58 557.15 179.59 552.77 179.59 C548.05 179.6 543.34 179.59 538.62 179.58 C529.38 179.56 520.14 179.56 510.89 179.56 C503.38 179.57 495.87 179.56 488.36 179.56 C487.29 179.56 486.22 179.56 485.12 179.56 C482.95 179.56 480.78 179.55 478.61 179.55 C458.25 179.54 437.89 179.54 417.53 179.56 C398.9 179.57 380.27 179.55 361.64 179.53 C342.51 179.5 323.39 179.49 304.26 179.5 C293.52 179.51 282.78 179.5 272.04 179.49 C262.9 179.47 253.76 179.47 244.62 179.49 C239.95 179.5 235.29 179.5 230.62 179.48 C226.35 179.47 222.08 179.47 217.81 179.49 C216.26 179.5 214.72 179.49 213.17 179.48 C200.77 179.23 200.77 179.23 191.09 186.25 Z " fill="#000000" transform="translate(456,675)"/>
<path d="M0 0 C1.49 -0 1.49 -0 3.01 -0.01 C6.33 -0.02 9.65 -0.01 12.97 -0 C15.35 -0.01 17.73 -0.01 20.11 -0.02 C25.91 -0.02 31.7 -0.02 37.5 -0.02 C42.21 -0.01 46.92 -0.01 51.62 -0.01 C52.29 -0.01 52.96 -0.01 53.66 -0.01 C55.02 -0.02 56.38 -0.02 57.74 -0.02 C70.5 -0.02 83.26 -0.02 96.02 -0 C106.98 0 117.93 0 128.89 -0.01 C141.61 -0.02 154.33 -0.02 167.05 -0.02 C168.41 -0.01 169.77 -0.01 171.12 -0.01 C172.12 -0.01 172.12 -0.01 173.14 -0.01 C177.85 -0.01 182.55 -0.01 187.26 -0.02 C193.59 -0.02 199.91 -0.02 206.24 -0.01 C208.57 -0.01 210.89 -0.01 213.22 -0.01 C216.39 -0.02 219.55 -0.01 222.72 0 C223.65 -0 224.58 -0.01 225.54 -0.01 C226.81 -0.01 226.81 -0.01 228.1 0 C228.83 0 229.56 0 230.31 0 C232.1 0.25 232.1 0.25 234.1 2.25 C234.36 5.25 234.36 5.25 234.37 9.17 C234.37 9.89 234.38 10.61 234.38 11.36 C234.4 13.78 234.39 16.21 234.39 18.63 C234.4 20.37 234.4 22.1 234.41 23.84 C234.43 27.58 234.44 31.32 234.44 35.06 C234.45 40.98 234.47 46.89 234.49 52.81 C234.54 65.37 234.57 77.94 234.6 90.5 C234.64 104.05 234.67 117.6 234.73 131.15 C234.75 137.03 234.77 142.91 234.77 148.79 C234.78 152.46 234.79 156.12 234.81 159.78 C234.81 161.48 234.82 163.17 234.82 164.87 C234.81 167.19 234.83 169.51 234.84 171.83 C234.84 173.12 234.85 174.42 234.85 175.76 C235.11 179.3 235.68 182.01 237.1 185.25 C238.09 185.91 239.08 186.57 240.1 187.25 C240.1 187.91 240.1 188.57 240.1 189.25 C432.82 189.25 625.54 189.25 824.1 189.25 C824.1 188.59 824.1 187.93 824.1 187.25 C825.06 186.6 825.06 186.6 826.04 185.94 C828.72 183.75 828.65 182.65 829.1 179.25 C829.2 176.82 829.24 174.38 829.25 171.95 C829.25 171.22 829.26 170.5 829.26 169.75 C829.27 167.32 829.27 164.9 829.28 162.47 C829.28 160.73 829.29 158.99 829.3 157.25 C829.31 153.5 829.32 149.75 829.33 146.01 C829.35 140.09 829.37 134.17 829.4 128.25 C829.47 111.42 829.53 94.58 829.58 77.75 C829.61 68.45 829.65 59.16 829.69 49.86 C829.71 43.97 829.73 38.08 829.74 32.19 C829.75 28.53 829.77 24.88 829.79 21.22 C829.8 19.52 829.8 17.82 829.8 16.12 C829.8 13.81 829.82 11.49 829.83 9.18 C829.84 7.24 829.84 7.24 829.85 5.25 C830.1 2.25 830.1 2.25 832.1 0.25 C833.89 0 833.89 0 836.11 -0 C837.37 -0.01 837.37 -0.01 838.65 -0.02 C839.58 -0.02 840.51 -0.02 841.47 -0.01 C842.46 -0.02 843.44 -0.02 844.45 -0.03 C847.77 -0.04 851.09 -0.04 854.4 -0.04 C856.77 -0.04 859.14 -0.05 861.51 -0.06 C867.3 -0.07 873.08 -0.08 878.86 -0.08 C883.57 -0.08 888.27 -0.09 892.97 -0.09 C906.31 -0.11 919.64 -0.12 932.97 -0.12 C934.05 -0.12 934.05 -0.12 935.15 -0.12 C936.24 -0.12 936.24 -0.12 937.34 -0.12 C949 -0.12 960.66 -0.13 972.32 -0.16 C984.29 -0.19 996.26 -0.21 1008.23 -0.2 C1014.95 -0.2 1021.68 -0.21 1028.4 -0.23 C1034.72 -0.25 1041.05 -0.25 1047.37 -0.24 C1049.69 -0.23 1052.01 -0.24 1054.33 -0.25 C1057.51 -0.27 1060.68 -0.26 1063.85 -0.24 C1064.76 -0.25 1065.68 -0.26 1066.62 -0.27 C1072.92 -0.2 1077.55 1.31 1083.1 4.25 C1083.76 4.58 1084.42 4.91 1085.1 5.25 C1085.1 5.91 1085.1 6.57 1085.1 7.25 C1085.76 7.25 1086.42 7.25 1087.1 7.25 C1093.97 15.18 1095.21 24.16 1095.86 34.36 C1096.16 37.86 1096.83 41.2 1097.57 44.63 C1099.05 51.84 1100.07 59.1 1100.6 66.44 C1100.94 70.95 1101.62 75.22 1102.57 79.63 C1104.05 86.84 1105.07 94.1 1105.6 101.44 C1105.94 105.95 1106.62 110.22 1107.57 114.63 C1109.05 121.84 1110.07 129.1 1110.6 136.44 C1110.94 140.95 1111.62 145.22 1112.57 149.63 C1114.05 156.84 1115.07 164.1 1115.6 171.44 C1115.94 175.95 1116.62 180.23 1117.57 184.65 C1124.42 217.8 1124.42 217.8 1117.17 229.25 C1115.58 231.57 1115.58 231.57 1114.1 233.25 C1113.44 233.25 1112.78 233.25 1112.1 233.25 C1112.1 233.91 1112.1 234.57 1112.1 235.25 C1106.53 239.19 1101.12 240.5 1094.37 240.53 C1093.71 240.54 1093.05 240.54 1092.37 240.55 C1090.15 240.57 1087.93 240.57 1085.7 240.57 C1084.07 240.58 1082.45 240.59 1080.82 240.6 C1076.27 240.63 1071.72 240.64 1067.17 240.65 C1063.15 240.67 1059.14 240.69 1055.13 240.71 C1043.72 240.76 1032.31 240.8 1020.9 240.84 C1012.05 240.86 1003.2 240.89 994.35 240.93 C901.18 241.27 808.01 241.33 460.61 241.38 C422.1 241.38 383.59 241.38 345.09 241.38 C299.82 241.39 254.54 241.39 209.27 241.39 C204.46 241.39 199.65 241.39 194.84 241.39 C193.65 241.39 192.47 241.39 191.25 241.39 C173.48 241.39 155.71 241.39 137.94 241.39 C117.88 241.39 97.83 241.39 77.77 241.39 C66.58 241.38 55.4 241.38 44.21 241.39 C36.74 241.39 29.27 241.39 21.8 241.38 C17.55 241.38 13.3 241.38 9.05 241.38 C-37.26 241.42 -37.26 241.42 -45.9 236.25 C-46.56 235.92 -47.22 235.59 -47.9 235.25 C-47.9 234.59 -47.9 233.93 -47.9 233.25 C-48.89 232.92 -49.88 232.59 -50.9 232.25 C-56.71 225.82 -57.04 218.99 -56.79 210.7 C-56.27 201.13 -54.87 191.87 -52.9 182.5 C-51.46 175.49 -50.73 168.36 -49.9 161.25 C-49.55 158.32 -49.19 155.38 -48.83 152.44 C-48.68 151.14 -48.52 149.83 -48.36 148.48 C-47.9 145.25 -47.9 145.25 -46.9 142.25 C-46.55 139.86 -46.24 137.47 -45.96 135.07 C-45.83 134.02 -45.83 134.02 -45.7 132.95 C-45.43 130.72 -45.16 128.49 -44.9 126.25 C-44.54 123.32 -44.19 120.38 -43.83 117.44 C-43.68 116.14 -43.52 114.83 -43.36 113.48 C-42.9 110.25 -42.9 110.25 -41.9 107.25 C-41.55 104.86 -41.24 102.47 -40.96 100.07 C-40.87 99.37 -40.79 98.67 -40.7 97.95 C-40.43 95.72 -40.16 93.49 -39.9 91.25 C-39.54 88.32 -39.19 85.38 -38.83 82.44 C-38.68 81.14 -38.52 79.83 -38.36 78.48 C-37.9 75.25 -37.9 75.25 -36.9 72.25 C-36.55 69.86 -36.24 67.47 -35.96 65.07 C-35.87 64.37 -35.79 63.67 -35.7 62.95 C-35.43 60.72 -35.16 58.49 -34.9 56.25 C-34.54 53.32 -34.19 50.38 -33.83 47.44 C-33.68 46.14 -33.52 44.83 -33.36 43.48 C-32.9 40.25 -32.9 40.25 -31.9 37.25 C-31.74 35.42 -31.62 33.59 -31.52 31.75 C-30.78 22.42 -29.13 14.45 -22.9 7.25 C-22.24 7.25 -21.58 7.25 -20.9 7.25 C-20.9 6.59 -20.9 5.93 -20.9 5.25 C-14.21 0.54 -7.91 -0.04 0 0 Z " fill="#000000" transform="translate(107.89532470703125,234.74603271484375)"/>
<path d="M0 0 C1.28 -0.01 1.28 -0.01 2.59 -0.01 C5.46 -0.02 8.34 -0.02 11.21 -0.01 C13.29 -0.01 15.37 -0.02 17.44 -0.02 C23.16 -0.04 28.87 -0.04 34.59 -0.03 C40.75 -0.03 46.91 -0.04 53.07 -0.05 C65.15 -0.07 77.22 -0.08 89.3 -0.08 C99.11 -0.08 108.92 -0.08 118.73 -0.09 C121.56 -0.09 124.38 -0.09 127.21 -0.09 C128.26 -0.09 128.26 -0.09 129.33 -0.09 C149.08 -0.11 168.83 -0.12 188.58 -0.11 C189.7 -0.11 189.7 -0.11 190.84 -0.11 C194.61 -0.11 198.39 -0.11 202.16 -0.11 C202.91 -0.11 203.66 -0.11 204.43 -0.11 C205.95 -0.11 207.46 -0.11 208.98 -0.11 C232.56 -0.11 256.15 -0.13 279.73 -0.15 C306.23 -0.19 332.72 -0.2 359.22 -0.2 C362.05 -0.2 364.87 -0.2 367.7 -0.2 C368.39 -0.2 369.09 -0.2 369.8 -0.2 C381 -0.2 392.19 -0.21 403.39 -0.23 C414.64 -0.25 425.89 -0.25 437.14 -0.24 C443.24 -0.23 449.33 -0.23 455.43 -0.25 C461.01 -0.26 466.58 -0.26 472.16 -0.24 C474.18 -0.24 476.2 -0.24 478.22 -0.25 C480.97 -0.27 483.71 -0.26 486.45 -0.24 C487.24 -0.25 488.02 -0.26 488.83 -0.27 C494.75 -0.19 499.19 1.56 504.42 4.26 C505.08 4.59 505.74 4.92 506.42 5.26 C506.42 5.92 506.42 6.58 506.42 7.26 C507.08 7.26 507.74 7.26 508.42 7.26 C509.89 9.23 509.89 9.23 511.48 11.88 C512.27 13.17 512.27 13.17 513.08 14.48 C515.35 19.2 515.54 23.96 515.55 29.13 C515.55 30.28 515.55 31.44 515.56 32.63 C515.56 33.89 515.56 35.16 515.56 36.46 C515.56 37.82 515.56 39.18 515.57 40.54 C515.57 44.27 515.58 48.01 515.58 51.74 C515.58 55.77 515.59 59.8 515.59 63.82 C515.61 72.63 515.61 81.43 515.62 90.23 C515.62 95.73 515.62 101.22 515.63 106.72 C515.64 121.92 515.65 137.13 515.65 152.34 C515.65 153.31 515.65 154.28 515.65 155.28 C515.65 156.26 515.65 157.23 515.65 158.24 C515.66 160.21 515.66 162.19 515.66 164.16 C515.66 165.14 515.66 166.12 515.66 167.13 C515.66 183.04 515.68 198.94 515.7 214.84 C515.72 231.16 515.74 247.48 515.74 263.8 C515.74 272.97 515.75 282.13 515.76 291.3 C515.78 299.1 515.78 306.9 515.78 314.7 C515.77 318.68 515.77 322.66 515.79 326.64 C515.8 330.28 515.8 333.92 515.79 337.56 C515.78 339.51 515.8 341.47 515.81 343.42 C515.8 344.56 515.79 345.71 515.79 346.89 C515.79 348.38 515.79 348.38 515.79 349.91 C515.6 351.07 515.6 351.07 515.42 352.26 C511.5 354.87 508.2 354.53 503.65 354.51 C502.74 354.51 501.83 354.51 500.89 354.52 C497.81 354.53 494.73 354.52 491.65 354.51 C489.43 354.51 487.21 354.52 484.99 354.52 C478.87 354.53 472.75 354.52 466.63 354.52 C460.71 354.51 454.79 354.52 448.88 354.53 C436.02 354.54 423.17 354.53 410.32 354.53 C399.07 354.52 387.82 354.52 376.57 354.52 C375.83 354.53 375.08 354.53 374.32 354.53 C371.29 354.53 368.27 354.53 365.24 354.53 C336.85 354.53 308.46 354.53 280.06 354.52 C254.82 354.51 229.58 354.51 204.34 354.52 C176 354.53 147.66 354.53 119.32 354.53 C116.3 354.53 113.28 354.53 110.26 354.52 C109.14 354.52 109.14 354.52 108 354.52 C96.76 354.52 85.52 354.52 74.28 354.53 C61.5 354.54 48.72 354.53 35.94 354.52 C29.41 354.52 22.89 354.52 16.36 354.52 C10.4 354.53 4.43 354.53 -1.54 354.51 C-3.7 354.51 -5.87 354.51 -8.03 354.52 C-10.96 354.52 -13.89 354.52 -16.82 354.51 C-17.68 354.51 -18.53 354.52 -19.41 354.52 C-23.32 354.5 -25.26 354.48 -28.58 352.26 C-28.96 349.91 -28.96 349.91 -28.96 346.9 C-28.97 345.75 -28.97 344.61 -28.98 343.43 C-28.97 341.52 -28.97 341.52 -28.96 339.58 C-28.96 338.23 -28.97 336.87 -28.97 335.52 C-28.98 331.79 -28.97 328.06 -28.96 324.33 C-28.95 320.31 -28.96 316.29 -28.97 312.27 C-28.98 304.39 -28.97 296.51 -28.96 288.63 C-28.94 279.45 -28.95 270.28 -28.95 261.1 C-28.95 244.73 -28.94 228.36 -28.92 211.98 C-28.9 196.09 -28.89 180.2 -28.9 164.31 C-28.91 147.02 -28.91 129.73 -28.89 112.44 C-28.89 110.6 -28.89 108.75 -28.89 106.91 C-28.89 105.54 -28.89 105.54 -28.89 104.16 C-28.89 97.76 -28.89 91.37 -28.89 84.97 C-28.89 77.17 -28.88 69.37 -28.87 61.58 C-28.86 57.6 -28.86 53.62 -28.86 49.64 C-28.87 46 -28.86 42.35 -28.85 38.71 C-28.85 36.77 -28.85 34.83 -28.86 32.89 C-28.82 24.94 -28.55 17.63 -24.08 10.76 C-23.66 10.09 -23.24 9.42 -22.8 8.73 C-22.4 8.24 -22 7.76 -21.58 7.26 C-20.92 7.26 -20.26 7.26 -19.58 7.26 C-19.58 6.6 -19.58 5.94 -19.58 5.26 C-13.4 0.89 -7.42 -0.04 0 0 Z M291.42 66.26 C291.42 66.92 291.42 67.58 291.42 68.26 C290.76 68.26 290.1 68.26 289.42 68.26 C289.42 68.92 289.42 69.58 289.42 70.26 C288.43 70.59 287.44 70.92 286.42 71.26 C286.42 71.92 286.42 72.58 286.42 73.26 C285.76 73.26 285.1 73.26 284.42 73.26 C269.03 90.81 267.44 110.99 268.42 133.26 C268.72 137.54 269.16 141.8 269.67 146.07 C269.77 147.04 269.88 148.01 270 149.01 C270.86 155.59 272.69 161.23 275.42 167.26 C275.88 168.33 276.35 169.4 276.84 170.51 C280.18 177.42 284 183.75 289.42 189.26 C290.08 189.26 290.74 189.26 291.42 189.26 C291.75 190.25 292.08 191.24 292.42 192.26 C293.97 193.7 293.97 193.7 295.85 194.94 C296.47 195.38 297.09 195.82 297.72 196.27 C299.38 197.43 299.38 197.43 301.42 197.26 C301.42 197.92 301.42 198.58 301.42 199.26 C303.07 199.59 304.72 199.92 306.42 200.26 C306.42 200.92 306.42 201.58 306.42 202.26 C307.63 202.68 308.85 203.1 310.1 203.53 C311.68 204.09 313.27 204.64 314.85 205.19 C315.66 205.47 316.46 205.75 317.28 206.04 C318.05 206.3 318.81 206.57 319.6 206.85 C320.66 207.22 320.66 207.22 321.74 207.59 C323.42 208.26 323.42 208.26 324.42 209.26 C324.52 211.84 324.57 214.39 324.57 216.97 C324.58 217.78 324.58 218.59 324.59 219.42 C324.6 221.18 324.61 222.94 324.61 224.71 C324.63 227.5 324.65 230.29 324.67 233.08 C324.73 241.02 324.78 248.96 324.82 256.9 C324.84 261.75 324.87 266.6 324.92 271.45 C324.93 273.3 324.94 275.14 324.94 276.99 C324.95 279.58 324.97 282.18 325 284.77 C325 285.53 324.99 286.28 324.99 287.07 C325.07 292.16 326.03 295.73 328.42 300.26 C331.6 303.15 334.16 304.51 338.42 304.76 C342.67 304.51 345.23 303.15 348.42 300.26 C351.21 294.94 351.86 290.7 351.85 284.75 C351.86 283.93 351.87 283.11 351.88 282.27 C351.91 279.58 351.92 276.89 351.93 274.2 C351.94 272.33 351.96 270.45 351.98 268.58 C352.03 263.67 352.06 258.75 352.09 253.84 C352.12 248.82 352.16 243.8 352.21 238.77 C352.29 228.94 352.36 219.1 352.42 209.26 C353.84 208.61 355.26 207.97 356.68 207.34 C357.47 206.98 358.26 206.62 359.07 206.25 C361.11 205.39 363.12 204.66 365.23 204.01 C371.19 201.85 376.28 197.9 381.42 194.26 C382.58 193.45 382.58 193.45 383.78 192.63 C384.32 192.18 384.86 191.72 385.42 191.26 C385.42 190.6 385.42 189.94 385.42 189.26 C386.08 189.26 386.74 189.26 387.42 189.26 C389.12 187.36 390.68 185.47 392.23 183.44 C392.68 182.86 393.13 182.27 393.59 181.66 C397.4 176.53 400.21 171.27 402.42 165.26 C402.66 164.61 402.9 163.97 403.15 163.3 C405.24 157.46 406.33 151.72 407.1 145.57 C407.23 144.58 407.35 143.58 407.48 142.56 C410.4 117.4 408.75 96.25 393.93 75.02 C393.43 74.44 392.93 73.86 392.42 73.26 C391.76 73.26 391.1 73.26 390.42 73.26 C389.92 71.77 389.92 71.77 389.42 70.26 C388.76 70.26 388.1 70.26 387.42 70.26 C387.42 69.6 387.42 68.94 387.42 68.26 C386.76 68.26 386.1 68.26 385.42 68.26 C385.42 67.6 385.42 66.94 385.42 66.26 C371.06 55.77 356.12 50.87 338.42 51.01 C337.4 51 336.38 50.99 335.34 50.98 C318.94 51.03 304.61 56.62 291.42 66.26 Z M82.42 72.26 C77.11 78.91 77.88 86.11 77.99 94.28 C77.99 95.75 78 97.22 78 98.69 C78.01 101.77 78.03 104.84 78.06 107.92 C78.1 111.84 78.12 115.75 78.13 119.67 C78.14 123.44 78.16 127.2 78.18 130.97 C78.18 131.68 78.18 132.38 78.19 133.11 C78.3 152.83 81.75 172.63 96.42 187.26 C97.08 187.26 97.74 187.26 98.42 187.26 C98.75 188.25 99.08 189.24 99.42 190.26 C100.08 190.26 100.74 190.26 101.42 190.26 C101.42 190.92 101.42 191.58 101.42 192.26 C110.28 199.61 119.74 204.36 130.79 207.36 C133.42 208.26 133.42 208.26 134.42 210.26 C134.52 212.84 134.57 215.4 134.57 217.99 C134.58 218.79 134.58 219.59 134.59 220.41 C134.6 222.15 134.61 223.89 134.61 225.63 C134.63 228.38 134.65 231.13 134.67 233.89 C134.73 241.72 134.78 249.55 134.82 257.38 C134.84 262.17 134.87 266.95 134.92 271.74 C134.93 273.56 134.94 275.38 134.94 277.21 C134.95 279.76 134.97 282.32 135 284.88 C135 285.62 134.99 286.37 134.99 287.14 C135.07 292.3 136.05 295.76 138.42 300.26 C141.6 303.15 144.16 304.51 148.42 304.76 C152.67 304.51 155.23 303.15 158.42 300.26 C161.14 295.07 161.86 290.73 161.83 284.88 C161.84 284.07 161.85 283.26 161.86 282.43 C161.88 279.78 161.89 277.13 161.89 274.49 C161.91 272.64 161.92 270.8 161.94 268.95 C161.98 264.11 162.01 259.26 162.03 254.42 C162.06 246.65 162.12 238.88 162.19 231.11 C162.2 228.39 162.22 225.67 162.23 222.96 C162.24 221.3 162.25 219.65 162.26 217.99 C162.26 217.23 162.26 216.48 162.26 215.7 C162.3 210.48 162.3 210.48 163.42 208.26 C165.27 207.68 167.15 207.17 169.04 206.69 C178.49 203.94 187.93 198.7 195.42 192.26 C195.42 191.6 195.42 190.94 195.42 190.26 C196.41 189.93 197.4 189.6 198.42 189.26 C198.42 188.6 198.42 187.94 198.42 187.26 C199.08 187.26 199.74 187.26 200.42 187.26 C215.21 170.59 218.91 151.84 218.85 130.28 C218.85 128.82 218.86 127.36 218.87 125.9 C218.87 122.87 218.87 119.84 218.86 116.81 C218.85 112.94 218.87 109.08 218.9 105.21 C218.92 102.21 218.92 99.2 218.91 96.19 C218.91 94.77 218.92 93.34 218.93 91.92 C219.12 81.35 219.12 81.35 214.42 72.26 C210.85 69.61 208.18 69.04 203.85 69.32 C199.66 70.01 197.2 70.89 194.42 74.26 C191.07 81.71 191.03 89.26 191.13 97.29 C191.15 99.45 191.15 101.61 191.15 103.76 C191.13 109.88 191.15 116 191.21 122.12 C191.24 125.89 191.24 129.66 191.22 133.42 C191.21 134.84 191.22 136.26 191.25 137.67 C191.44 148.55 189.32 156.21 183.42 165.26 C182.09 166.6 180.76 167.94 179.42 169.26 C179.42 169.92 179.42 170.58 179.42 171.26 C177.77 171.92 176.12 172.58 174.42 173.26 C174.42 173.92 174.42 174.58 174.42 175.26 C173.36 175.66 173.36 175.66 172.29 176.07 C169.38 177.22 169.38 177.22 166.54 178.76 C160.64 181.59 155.05 182.62 148.54 182.57 C147.84 182.56 147.13 182.56 146.41 182.55 C137.31 182.34 131.27 179.46 123.68 174.66 C121.47 173.23 121.47 173.23 119.19 172.19 C116.83 170.95 116.51 169.65 115.42 167.26 C114.82 166.58 114.22 165.9 113.6 165.19 C106.69 155.91 105.7 147.2 105.81 135.88 C105.81 134.42 105.8 132.95 105.79 131.49 C105.77 127.67 105.77 123.85 105.78 120.03 C105.8 113.91 105.79 107.79 105.76 101.67 C105.75 99.56 105.76 97.44 105.78 95.32 C105.79 82.69 105.79 82.69 100.29 71.69 C94.18 68.64 88.1 68.02 82.42 72.26 Z M137.54 73.63 C134.99 77.32 135.29 82 135.27 86.33 C135.26 87.53 135.26 88.73 135.25 89.97 C135.25 91.26 135.25 92.55 135.25 93.88 C135.24 95.22 135.24 96.57 135.24 97.92 C135.23 100.73 135.23 103.55 135.23 106.37 C135.23 109.97 135.22 113.56 135.2 117.16 C135.19 119.94 135.19 122.72 135.19 125.5 C135.19 127.47 135.17 129.44 135.16 131.41 C135.17 132.61 135.17 133.81 135.17 135.06 C135.17 136.11 135.17 137.17 135.17 138.25 C135.5 142.22 136.22 145.87 138.86 148.94 C142.54 151.56 145.64 153.12 150.35 152.81 C154.36 151.73 157.71 149.37 160.42 146.26 C161.4 142.54 161.55 139.02 161.56 135.19 C161.57 133.98 161.57 132.78 161.58 131.54 C161.58 130.25 161.58 128.96 161.58 127.64 C161.59 126.29 161.59 124.94 161.59 123.6 C161.6 120.78 161.6 117.96 161.6 115.15 C161.6 111.55 161.61 107.95 161.63 104.35 C161.64 101.57 161.64 98.79 161.64 96.01 C161.65 94.05 161.66 92.08 161.67 90.11 C161.66 88.9 161.66 87.7 161.66 86.46 C161.66 85.4 161.66 84.35 161.66 83.26 C161.29 78.72 160.4 75.33 157.29 71.94 C150.1 67.72 144.04 68.87 137.54 73.63 Z " fill="#000000" transform="translate(396.58430194854736,44.74273109436035)"/>
<path d="M0 0 C1.43 -0.01 1.43 -0.01 2.89 -0.02 C4.47 -0.01 4.47 -0.01 6.08 -0 C7.2 -0.01 8.31 -0.01 9.46 -0.01 C13.22 -0.02 16.98 -0.01 20.74 -0.01 C23.42 -0.01 26.11 -0.01 28.79 -0.02 C35.35 -0.03 41.9 -0.02 48.45 -0.02 C53.77 -0.01 59.09 -0.01 64.42 -0.02 C65.55 -0.02 65.55 -0.02 66.71 -0.02 C68.25 -0.02 69.78 -0.02 71.32 -0.02 C85.74 -0.02 100.17 -0.02 114.59 -0.01 C126.98 0 139.36 0 151.74 -0.01 C166.11 -0.02 180.48 -0.02 194.85 -0.02 C196.38 -0.02 197.91 -0.02 199.45 -0.02 C200.58 -0.02 200.58 -0.02 201.73 -0.02 C207.05 -0.01 212.37 -0.02 217.68 -0.02 C224.16 -0.03 230.64 -0.03 237.12 -0.01 C240.43 -0.01 243.74 -0.01 247.04 -0.01 C250.63 -0.02 254.21 -0.01 257.79 -0 C258.84 -0.01 259.89 -0.01 260.98 -0.02 C262.41 -0.01 262.41 -0.01 263.87 0 C264.7 0 265.53 0 266.38 0 C268.5 0.25 268.5 0.25 271.5 2.25 C271.87 4.74 271.87 4.74 271.87 7.96 C271.88 9.18 271.89 10.4 271.9 11.66 C271.89 13.03 271.88 14.4 271.87 15.77 C271.88 17.21 271.88 18.65 271.89 20.1 C271.9 24.08 271.89 28.06 271.88 32.04 C271.87 36.33 271.88 40.62 271.88 44.91 C271.89 53.32 271.88 61.73 271.87 70.14 C271.86 79.92 271.86 89.7 271.86 99.48 C271.87 116.93 271.85 134.38 271.83 151.83 C271.82 168.78 271.81 185.73 271.81 202.67 C271.82 221.11 271.82 239.55 271.81 257.98 C271.81 259.95 271.81 261.91 271.81 263.88 C271.8 265.33 271.8 265.33 271.8 266.81 C271.8 273.63 271.8 280.46 271.8 287.28 C271.8 295.6 271.8 303.91 271.78 312.22 C271.78 316.47 271.77 320.71 271.78 324.96 C271.78 328.84 271.78 332.72 271.76 336.6 C271.76 338.01 271.76 339.42 271.77 340.83 C271.77 342.73 271.76 344.64 271.75 346.55 C271.75 347.61 271.75 348.67 271.75 349.76 C271.5 352.25 271.5 352.25 269.5 354.25 C267.49 354.5 267.49 354.5 264.96 354.5 C264 354.5 263.03 354.51 262.04 354.51 C260.98 354.5 259.91 354.5 258.82 354.49 C257.69 354.49 256.57 354.5 255.41 354.5 C251.62 354.5 247.82 354.49 244.03 354.48 C241.32 354.48 238.61 354.48 235.9 354.48 C230.05 354.48 224.21 354.47 218.36 354.46 C209.9 354.45 201.45 354.44 193 354.44 C179.28 354.43 165.57 354.42 151.86 354.4 C138.53 354.38 125.21 354.37 111.88 354.36 C111.06 354.36 110.24 354.36 109.39 354.36 C105.28 354.36 101.16 354.35 97.04 354.35 C62.86 354.33 28.68 354.3 -5.5 354.25 C-6.84 351.58 -6.63 349.54 -6.63 346.55 C-6.63 345.32 -6.64 344.1 -6.64 342.84 C-6.64 341.47 -6.64 340.11 -6.63 338.74 C-6.64 337.29 -6.64 335.85 -6.64 334.41 C-6.65 330.42 -6.65 326.44 -6.65 322.46 C-6.65 318.17 -6.65 313.88 -6.66 309.59 C-6.67 301.18 -6.67 292.78 -6.67 284.37 C-6.67 277.54 -6.67 270.71 -6.67 263.88 C-6.68 244.53 -6.69 225.18 -6.69 205.84 C-6.69 204.79 -6.69 203.75 -6.69 202.67 C-6.69 201.63 -6.69 200.58 -6.69 199.51 C-6.69 182.56 -6.7 165.61 -6.71 148.67 C-6.72 131.28 -6.73 113.9 -6.73 96.52 C-6.73 86.75 -6.73 76.99 -6.74 67.22 C-6.75 58.91 -6.75 50.59 -6.75 42.28 C-6.74 38.03 -6.74 33.79 -6.75 29.54 C-6.76 25.66 -6.76 21.78 -6.75 17.9 C-6.75 16.49 -6.75 15.08 -6.76 13.67 C-6.76 11.77 -6.76 9.86 -6.75 7.96 C-6.75 6.9 -6.75 5.84 -6.75 4.74 C-6.29 0.18 -4.03 0 0 0 Z M45.69 187.94 C42.7 193.75 42.19 199.94 42.2 206.37 C42.19 207.12 42.19 207.86 42.18 208.63 C42.18 210.19 42.18 211.75 42.18 213.31 C42.19 215.68 42.16 218.04 42.14 220.41 C41.85 233.55 41.85 233.55 47.77 244.79 C51.11 246.58 53.35 246.75 57.12 246.69 C58.25 246.69 59.38 246.69 60.54 246.69 C63.49 246.49 63.49 246.49 65.4 244.85 C66.69 243.3 66.69 243.3 66.5 241.25 C67.16 241.25 67.82 241.25 68.5 241.25 C69.32 238.38 69.63 235.82 69.64 232.84 C69.65 231.97 69.66 231.11 69.66 230.22 C69.66 229.29 69.67 228.37 69.67 227.41 C69.67 226.45 69.67 225.49 69.68 224.51 C69.68 222.48 69.68 220.45 69.68 218.43 C69.69 215.33 69.7 212.23 69.72 209.14 C69.73 207.17 69.73 205.2 69.73 203.22 C69.74 202.3 69.74 201.38 69.75 200.42 C69.73 195.13 69.51 190.96 66.25 186.56 C59.72 181.66 51.61 182.43 45.69 187.94 Z " fill="#000000" transform="translate(260.50125789642334,880.7483177185059)"/>
<path d="M0 0 C1.22 -0 2.44 -0.01 3.7 -0.01 C5.06 -0.01 6.42 -0.01 7.78 -0.01 C9.22 -0.01 10.66 -0.01 12.1 -0.01 C16.07 -0.02 20.04 -0.02 24.01 -0.02 C28.29 -0.02 32.56 -0.02 36.84 -0.03 C45.22 -0.04 53.6 -0.04 61.98 -0.04 C68.79 -0.04 75.6 -0.04 82.4 -0.04 C101.69 -0.05 120.97 -0.06 140.26 -0.06 C141.3 -0.06 142.34 -0.06 143.41 -0.06 C144.45 -0.06 145.49 -0.06 146.57 -0.06 C163.46 -0.06 180.35 -0.07 197.24 -0.08 C214.57 -0.09 231.9 -0.1 249.23 -0.1 C258.96 -0.1 268.7 -0.1 278.43 -0.11 C286.72 -0.12 295 -0.12 303.29 -0.12 C307.52 -0.11 311.75 -0.11 315.98 -0.12 C319.85 -0.13 323.72 -0.13 327.59 -0.12 C328.99 -0.12 330.4 -0.12 331.8 -0.13 C333.7 -0.13 335.6 -0.13 337.5 -0.12 C338.56 -0.12 339.61 -0.12 340.7 -0.12 C343.19 0.13 343.19 0.13 345.19 2.13 C345.43 4.87 345.43 4.87 345.43 8.43 C345.44 9.08 345.44 9.74 345.44 10.41 C345.45 12.61 345.44 14.81 345.43 17.01 C345.43 18.58 345.43 20.16 345.43 21.73 C345.44 26.01 345.43 30.29 345.42 34.57 C345.41 39.05 345.41 43.52 345.42 47.99 C345.41 55.5 345.41 63.02 345.39 70.53 C345.38 79.22 345.37 87.92 345.37 96.61 C345.37 104.96 345.37 113.32 345.36 121.67 C345.36 125.23 345.35 128.79 345.35 132.35 C345.35 136.54 345.35 140.73 345.34 144.91 C345.33 146.46 345.33 148 345.33 149.54 C345.33 151.63 345.33 153.73 345.32 155.83 C345.32 157 345.32 158.18 345.31 159.39 C345.19 162.13 345.19 162.13 344.19 164.13 C299.36 164.15 254.53 164.17 209.71 164.18 C204.42 164.18 199.14 164.18 193.85 164.18 C192.8 164.18 191.75 164.18 190.66 164.18 C173.6 164.19 156.53 164.2 139.47 164.21 C121.97 164.22 104.48 164.22 86.98 164.22 C76.17 164.22 65.37 164.23 54.56 164.24 C47.17 164.24 39.77 164.24 32.37 164.24 C28.09 164.24 23.82 164.24 19.54 164.25 C15.63 164.25 11.73 164.25 7.82 164.25 C6.4 164.25 4.98 164.25 3.56 164.25 C1.64 164.26 -0.28 164.25 -2.19 164.25 C-3.26 164.25 -4.33 164.25 -5.43 164.25 C-7.81 164.13 -7.81 164.13 -8.81 163.13 C-8.91 161.04 -8.94 158.95 -8.93 156.86 C-8.94 156.2 -8.94 155.53 -8.94 154.85 C-8.94 152.62 -8.93 150.38 -8.93 148.14 C-8.93 146.55 -8.93 144.95 -8.93 143.36 C-8.93 139.01 -8.92 134.66 -8.92 130.31 C-8.91 125.78 -8.91 121.24 -8.91 116.7 C-8.9 108.1 -8.9 99.5 -8.89 90.9 C-8.87 81.12 -8.87 71.33 -8.86 61.54 C-8.85 41.41 -8.84 21.27 -8.81 1.13 C-5.62 0.06 -3.36 0 0 0 Z " fill="#000000" transform="translate(680.814019203186,880.8713655471802)"/>
<path d="M0 0 C1.92 -0.01 1.92 -0.01 3.87 -0.01 C5.29 -0.01 6.71 -0.01 8.14 -0.01 C9.63 -0.01 11.12 -0.02 12.61 -0.02 C16.67 -0.03 20.73 -0.03 24.79 -0.03 C28.17 -0.03 31.56 -0.04 34.94 -0.04 C42.93 -0.05 50.91 -0.05 58.89 -0.05 C67.13 -0.05 75.38 -0.06 83.62 -0.08 C90.69 -0.09 97.76 -0.1 104.84 -0.1 C109.06 -0.09 113.29 -0.1 117.51 -0.11 C121.49 -0.12 125.46 -0.12 129.43 -0.11 C130.89 -0.11 132.35 -0.11 133.81 -0.12 C135.8 -0.13 137.79 -0.12 139.78 -0.11 C140.89 -0.11 142.01 -0.11 143.15 -0.12 C145.89 0.13 145.89 0.13 148.89 2.13 C149.26 4.24 149.26 4.24 149.26 6.9 C149.27 7.9 149.28 8.91 149.28 9.95 C149.28 11.06 149.27 12.16 149.26 13.31 C149.26 14.47 149.27 15.64 149.27 16.83 C149.28 20.04 149.27 23.24 149.26 26.44 C149.25 29.81 149.25 33.17 149.25 36.54 C149.25 42.2 149.24 47.87 149.23 53.53 C149.2 60.04 149.2 66.55 149.21 73.06 C149.21 79.35 149.21 85.64 149.2 91.93 C149.19 94.59 149.19 97.25 149.19 99.91 C149.2 136.52 149.2 136.52 142.89 150.13 C142.28 151.78 141.68 153.42 141.08 155.07 C137.84 163.16 132.88 170.8 126.89 177.13 C126.23 177.13 125.57 177.13 124.89 177.13 C124.56 178.12 124.23 179.11 123.89 180.13 C123.23 180.13 122.57 180.13 121.89 180.13 C121.89 180.79 121.89 181.45 121.89 182.13 C107.41 194.57 89.31 202.58 70.14 202.45 C68.83 202.44 68.83 202.44 67.49 202.43 C54.2 202.19 42.66 198.14 30.89 192.13 C30.89 191.47 30.89 190.81 30.89 190.13 C30.32 190.03 29.75 189.93 29.16 189.83 C17.18 186.16 6.58 171.01 0.93 160.63 C-6.38 146.62 -9.43 133.84 -9.34 118.06 C-9.34 116.8 -9.34 115.53 -9.34 114.22 C-9.34 110.77 -9.33 107.32 -9.31 103.87 C-9.3 100.25 -9.3 96.64 -9.3 93.02 C-9.29 86.18 -9.28 79.35 -9.26 72.51 C-9.23 64.73 -9.22 56.94 -9.21 49.15 C-9.19 33.15 -9.16 17.14 -9.11 1.13 C-5.84 0.04 -3.44 0.01 0 0 Z " fill="#000000" transform="translate(111.111083984375,500.8662872314453)"/>
<path d="M0 0 C1.27 -0.01 2.54 -0.01 3.85 -0.02 C5.26 -0.01 6.67 -0.01 8.07 -0 C9.56 -0.01 11.04 -0.01 12.52 -0.02 C16.55 -0.02 20.58 -0.02 24.6 -0.01 C28.82 -0.01 33.03 -0.01 37.24 -0.02 C44.31 -0.02 51.39 -0.02 58.46 -0.01 C66.64 0 74.82 0 83 -0.01 C90.02 -0.02 97.04 -0.02 104.06 -0.02 C108.26 -0.01 112.45 -0.01 116.65 -0.02 C120.59 -0.02 124.53 -0.02 128.47 -0.01 C129.92 -0.01 131.37 -0.01 132.82 -0.01 C134.79 -0.02 136.77 -0.01 138.74 0 C139.85 0 140.95 0 142.09 0 C144.81 0.25 144.81 0.25 147.81 2.25 C148.18 4.36 148.18 4.36 148.18 7.02 C148.19 8.02 148.19 9.03 148.2 10.07 C148.19 11.18 148.19 12.28 148.18 13.43 C148.18 14.59 148.19 15.76 148.19 16.96 C148.2 20.16 148.19 23.36 148.18 26.57 C148.17 29.93 148.17 33.29 148.17 36.66 C148.17 42.32 148.16 47.99 148.14 53.65 C148.12 60.16 148.12 66.67 148.12 73.18 C148.13 79.47 148.12 85.76 148.11 92.05 C148.11 94.71 148.11 97.37 148.11 100.03 C148.11 136.12 148.11 136.12 142.81 149.25 C142.41 150.41 142.41 150.41 142.01 151.59 C137.96 162.87 130.51 173.07 121.81 181.25 C120.82 181.58 119.83 181.91 118.81 182.25 C118.81 182.91 118.81 183.57 118.81 184.25 C102.45 198.34 82.27 203.85 60.98 202.45 C47.52 201.21 33.78 194.98 22.81 187.25 C22.81 186.59 22.81 185.93 22.81 185.25 C22.22 184.98 21.63 184.7 21.03 184.42 C13.83 180.65 9.33 174.55 4.81 168 C4.31 167.29 3.82 166.58 3.31 165.85 C-0.19 160.64 -0.19 160.64 -0.19 157.25 C-0.85 157.25 -1.51 157.25 -2.19 157.25 C-2.61 155.97 -2.61 155.97 -3.03 154.66 C-3.4 153.56 -3.76 152.45 -4.13 151.32 C-4.49 150.21 -4.85 149.11 -5.22 147.98 C-5.93 145.37 -5.93 145.37 -7.19 144.25 C-10.84 129.46 -10.6 114.53 -10.5 99.39 C-10.48 95.96 -10.48 92.54 -10.47 89.11 C-10.46 82.65 -10.44 76.19 -10.41 69.73 C-10.38 62.36 -10.36 55 -10.34 47.63 C-10.31 32.5 -10.26 17.38 -10.19 2.25 C-6.73 0.14 -4.02 0 0 0 Z " fill="#000000" transform="translate(479.19337463378906,500.74603271484375)"/>
<path d="M0 0 C1.27 -0.01 2.54 -0.01 3.85 -0.02 C5.25 -0.01 6.66 -0.01 8.07 -0 C9.55 -0.01 11.04 -0.01 12.52 -0.02 C16.54 -0.02 20.57 -0.02 24.6 -0.01 C28.81 -0.01 33.02 -0.01 37.23 -0.02 C44.31 -0.02 51.38 -0.02 58.45 -0.01 C66.63 0 74.81 0 83 -0.01 C90.02 -0.02 97.04 -0.02 104.06 -0.02 C108.25 -0.01 112.44 -0.01 116.64 -0.02 C120.58 -0.02 124.53 -0.02 128.47 -0.01 C129.92 -0.01 131.37 -0.01 132.81 -0.01 C134.79 -0.02 136.76 -0.01 138.74 0 C140.4 0 140.4 0 142.09 0 C144.9 0.25 146.55 0.8 148.93 2.25 C149 18.13 149.06 34 149.09 49.88 C149.1 57.25 149.13 64.62 149.16 71.99 C149.19 78.43 149.21 84.86 149.22 91.29 C149.22 94.69 149.23 98.09 149.25 101.49 C149.41 129.05 146.73 152.88 128.93 175.25 C128.27 175.25 127.61 175.25 126.93 175.25 C126.68 175.85 126.42 176.44 126.15 177.05 C124.84 179.43 123.51 180.76 121.43 182.5 C120.83 183.02 120.22 183.55 119.59 184.08 C117.93 185.25 117.93 185.25 115.93 185.25 C115.93 185.91 115.93 186.57 115.93 187.25 C102.75 197.17 86.66 202.68 70.18 202.57 C68.87 202.56 68.87 202.56 67.54 202.55 C51.21 202.26 37.24 196.49 23.93 187.25 C23.17 186.73 22.41 186.21 21.62 185.67 C21.06 185.2 20.51 184.73 19.93 184.25 C19.93 183.59 19.93 182.93 19.93 182.25 C19.36 182.02 18.79 181.78 18.2 181.53 C6.29 174.82 -2.04 157.86 -6 145.28 C-8.88 134.55 -9.22 123.81 -9.23 112.75 C-9.23 110.95 -9.23 110.95 -9.24 109.12 C-9.25 105.87 -9.26 102.62 -9.27 99.37 C-9.27 97.33 -9.27 95.3 -9.28 93.27 C-9.29 86.9 -9.3 80.53 -9.31 74.17 C-9.31 66.83 -9.33 59.49 -9.36 52.15 C-9.38 46.46 -9.39 40.77 -9.39 35.09 C-9.39 31.69 -9.4 28.3 -9.41 24.91 C-9.43 21.14 -9.43 17.37 -9.42 13.6 C-9.43 12.47 -9.44 11.35 -9.45 10.19 C-9.45 9.16 -9.44 8.14 -9.43 7.09 C-9.44 6.2 -9.44 5.31 -9.44 4.39 C-9.32 3.69 -9.19 2.98 -9.07 2.25 C-5.56 -0.09 -4.15 0 0 0 Z " fill="#000000" transform="translate(662.0663909912109,500.74603271484375)"/>
<path d="M0 0 C1.28 -0 2.56 -0.01 3.87 -0.01 C5.29 -0.01 6.71 -0 8.14 0 C9.63 0 11.12 0 12.61 -0 C16.67 -0.01 20.73 0 24.79 0.01 C29.03 0.02 33.27 0.02 37.52 0.02 C44.64 0.02 51.77 0.03 58.89 0.04 C67.13 0.06 75.38 0.06 83.62 0.06 C91.54 0.06 99.47 0.07 107.39 0.07 C110.76 0.08 114.14 0.08 117.51 0.08 C121.49 0.08 125.46 0.09 129.43 0.1 C130.89 0.1 132.35 0.1 133.81 0.1 C135.8 0.1 137.79 0.11 139.78 0.11 C140.89 0.12 142.01 0.12 143.15 0.12 C145.89 0.25 145.89 0.25 148.89 1.25 C149.01 17.7 149.09 34.16 149.15 50.62 C149.17 58.26 149.21 65.9 149.27 73.55 C149.32 80.22 149.35 86.89 149.36 93.57 C149.37 97.09 149.38 100.61 149.42 104.14 C149.71 133.4 145.81 158.86 124.65 180.54 C121.32 183.58 118.31 186 113.89 187.25 C113.89 187.91 113.89 188.57 113.89 189.25 C112.24 189.58 110.59 189.91 108.89 190.25 C108.89 190.91 108.89 191.57 108.89 192.25 C89.43 201.94 67.25 204.3 46.21 198.18 C32.06 193.34 19.63 185.79 9.89 174.25 C9.89 173.59 9.89 172.93 9.89 172.25 C9.23 172.25 8.57 172.25 7.89 172.25 C5.59 169.69 4.89 168.77 4.89 165.25 C4.23 165.25 3.57 165.25 2.89 165.25 C-8.94 142.44 -9.43 120.45 -9.41 95.19 C-9.41 93.18 -9.42 91.18 -9.42 89.18 C-9.43 82.91 -9.43 76.64 -9.43 70.38 C-9.42 63.92 -9.43 57.46 -9.45 51.01 C-9.47 45.44 -9.48 39.87 -9.47 34.3 C-9.47 30.98 -9.48 27.66 -9.49 24.35 C-9.5 20.67 -9.5 16.99 -9.48 13.31 C-9.49 11.67 -9.49 11.67 -9.51 9.99 C-9.5 8.99 -9.49 7.99 -9.49 6.97 C-9.49 6.1 -9.49 5.23 -9.49 4.34 C-9.36 3.65 -9.24 2.96 -9.11 2.25 C-5.59 -0.1 -4.17 -0 0 0 Z " fill="#000000" transform="translate(1029.111083984375,500.7527618408203)"/>
<path d="M0 0 C1.12 0 2.23 0 3.38 0 C4.66 -0 5.93 -0.01 7.25 -0.01 C8.67 -0.01 10.1 0 11.52 0.01 C13.01 0 14.51 0 16 0 C20.06 -0 24.12 0 28.19 0.01 C32.43 0.02 36.68 0.02 40.92 0.02 C48.05 0.02 55.18 0.03 62.32 0.04 C70.57 0.06 78.82 0.06 87.07 0.06 C94.99 0.06 102.92 0.07 110.85 0.08 C114.23 0.08 117.61 0.08 120.98 0.08 C124.96 0.08 128.94 0.09 132.91 0.1 C134.37 0.1 135.84 0.1 137.3 0.1 C139.29 0.1 141.28 0.11 143.27 0.12 C144.39 0.12 145.5 0.12 146.65 0.12 C149.39 0.25 149.39 0.25 152.39 1.25 C152.46 18.25 152.51 35.26 152.54 52.26 C152.56 60.16 152.58 68.05 152.61 75.95 C152.64 82.83 152.66 89.72 152.67 96.61 C152.67 100.25 152.68 103.89 152.71 107.53 C152.73 111.61 152.73 115.69 152.73 119.77 C152.74 120.96 152.75 122.15 152.76 123.38 C152.69 143.9 143.79 162.97 129.95 177.87 C119.84 187.25 119.84 187.25 117.39 187.25 C117.39 187.91 117.39 188.57 117.39 189.25 C101.41 198.11 101.41 198.11 93.39 200.25 C92.73 200.43 92.06 200.6 91.38 200.79 C85.57 202.21 80.05 202.6 74.08 202.56 C73.15 202.56 72.23 202.55 71.28 202.55 C64.29 202.43 58 201.64 51.39 199.25 C50.4 198.9 49.41 198.55 48.39 198.18 C41.13 195.38 34.79 191.63 28.39 187.25 C27.65 186.76 26.91 186.27 26.15 185.76 C24.52 184.65 22.94 183.46 21.39 182.25 C21.39 181.59 21.39 180.93 21.39 180.25 C20.4 179.92 19.41 179.59 18.39 179.25 C18.39 178.59 18.39 177.93 18.39 177.25 C17.73 177.25 17.07 177.25 16.39 177.25 C11.5 171.97 7.99 165.43 4.39 159.25 C3.89 158.48 3.39 157.71 2.88 156.92 C1.04 153.62 -0.12 150.22 -1.24 146.62 C-1.45 145.98 -1.67 145.33 -1.89 144.66 C-4.96 134.92 -4.76 124.67 -4.76 114.56 C-4.76 113.34 -4.76 112.12 -4.77 110.87 C-4.77 107.56 -4.78 104.26 -4.78 100.96 C-4.78 98.89 -4.78 96.83 -4.78 94.76 C-4.79 87.55 -4.8 80.34 -4.8 73.12 C-4.8 66.4 -4.81 59.68 -4.82 52.96 C-4.84 47.18 -4.84 41.4 -4.84 35.62 C-4.84 32.17 -4.84 28.72 -4.85 25.27 C-4.87 21.44 -4.86 17.61 -4.85 13.78 C-4.86 12.63 -4.87 11.49 -4.87 10.31 C-4.87 9.27 -4.86 8.23 -4.86 7.16 C-4.86 6.26 -4.86 5.35 -4.86 4.42 C-4.47 1.03 -3.31 0.32 0 0 Z " fill="#000000" transform="translate(290.6115560531616,500.7511110305786)"/>
<path d="M0 0 C1.28 -0 2.56 -0.01 3.88 -0.01 C5.3 -0.01 6.72 -0.01 8.14 -0.01 C9.64 -0.01 11.13 -0.02 12.63 -0.02 C16.69 -0.03 20.75 -0.03 24.81 -0.03 C28.2 -0.03 31.59 -0.04 34.98 -0.04 C42.96 -0.05 50.95 -0.05 58.94 -0.05 C67.19 -0.05 75.44 -0.06 83.69 -0.08 C90.77 -0.09 97.85 -0.1 104.92 -0.1 C109.15 -0.09 113.38 -0.1 117.61 -0.11 C121.59 -0.12 125.56 -0.12 129.54 -0.11 C131 -0.11 132.46 -0.11 133.92 -0.12 C135.91 -0.13 137.9 -0.12 139.89 -0.11 C141.01 -0.11 142.12 -0.11 143.27 -0.12 C145.88 0.13 145.88 0.13 147.88 2.13 C148.13 4.28 148.13 4.28 148.13 7 C148.13 8.03 148.14 9.06 148.14 10.12 C148.14 11.25 148.13 12.39 148.13 13.55 C148.13 14.74 148.13 15.93 148.13 17.16 C148.13 20.43 148.13 23.71 148.12 26.98 C148.11 30.41 148.11 33.85 148.11 37.28 C148.11 43.05 148.1 48.83 148.09 54.6 C148.07 61.26 148.07 67.91 148.07 74.56 C148.07 81.66 148.06 88.76 148.05 95.86 C148.05 97.9 148.05 99.93 148.05 101.96 C148.05 105.78 148.04 109.6 148.03 113.42 C148.03 114.53 148.03 115.65 148.03 116.79 C147.99 127.64 147.57 137.87 143.88 148.13 C143.59 148.97 143.3 149.8 143.01 150.66 C140.75 156.78 137.65 161.84 133.88 167.13 C133.16 168.23 132.44 169.32 131.69 170.45 C128.37 175.37 128.37 175.37 126.88 177.13 C126.22 177.13 125.56 177.13 124.88 177.13 C124.88 177.79 124.88 178.45 124.88 179.13 C109.97 193.55 90.36 202.58 69.57 202.45 C68.65 202.44 67.72 202.44 66.77 202.43 C51.77 202.17 38.68 196.73 25.88 189.13 C25.88 188.47 25.88 187.81 25.88 187.13 C25.2 186.93 24.52 186.72 23.82 186.51 C15.97 182.83 11.01 175.89 5.88 169.13 C5.02 168.09 5.02 168.09 4.15 167.02 C2.88 165.13 2.88 165.13 2.88 162.13 C2.22 162.13 1.56 162.13 0.88 162.13 C-5.82 147.96 -9.44 135.74 -9.34 119.99 C-9.35 118.71 -9.35 117.42 -9.35 116.09 C-9.35 112.58 -9.33 109.07 -9.32 105.57 C-9.31 101.89 -9.31 98.22 -9.3 94.54 C-9.3 87.59 -9.28 80.64 -9.26 73.7 C-9.24 65.78 -9.23 57.86 -9.22 49.95 C-9.2 33.68 -9.16 17.41 -9.12 1.13 C-5.84 0.04 -3.45 0.01 0 0 Z " fill="#000000" transform="translate(846.1178131103516,500.8662872314453)"/>
<path d="M0 0 C1.03 -0.02 2.07 -0.04 3.13 -0.06 C10.02 -0.06 15.04 1.09 21.06 4.44 C21.91 4.88 22.76 5.33 23.63 5.79 C34 12.4 41.37 23.07 44.38 35 C45.41 40.51 45.85 46.08 44.06 51.44 C43.91 53.37 43.79 55.31 43.69 57.25 C42.86 68.52 40.79 78.61 35.06 88.44 C34.4 88.44 33.74 88.44 33.06 88.44 C32.75 89.06 32.44 89.68 32.12 90.31 C31.44 91.69 30.75 93.06 30.06 94.44 C29.4 94.44 28.74 94.44 28.06 94.44 C28.06 95.1 28.06 95.76 28.06 96.44 C18.96 104.27 7.89 107.56 -4 106.93 C-12.95 105.82 -21.1 102.32 -27.94 96.44 C-27.94 95.78 -27.94 95.12 -27.94 94.44 C-29.42 93.94 -29.42 93.94 -30.94 93.44 C-30.94 92.78 -30.94 92.12 -30.94 91.44 C-31.6 91.44 -32.26 91.44 -32.94 91.44 C-41.42 81.17 -42.95 67 -43.69 54.22 C-43.84 51.35 -43.84 51.35 -44.94 48.44 C-46.13 34.9 -41.43 24.18 -33.12 13.62 C-23.82 3.48 -13.39 -0.09 0 0 Z " fill="#000000" transform="translate(734.9375,121.5625)"/>
</svg>
