<?xml version="1.0" encoding="UTF-8"?>
<!-- Generator: visioncortex VTracer 0.6.3 -->
<svg version="1.1" xmlns="http://www.w3.org/2000/svg" width="1280" height="1280">
<path d="M0 0 C2.3 0.03 4.59 0.06 6.89 0.09 C10.48 0.14 14.07 0.19 17.65 0.25 C19.61 0.28 21.57 0.3 23.53 0.33 C25.28 0.36 25.28 0.36 27.07 0.39 C28.59 0.41 28.59 0.41 30.15 0.44 C32.68 0.59 32.68 0.59 35.68 1.59 C36.98 1.55 38.28 1.51 39.62 1.47 C45.99 1.37 52.95 2.73 58.68 5.59 C59.01 4.93 59.34 4.27 59.68 3.59 C59.68 4.25 59.68 4.91 59.68 5.59 C60.43 5.63 61.18 5.67 61.96 5.71 C68.95 6.16 75.07 7.31 81.68 9.59 C82.38 9.82 83.09 10.05 83.81 10.28 C93.23 13.33 102.53 16.76 111.81 20.22 C112.84 20.6 113.87 20.99 114.94 21.38 C117.56 22.54 119.45 23.83 121.68 25.59 C122.98 26.32 124.29 27.01 125.62 27.66 C126.27 27.98 126.92 28.3 127.58 28.63 C129.71 29.64 129.71 29.64 132.08 30.49 C135.08 31.76 137.64 33.38 140.37 35.16 C143.94 37.52 143.94 37.52 147.68 39.59 C147.68 40.25 147.68 40.91 147.68 41.59 C149.66 41.92 151.64 42.25 153.68 42.59 C154.01 43.58 154.34 44.57 154.68 45.59 C156.64 46.91 156.64 46.91 158.99 48.03 C162.48 49.86 165.04 51.63 167.68 54.59 C168.34 54.92 169 55.25 169.68 55.59 C169.68 56.25 169.68 56.91 169.68 57.59 C170.67 57.92 171.66 58.25 172.68 58.59 C172.68 59.25 172.68 59.91 172.68 60.59 C175.01 61.8 177.18 62.76 179.68 63.59 C181.12 65.02 181.12 65.02 182.68 66.91 C184.93 69.57 187.21 72.18 189.58 74.72 C190.09 75.26 190.59 75.8 191.1 76.35 C192.11 77.42 193.11 78.49 194.13 79.56 C197.68 83.37 197.68 83.37 197.68 85.59 C198.34 85.59 199 85.59 199.68 85.59 C199.68 86.25 199.68 86.91 199.68 87.59 C200.34 87.59 201 87.59 201.68 87.59 C202.82 89.42 203.95 91.25 205.05 93.11 C207.58 96.96 210.59 100.39 213.6 103.88 C215.74 106.67 217.15 109.44 218.68 112.59 C219.54 113.75 220.44 114.87 221.37 115.97 C225.76 121.66 228.62 128.19 231.73 134.64 C233.07 137.39 234.51 140.08 235.93 142.78 C238.52 147.94 240.22 153.15 241.81 158.69 C242.52 161.04 243.29 163.18 244.31 165.41 C246.41 170.28 247.48 175.09 248.18 180.34 C248.49 183.47 248.49 183.47 249.68 185.59 C251.12 188.48 251.24 191.41 251.68 194.59 C252.01 195.52 252.34 196.44 252.68 197.4 C253.75 200.8 254.05 203.79 254.24 207.34 C254.36 211.63 254.36 211.63 255.68 215.59 C255.78 218.5 255.81 221.39 255.8 224.3 C255.8 225.21 255.8 226.12 255.8 227.06 C255.81 230.14 255.8 233.22 255.8 236.29 C255.8 238.49 255.8 240.69 255.8 242.88 C255.8 248.86 255.79 254.85 255.78 260.83 C255.78 267.07 255.78 273.32 255.78 279.56 C255.77 290.05 255.77 300.53 255.76 311.02 C255.75 321.82 255.74 332.63 255.74 343.43 C255.74 344.09 255.74 344.76 255.74 345.44 C255.73 348.78 255.73 352.12 255.73 355.46 C255.72 383.17 255.7 410.88 255.68 438.59 C253.27 439.77 250.85 440.93 248.43 442.09 C247.41 442.59 247.41 442.59 246.37 443.11 C242.83 444.79 240.66 445.59 236.68 445.59 C236.68 446.25 236.68 446.91 236.68 447.59 C234.41 448.5 232.14 449.41 229.87 450.32 C227.58 451.23 225.31 452.16 223.03 453.09 C216.83 455.62 210.68 458.01 204.22 459.81 C201.07 460.78 198.05 462 194.99 463.22 C190.48 465 186.5 465.96 181.68 466.59 C179.12 467.53 176.62 468.57 174.11 469.66 C171.63 470.61 169.3 471.13 166.68 471.59 C162.38 472.5 158.15 473.45 153.93 474.72 C150.97 475.52 148.71 475.59 145.68 475.59 C145.02 476.25 144.36 476.91 143.68 477.59 C141.55 478.19 141.55 478.19 138.99 478.66 C138.1 478.82 137.21 478.99 136.28 479.16 C134.15 479.52 132.01 479.81 129.87 480.09 C126.75 480.45 126.75 480.45 124.31 481.59 C121.58 482.63 119.4 482.92 116.49 483.09 C111.87 483.44 107.49 484.16 102.97 485.19 C100.68 485.59 100.68 485.59 98.14 485.53 C95.39 485.6 94.11 486.36 91.68 487.59 C88.96 487.97 88.96 487.97 86.06 488.16 C82.22 488.34 82.22 488.34 78.68 489.59 C75.45 489.83 72.22 489.99 68.97 490.11 C65.43 490.29 62.2 490.65 58.78 491.59 C54.14 492.85 49.58 493 44.81 493.16 C43.12 493.22 41.44 493.28 39.75 493.35 C39.02 493.37 38.28 493.4 37.53 493.42 C35.59 493.49 35.59 493.49 33.68 494.59 C32.3 494.71 30.91 494.76 29.52 494.78 C28.67 494.8 27.81 494.82 26.92 494.83 C26 494.85 25.07 494.86 24.12 494.88 C23.17 494.89 22.22 494.91 21.24 494.93 C17.17 495.01 13.09 495.08 9.02 495.15 C6.05 495.2 3.08 495.25 0.12 495.31 C-0.81 495.33 -1.74 495.34 -2.7 495.35 C-3.55 495.37 -4.41 495.39 -5.29 495.4 C-6.42 495.42 -6.42 495.42 -7.58 495.44 C-9.35 495.41 -9.35 495.41 -10.32 496.59 C-18.05 497.76 -25.74 497.76 -33.55 497.76 C-34.91 497.77 -36.27 497.77 -37.64 497.77 C-40.48 497.78 -43.32 497.78 -46.16 497.78 C-49.78 497.78 -53.41 497.79 -57.04 497.81 C-59.85 497.82 -62.66 497.82 -65.46 497.82 C-67.45 497.82 -69.43 497.84 -71.42 497.85 C-72.63 497.84 -73.84 497.84 -75.09 497.84 C-76.15 497.84 -77.21 497.84 -78.3 497.84 C-81.58 497.57 -84.23 496.68 -87.32 495.59 C-89.44 495.29 -89.44 495.29 -91.46 495.29 C-92.21 495.27 -92.96 495.26 -93.74 495.24 C-94.53 495.23 -95.33 495.22 -96.15 495.21 C-96.98 495.2 -97.81 495.18 -98.66 495.16 C-101.3 495.11 -103.93 495.07 -106.57 495.03 C-109.22 494.99 -111.87 494.94 -114.52 494.89 C-116.16 494.86 -117.81 494.83 -119.45 494.81 C-125.09 494.71 -125.09 494.71 -127.32 493.59 C-128.86 493.47 -130.42 493.39 -131.97 493.35 C-132.89 493.31 -133.81 493.28 -134.76 493.25 C-136.71 493.19 -138.65 493.13 -140.6 493.08 C-141.52 493.04 -142.45 493.01 -143.4 492.97 C-144.25 492.95 -145.1 492.92 -145.97 492.9 C-148.49 492.57 -150.07 491.74 -152.32 490.59 C-154.4 490.25 -154.4 490.25 -156.58 490.21 C-157.37 490.18 -158.16 490.15 -158.97 490.11 C-159.79 490.08 -160.6 490.06 -161.44 490.03 C-170.08 489.71 -170.08 489.71 -172.32 488.59 C-174.76 488.41 -177.19 488.27 -179.63 488.16 C-184.41 487.94 -187.93 487.39 -192.32 485.59 C-194.54 485.34 -196.77 485.15 -199.01 485.03 C-205.12 484.69 -205.12 484.69 -207.32 483.59 C-210.07 483.32 -212.83 483.15 -215.59 482.97 C-218.32 482.59 -218.32 482.59 -220.3 481.59 C-222.99 480.26 -225.27 480.28 -228.26 480.16 C-234.11 479.79 -239.53 478.77 -245.22 477.36 C-248.95 476.44 -252.71 475.72 -256.49 475.02 C-258.32 474.59 -258.32 474.59 -259.32 473.59 C-261.8 473.31 -264.28 473.15 -266.78 472.97 C-269.38 472.58 -270.99 471.77 -273.32 470.59 C-275.67 470.21 -275.67 470.21 -278.13 470.09 C-282.43 469.73 -286.18 468.86 -290.32 467.59 C-292.48 467.08 -294.65 466.58 -296.82 466.09 C-301.37 465.06 -305.83 463.88 -310.32 462.59 C-312.44 462.13 -314.57 461.68 -316.69 461.22 C-321.54 460.13 -325.69 458.65 -330.14 456.5 C-333.29 455.19 -336.48 454.68 -339.83 454.09 C-343.1 453.44 -346.17 452.4 -349.31 451.28 C-351.3 450.6 -353.28 450.09 -355.32 449.59 C-358.99 448.61 -362.65 447.6 -366.32 446.59 C-367.53 446.26 -368.75 445.93 -370.01 445.59 C-373.24 444.62 -376.37 443.49 -379.52 442.28 C-381.11 441.67 -382.71 441.13 -384.32 440.59 C-386.45 435.95 -386.6 431.49 -386.56 426.47 C-386.56 425.27 -386.56 425.27 -386.56 424.04 C-386.57 421.36 -386.56 418.69 -386.55 416.01 C-386.54 414.09 -386.54 412.17 -386.55 410.25 C-386.55 405.03 -386.53 399.82 -386.52 394.61 C-386.51 389.16 -386.51 383.71 -386.5 378.26 C-386.5 367.95 -386.48 357.63 -386.46 347.31 C-386.44 335.57 -386.43 323.82 -386.42 312.07 C-386.4 287.91 -386.36 263.75 -386.32 239.59 C-385.99 239.59 -385.66 239.59 -385.32 239.59 C-385.3 238.71 -385.28 237.82 -385.26 236.9 C-385.18 233.6 -385.09 230.3 -385 227 C-384.96 225.57 -384.93 224.14 -384.9 222.71 C-384.85 220.66 -384.79 218.6 -384.73 216.55 C-384.7 215.31 -384.67 214.08 -384.64 212.8 C-384.34 209.77 -383.79 208.19 -382.32 205.59 C-382.05 203.39 -381.87 201.18 -381.76 198.97 C-381.42 192.79 -381.42 192.79 -380.32 190.59 C-380.17 189.44 -380.03 188.28 -379.88 187.09 C-379.32 183.59 -379.32 183.59 -377.32 181.59 C-376.89 179.46 -376.89 179.46 -376.76 177.09 C-376.41 172.78 -376.41 172.78 -375.32 170.59 C-374.96 168.93 -374.63 167.27 -374.32 165.59 C-373.66 165.59 -373 165.59 -372.32 165.59 C-371.99 163.28 -371.66 160.97 -371.32 158.59 C-370.99 158.59 -370.66 158.59 -370.32 158.59 C-370.03 157.56 -369.74 156.53 -369.44 155.47 C-368.49 152.14 -367.44 148.87 -366.32 145.59 C-365.99 145.59 -365.66 145.59 -365.32 145.59 C-364.99 143.94 -364.66 142.29 -364.32 140.59 C-363.66 140.59 -363 140.59 -362.32 140.59 C-362.21 139.69 -362.11 138.78 -362.01 137.84 C-361.3 134.51 -360.44 133.16 -358.32 130.59 C-357.99 129.6 -357.66 128.61 -357.32 127.59 C-356.05 125.22 -354.68 122.92 -353.32 120.59 C-352.66 120.59 -352 120.59 -351.32 120.59 C-351.13 119.45 -351.13 119.45 -350.94 118.28 C-350.32 115.59 -350.32 115.59 -348.32 112.59 C-347.64 111.27 -346.97 109.94 -346.32 108.59 C-345.66 108.59 -345 108.59 -344.32 108.59 C-344.32 107.6 -344.32 106.61 -344.32 105.59 C-343.33 105.59 -342.34 105.59 -341.32 105.59 C-341.21 104.83 -341.11 104.07 -341.01 103.28 C-340.24 100.27 -339.49 99.68 -337.32 97.59 C-336.86 96.65 -336.41 95.7 -335.94 94.72 C-334.16 91.29 -332.14 89.2 -329.32 86.59 C-328.76 86 -328.2 85.4 -327.63 84.78 C-326.32 83.59 -326.32 83.59 -324.32 83.59 C-324.32 82.6 -324.32 81.61 -324.32 80.59 C-323.33 80.59 -322.34 80.59 -321.32 80.59 C-321.22 79.51 -321.22 79.51 -321.12 78.41 C-320.06 74.7 -318.23 73.11 -315.44 70.47 C-314.56 69.62 -313.67 68.77 -312.76 67.9 C-311.96 67.14 -311.15 66.38 -310.32 65.59 C-309.78 65.02 -309.24 64.44 -308.69 63.85 C-306.59 61.92 -303.99 61.49 -301.32 60.59 C-300.63 59.27 -299.96 57.94 -299.32 56.59 C-295.77 52.94 -291.73 50.11 -287.32 47.59 C-286.33 46.6 -286.33 46.6 -285.32 45.59 C-284 45.59 -282.68 45.59 -281.32 45.59 C-281.65 44.6 -281.98 43.61 -282.32 42.59 C-281 42.59 -279.68 42.59 -278.32 42.59 C-277.99 41.6 -277.66 40.61 -277.32 39.59 C-276.33 39.26 -275.34 38.93 -274.32 38.59 C-272.98 37.6 -271.65 36.6 -270.32 35.59 C-268.98 34.93 -267.65 34.26 -266.32 33.59 C-265.71 33.13 -265.1 32.67 -264.47 32.2 C-259.26 28.32 -253.9 25.1 -247.32 24.59 C-247.32 23.93 -247.32 23.27 -247.32 22.59 C-245.67 22.26 -244.02 21.93 -242.32 21.59 C-242.32 21.26 -242.32 20.93 -242.32 20.59 C-239.35 20.1 -239.35 20.1 -236.32 19.59 C-236.32 18.93 -236.32 18.27 -236.32 17.59 C-235.55 17.39 -234.78 17.18 -233.98 16.97 C-232.98 16.7 -231.98 16.43 -230.94 16.16 C-229.95 15.89 -228.95 15.62 -227.92 15.35 C-225.36 14.69 -225.36 14.69 -223.32 13.59 C-223.32 13.26 -223.32 12.93 -223.32 12.59 C-219.85 12.1 -219.85 12.1 -216.32 11.59 C-216.32 11.26 -216.32 10.93 -216.32 10.59 C-211.86 10.1 -211.86 10.1 -207.32 9.59 C-207.32 8.93 -207.32 8.27 -207.32 7.59 C-206.36 7.5 -206.36 7.5 -205.38 7.41 C-204.56 7.33 -203.73 7.24 -202.88 7.16 C-202.06 7.08 -201.23 6.99 -200.38 6.91 C-198.33 6.8 -198.33 6.8 -197.32 5.59 C-195.14 5.36 -192.95 5.18 -190.76 5.03 C-189.56 4.95 -188.36 4.86 -187.13 4.78 C-186.2 4.72 -185.27 4.66 -184.32 4.59 C-184.32 3.93 -184.32 3.27 -184.32 2.59 C-174.42 2.1 -174.42 2.1 -164.32 1.59 C-164.32 1.26 -164.32 0.93 -164.32 0.59 C-109.54 -0.36 -54.79 -0.75 0 0 Z " fill="#000100" transform="translate(713.3180847167969,681.4061660766602)"/>
<path d="M0 0 C4.85 0 9.7 0 14.55 -0 C22.67 -0 30.79 -0 38.9 0 C48.28 0.01 57.65 0.01 67.02 0 C75.11 -0 83.2 -0 91.29 -0 C96.1 0 100.91 0 105.73 -0 C110.24 -0 114.75 -0 119.26 0 C120.91 0 122.56 0 124.22 0 C126.47 -0 128.73 0 130.99 0.01 C132.25 0.01 133.51 0.01 134.81 0.01 C144.17 0.34 144.17 0.34 147.23 2.38 C150.57 7.57 149.69 15.22 149.88 21.19 C150.06 25.66 150.56 28.99 152.36 33.13 C152.48 35.74 152.48 35.74 152.36 38.32 C152.19 40.86 152.19 40.86 152.36 43.13 C153.02 43.79 153.68 44.45 154.36 45.13 C154.89 47.2 154.89 47.2 155.3 49.7 C156.06 53.84 157.11 57.68 158.51 61.65 C159.53 64.64 160.41 67.67 161.3 70.7 C162.87 75.87 164.85 80.37 167.36 85.13 C167.52 85.8 167.69 86.46 167.86 87.14 C168.53 89.81 169.94 91.95 171.33 94.29 C172.36 96.13 172.36 96.13 173.67 99.38 C175.44 103.74 178.12 107.51 180.74 111.39 C182.36 114.13 182.36 114.13 183.45 117.41 C184.05 120.27 184.05 120.27 186.36 121.13 C187.3 122.63 188.19 124.15 189.05 125.7 C191.99 130.73 195.43 134.86 199.36 139.13 C203.36 143.85 203.36 143.85 203.36 146.13 C204.35 146.46 205.34 146.79 206.36 147.13 C206.36 147.79 206.36 148.45 206.36 149.13 C207.02 149.13 207.68 149.13 208.36 149.13 C208.36 149.79 208.36 150.45 208.36 151.13 C209.02 151.13 209.68 151.13 210.36 151.13 C212.56 153.33 214.42 155.71 216.36 158.13 C217.02 158.79 217.68 159.45 218.36 160.13 C218.36 161.45 218.36 162.77 218.36 164.13 C216.3 164.95 214.24 165.76 212.17 166.57 C211.02 167.02 209.87 167.48 208.69 167.94 C205.88 168.95 203.27 169.55 200.36 170.13 C198.26 171.04 198.26 171.04 196.3 172.13 C194.37 173.17 192.71 174.06 190.57 174.54 C187.18 175.45 184.16 177.11 181.05 178.7 C180.34 179.05 179.64 179.41 178.91 179.77 C160.89 188.93 143.25 198.34 127.67 211.38 C125.36 213.13 125.36 213.13 123.36 213.13 C123.36 213.79 123.36 214.45 123.36 215.13 C121.88 216.17 121.88 216.17 119.84 217.3 C115.15 220.12 111.51 223.56 107.68 227.45 C106.99 228.14 106.3 228.83 105.59 229.54 C104.14 230.99 102.69 232.45 101.25 233.91 C99.04 236.14 96.83 238.35 94.61 240.56 C93.19 241.98 91.78 243.4 90.37 244.82 C89.71 245.48 89.05 246.14 88.37 246.82 C85.17 250.07 82.54 253.08 80.36 257.13 C79.09 258.78 77.8 260.41 76.48 262.01 C70.19 269.6 70.19 269.6 65.36 278.13 C64.7 278.13 64.04 278.13 63.36 278.13 C62.99 278.91 62.99 278.91 62.61 279.7 C59.63 285.5 56.24 291.08 52.82 296.63 C52.07 297.87 52.07 297.87 51.3 299.13 C50.54 300.37 50.54 300.37 49.76 301.63 C48.39 304.08 47.37 306.52 46.36 309.13 C45.36 310.8 44.36 312.47 43.36 314.13 C42.66 315.79 41.99 317.45 41.36 319.13 C40.69 320.8 40.03 322.47 39.36 324.13 C38.7 324.13 38.04 324.13 37.36 324.13 C37.45 325.4 37.45 325.4 37.55 326.7 C37.32 330.87 36.16 333.39 34.36 337.13 C33.7 337.13 33.04 337.13 32.36 337.13 C32.26 338.12 32.15 339.11 32.05 340.13 C31.65 342.93 30.98 345.33 29.92 347.95 C28.38 351.82 27.58 355.65 26.82 359.74 C26.03 363.83 24.96 367.76 23.3 371.57 C22.43 373.95 22.08 375.88 21.8 378.38 C21.36 382.13 21.36 382.13 20.36 383.13 C20.15 385.11 19.99 387.09 19.86 389.07 C19.47 394.91 19.47 394.91 18.36 397.13 C18.15 399.37 17.99 401.61 17.86 403.86 C17.82 404.52 17.78 405.18 17.74 405.86 C17.56 408.69 17.4 411.52 17.23 414.35 C17.11 416.42 16.99 418.48 16.86 420.54 C16.79 421.78 16.71 423.02 16.64 424.3 C16.36 427.13 16.36 427.13 15.36 428.13 C15.24 430.22 15.18 432.31 15.15 434.4 C15.14 435.05 15.13 435.71 15.12 436.38 C15.09 438.55 15.07 440.72 15.04 442.89 C15.02 444.39 15 445.89 14.98 447.39 C14.92 451.35 14.87 455.3 14.83 459.26 C14.78 463.3 14.72 467.33 14.67 471.37 C14.56 479.29 14.46 487.21 14.36 495.13 C13.22 494.89 13.22 494.89 12.06 494.65 C8.87 494.04 5.81 493.94 2.56 493.85 C1.27 493.82 -0.01 493.78 -1.34 493.74 C-3.38 493.69 -5.41 493.63 -7.45 493.58 C-9.43 493.53 -11.4 493.47 -13.38 493.42 C-14.55 493.39 -15.73 493.35 -16.94 493.32 C-19.64 493.13 -19.64 493.13 -20.64 492.13 C-22.29 492 -23.94 491.93 -25.59 491.89 C-26.61 491.86 -27.62 491.82 -28.66 491.79 C-30.8 491.73 -32.94 491.67 -35.07 491.62 C-36.09 491.58 -37.11 491.55 -38.16 491.51 C-39.09 491.49 -40.02 491.46 -40.98 491.44 C-43.84 491.11 -45.99 490.23 -48.64 489.13 C-51.41 488.87 -54.12 488.67 -56.89 488.57 C-64.52 488.26 -64.52 488.26 -65.64 487.13 C-68.64 486.85 -71.65 486.69 -74.66 486.51 C-77.64 486.13 -77.64 486.13 -79.55 485.13 C-82.67 483.64 -85.87 483.71 -89.27 483.57 C-96.4 483.25 -96.4 483.25 -98.64 482.13 C-101.95 481.86 -105.26 481.69 -108.57 481.51 C-111.64 481.13 -111.64 481.13 -114.64 479.13 C-115.78 479.13 -116.91 479.13 -118.08 479.13 C-121.69 479.13 -122.58 478.67 -125.64 477.13 C-127.83 476.76 -127.83 476.76 -130.08 476.63 C-132.73 476.39 -134.6 476.15 -137.08 475.13 C-140.52 473.79 -143.86 473.65 -147.53 473.38 C-149.64 473.13 -149.64 473.13 -150.64 472.13 C-154.13 471.47 -157.62 470.89 -161.12 470.33 C-165.47 469.6 -169.46 468.58 -173.64 467.13 C-176.31 466.66 -178.94 466.41 -181.64 466.13 C-181.64 465.47 -181.64 464.81 -181.64 464.13 C-183.5 464.2 -183.5 464.2 -185.39 464.26 C-188.79 464.26 -190.66 463.81 -193.64 462.13 C-196.31 461.42 -198.96 460.76 -201.64 460.13 C-209.5 458.27 -209.5 458.27 -210.64 457.13 C-212.01 456.79 -213.38 456.48 -214.77 456.2 C-218.78 455.34 -222.69 454.26 -226.64 453.13 C-228.97 452.64 -231.29 452.15 -233.63 451.7 C-235.64 451.13 -235.64 451.13 -238.64 449.13 C-240.94 448.53 -240.94 448.53 -243.45 448.13 C-247.33 447.42 -250.92 446.46 -254.64 445.13 C-258.37 444.03 -262.1 443.01 -265.87 442.07 C-267.11 441.76 -268.36 441.45 -269.64 441.13 C-269.66 412.19 -269.68 383.25 -269.69 354.3 C-269.69 350.89 -269.69 347.47 -269.7 344.05 C-269.7 343.37 -269.7 342.69 -269.7 341.99 C-269.7 330.98 -269.71 319.96 -269.72 308.95 C-269.73 297.64 -269.73 286.34 -269.74 275.04 C-269.74 268.69 -269.74 262.34 -269.75 255.99 C-269.75 250.02 -269.76 244.05 -269.75 238.07 C-269.75 235.88 -269.76 233.68 -269.76 231.49 C-269.77 228.5 -269.76 225.5 -269.76 222.51 C-269.76 221.64 -269.77 220.77 -269.77 219.88 C-269.76 215.51 -269.48 211.44 -268.64 207.13 C-268.58 205.51 -268.55 203.88 -268.58 202.26 C-268.59 201.48 -268.6 200.7 -268.61 199.89 C-268.62 199.31 -268.63 198.73 -268.64 198.13 C-267.98 197.8 -267.32 197.47 -266.64 197.13 C-266.25 194.35 -266.25 194.35 -266.14 191.13 C-265.98 187.82 -265.98 187.82 -265.64 185.13 C-264.98 184.8 -264.32 184.47 -263.64 184.13 C-263.18 182.24 -263.18 182.24 -263.02 180.07 C-262.89 178.77 -262.77 177.47 -262.64 176.13 C-261.98 176.13 -261.32 176.13 -260.64 176.13 C-260.64 173.16 -260.64 170.19 -260.64 167.13 C-259.98 167.13 -259.32 167.13 -258.64 167.13 C-258.52 166.12 -258.39 165.11 -258.27 164.07 C-257.66 160.28 -256.88 156.77 -255.64 153.13 C-254.98 152.8 -254.32 152.47 -253.64 152.13 C-252.99 149.61 -252.99 149.61 -252.64 147.13 C-251.98 147.13 -251.32 147.13 -250.64 147.13 C-250.64 145.15 -250.64 143.17 -250.64 141.13 C-249.98 140.8 -249.32 140.47 -248.64 140.13 C-247.81 138.05 -247.81 138.05 -247.14 135.63 C-246.42 133.17 -246.42 133.17 -245.64 131.13 C-244.98 130.8 -244.32 130.47 -243.64 130.13 C-243.17 128.98 -242.69 127.82 -242.2 126.63 C-241.69 125.48 -241.17 124.32 -240.64 123.13 C-239.16 122.64 -239.16 122.64 -237.64 122.13 C-237.7 121.37 -237.76 120.61 -237.83 119.82 C-237.6 116.6 -236.98 116.2 -234.64 114.13 C-233.96 112.81 -233.29 111.48 -232.64 110.13 C-231.64 108.8 -230.64 107.47 -229.64 106.13 C-228.95 104.82 -228.27 103.49 -227.64 102.13 C-226.98 102.13 -226.32 102.13 -225.64 102.13 C-225.15 100.65 -225.15 100.65 -224.64 99.13 C-223.21 95.73 -221.28 93.69 -218.64 91.13 C-217.65 89.65 -217.65 89.65 -216.64 88.13 C-216.17 87.68 -215.69 87.23 -215.2 86.76 C-213.51 85.13 -213.51 85.13 -212.27 82.76 C-210.39 79.73 -208.19 77.63 -205.64 75.13 C-204.66 74.15 -203.68 73.15 -202.7 72.16 C-201.68 71.13 -200.66 70.1 -199.64 69.07 C-199.13 68.56 -198.63 68.04 -198.1 67.51 C-195.1 64.48 -192 61.77 -188.64 59.13 C-187.4 57.87 -187.4 57.87 -186.14 56.57 C-183.76 54.25 -181.52 52.77 -178.64 51.13 C-177.65 50.14 -177.65 50.14 -176.64 49.13 C-174.52 48.51 -174.52 48.51 -172.64 48.13 C-172.97 47.47 -173.3 46.81 -173.64 46.13 C-172.32 46.13 -171 46.13 -169.64 46.13 C-169.64 45.47 -169.64 44.81 -169.64 44.13 C-169.06 43.87 -168.49 43.6 -167.89 43.32 C-165.59 42.2 -165.59 42.2 -163.64 40.51 C-161.64 39.13 -161.64 39.13 -157.64 39.13 C-157.64 38.14 -157.64 37.15 -157.64 36.13 C-156.65 36.13 -155.66 36.13 -154.64 36.13 C-154.64 35.47 -154.64 34.81 -154.64 34.13 C-154.06 33.87 -153.49 33.6 -152.89 33.32 C-150.61 32.22 -150.61 32.22 -148.77 30.57 C-146.1 28.77 -143.8 28.49 -140.64 28.13 C-140.64 27.47 -140.64 26.81 -140.64 26.13 C-139.9 26.01 -139.16 25.89 -138.39 25.76 C-135.81 25.17 -133.89 24.5 -131.64 23.13 C-131.31 22.47 -130.98 21.81 -130.64 21.13 C-128.66 21.13 -126.68 21.13 -124.64 21.13 C-124.64 20.47 -124.64 19.81 -124.64 19.13 C-123.84 18.82 -123.03 18.52 -122.2 18.2 C-119.75 17.37 -119.75 17.37 -118.64 16.13 C-116.31 16.09 -113.97 16.09 -111.64 16.13 C-111.64 15.47 -111.64 14.81 -111.64 14.13 C-109.66 13.8 -107.68 13.47 -105.64 13.13 C-105.64 12.47 -105.64 11.81 -105.64 11.13 C-103 10.8 -100.36 10.47 -97.64 10.13 C-97.64 9.8 -97.64 9.47 -97.64 9.13 C-96.68 9.06 -96.68 9.06 -95.71 8.99 C-94.47 8.87 -94.47 8.87 -93.2 8.76 C-91.97 8.65 -91.97 8.65 -90.71 8.55 C-90.03 8.41 -89.34 8.28 -88.64 8.13 C-88.31 7.47 -87.98 6.81 -87.64 6.13 C-85.36 5.72 -85.36 5.72 -82.58 5.51 C-81.66 5.43 -80.74 5.36 -79.79 5.28 C-78.73 5.21 -78.73 5.21 -77.64 5.13 C-77.64 4.8 -77.64 4.47 -77.64 4.13 C-76.58 4.09 -75.52 4.04 -74.43 3.99 C-73.04 3.91 -71.65 3.84 -70.27 3.76 C-69.22 3.71 -69.22 3.71 -68.15 3.67 C-63.94 3.54 -63.94 3.54 -60.64 1.13 C-57.58 0.81 -54.62 0.62 -51.55 0.52 C-50.55 0.48 -49.54 0.44 -48.51 0.4 C-32.35 -0.12 -16.17 -0.01 0 0 Z M-236.64 117.13 C-235.64 119.13 -235.64 119.13 -235.64 119.13 Z " fill="#000100" transform="translate(269.6410598754883,487.865674495697)"/>
<path d="M0 0 C0.85 0.03 1.71 0.06 2.59 0.09 C7.06 0.32 10.76 1.02 14.99 2.63 C17.06 2.96 17.06 2.96 19.05 3.07 C25.17 3.65 31.04 5.17 36.99 6.63 C38.08 6.89 39.16 7.15 40.28 7.42 C47.93 9.29 55.11 11.66 62.4 14.62 C65.49 15.83 68.62 16.85 71.79 17.82 C74.65 18.87 77.28 20.24 79.99 21.63 C81.31 22.29 82.62 22.95 83.94 23.6 C92.31 27.79 92.31 27.79 94.27 28.77 C95.61 29.44 96.97 30.1 98.32 30.75 C99.99 31.63 99.99 31.63 102.55 33.69 C104.91 35.79 104.91 35.79 107.99 36.63 C107.99 37.29 107.99 37.95 107.99 38.63 C109.31 38.63 110.63 38.63 111.99 38.63 C113.37 39.92 114.7 41.26 115.99 42.63 C119.02 44.74 122.12 46.71 125.24 48.69 C127.99 50.63 127.99 50.63 129.99 53.63 C131.63 54.68 133.3 55.68 134.99 56.63 C135.98 57.29 136.97 57.95 137.99 58.63 C137.99 59.29 137.99 59.95 137.99 60.63 C138.98 60.96 139.97 61.29 140.99 61.63 C140.99 62.29 140.99 62.95 140.99 63.63 C141.65 63.63 142.31 63.63 142.99 63.63 C142.99 64.29 142.99 64.95 142.99 65.63 C143.55 65.87 144.12 66.1 144.69 66.35 C147.51 67.92 149.47 69.85 151.74 72.13 C152.54 72.92 153.34 73.72 154.16 74.54 C155.99 76.63 155.99 76.63 155.99 78.63 C156.65 78.63 157.31 78.63 157.99 78.63 C157.99 79.29 157.99 79.95 157.99 80.63 C158.98 80.96 159.97 81.29 160.99 81.63 C160.99 82.29 160.99 82.95 160.99 83.63 C161.65 83.63 162.31 83.63 162.99 83.63 C165.76 86.75 167.85 90.07 169.99 93.63 C170.86 94.71 170.86 94.71 171.74 95.82 C186.99 114.88 186.99 114.88 186.99 121.63 C187.98 121.96 188.97 122.29 189.99 122.63 C191.19 124.42 191.19 124.42 192.33 126.75 C192.97 128.03 192.97 128.03 193.61 129.34 C194.27 130.69 194.27 130.69 194.93 132.07 C195.36 132.93 195.79 133.8 196.23 134.69 C200.22 142.81 203.53 150.93 205.99 159.63 C206.99 161.97 207.99 164.3 208.99 166.63 C211.61 173.27 212.96 180.08 214.25 187.08 C214.91 190.59 214.91 190.59 216.05 193.74 C217.27 197.49 217.43 201.03 217.65 204.95 C217.85 207.61 217.85 207.61 219 209.73 C220.38 213.78 220.26 217.52 220.23 221.77 C220.23 223.16 220.23 223.16 220.24 224.57 C220.24 227.66 220.23 230.76 220.22 233.85 C220.22 236.07 220.22 238.29 220.22 240.5 C220.22 246.53 220.21 252.55 220.19 258.57 C220.18 264.86 220.18 271.16 220.18 277.45 C220.17 288.01 220.16 298.58 220.14 309.14 C220.12 320.02 220.11 330.9 220.1 341.77 C220.1 342.45 220.1 343.12 220.1 343.81 C220.1 347.17 220.09 350.54 220.09 353.9 C220.07 381.81 220.04 409.72 219.99 437.63 C217.27 438.92 214.56 440.2 211.84 441.49 C211.07 441.85 210.31 442.22 209.52 442.59 C204.78 444.83 200.01 446.89 195.1 448.77 C193.04 449.61 191.14 450.58 189.18 451.63 C184.67 453.97 179.89 455.26 175.04 456.69 C172.65 457.43 170.45 458.22 168.18 459.26 C164.5 460.84 160.88 461.73 156.99 462.63 C151.93 463.94 147.22 465.7 142.42 467.73 C139.94 468.65 137.59 469.17 134.99 469.63 C133.49 469.94 131.99 470.25 130.49 470.57 C129.76 470.72 129.03 470.87 128.27 471.03 C125.95 471.58 125.95 471.58 123.68 472.6 C119.14 474.34 114.35 474.97 109.59 475.85 C106.5 476.52 103.9 477.46 100.99 478.63 C98.66 478.63 96.32 478.63 93.99 478.63 C92.66 479.29 91.32 479.96 89.99 480.63 C87.88 480.97 87.88 480.97 85.68 481.13 C81.59 481.5 77.93 482.49 73.99 483.63 C72.32 483.63 70.66 483.63 68.99 483.63 C68.43 483.95 67.87 484.27 67.3 484.6 C64.13 486.02 61.26 486.02 57.8 486.19 C53.58 486.03 53.58 486.03 49.99 487.63 C46.68 487.87 43.38 488.03 40.07 488.15 C35.91 488.35 32.81 489.08 28.99 490.63 C25.74 490.96 22.52 491.14 19.26 491.28 C15.5 491.42 15.5 491.42 11.99 492.63 C9.57 492.76 7.18 492.84 4.75 492.88 C3.28 492.91 1.8 492.94 0.33 492.98 C-1.99 493.02 -4.32 493.07 -6.64 493.11 C-8.89 493.15 -11.13 493.2 -13.37 493.25 C-14.06 493.26 -14.75 493.27 -15.46 493.28 C-19.45 493.38 -22.37 494.08 -26.01 495.63 C-28.41 495.86 -28.41 495.86 -30.87 495.83 C-31.76 495.82 -32.64 495.81 -33.56 495.81 C-34.47 495.79 -35.38 495.77 -36.32 495.76 C-37.72 495.74 -37.72 495.74 -39.14 495.73 C-41.43 495.7 -43.72 495.67 -46.01 495.63 C-48.57 491.78 -48.3 487.75 -48.3 483.3 C-48.3 482.46 -48.31 481.63 -48.32 480.76 C-48.33 478.94 -48.34 477.13 -48.34 475.31 C-48.35 472.43 -48.37 469.55 -48.4 466.67 C-48.44 460.55 -48.48 454.44 -48.51 448.32 C-48.54 441.24 -48.59 434.16 -48.64 427.08 C-48.66 424.25 -48.67 421.42 -48.68 418.59 C-48.69 416.84 -48.71 415.09 -48.72 413.35 C-48.72 412.57 -48.72 411.78 -48.72 410.98 C-48.77 406.2 -49.55 402.22 -51.01 397.63 C-51.19 395.66 -51.32 393.67 -51.38 391.69 C-51.96 382.69 -54.19 373.94 -57.11 365.41 C-57.88 363.02 -58.28 361.06 -58.45 358.57 C-59.01 354.61 -59.97 352.94 -62.01 349.63 C-62.23 348.02 -62.23 348.02 -62.45 346.38 C-63.04 342.45 -64.22 339.65 -65.9 336.09 C-67.09 333.45 -68.05 330.79 -69.01 328.07 C-70.43 324.07 -72.05 320.34 -74.01 316.59 C-75.84 313.01 -77.4 309.31 -79.01 305.63 C-79.76 303.94 -80.51 302.25 -81.26 300.57 C-81.84 299.26 -82.43 297.94 -83.01 296.63 C-83.67 296.63 -84.33 296.63 -85.01 296.63 C-85.46 295.45 -85.92 294.28 -86.38 293.07 C-88.51 288.26 -91.24 283.95 -94.13 279.57 C-94.58 278.89 -95.02 278.21 -95.48 277.51 C-96.6 275.84 -97.8 274.23 -99.01 272.63 C-99.67 272.63 -100.33 272.63 -101.01 272.63 C-101.01 271.64 -101.01 270.65 -101.01 269.63 C-101.67 269.3 -102.33 268.97 -103.01 268.63 C-104.08 267.07 -104.08 267.07 -105.13 265.19 C-105.49 264.58 -105.84 263.96 -106.2 263.32 C-107.01 261.63 -107.01 261.63 -107.01 259.63 C-107.63 259.59 -108.25 259.55 -108.88 259.51 C-109.94 259.07 -109.94 259.07 -111.01 258.63 C-111.71 256.64 -112.38 254.64 -113.01 252.63 C-114 252.3 -114.99 251.97 -116.01 251.63 C-117.22 250.14 -117.22 250.14 -118.38 248.32 C-120.55 245.1 -122.93 243 -126.01 240.63 C-126.01 239.97 -126.01 239.31 -126.01 238.63 C-126.65 238.36 -127.29 238.09 -127.95 237.82 C-130.01 236.63 -130.01 236.63 -131.01 233.63 C-131.91 233.2 -131.91 233.2 -132.82 232.76 C-135.01 231.63 -135.01 231.63 -136.82 229.32 C-138.77 226.93 -140.26 225.64 -142.76 223.94 C-143.83 223.18 -144.9 222.42 -146.01 221.63 C-146.01 220.97 -146.01 220.31 -146.01 219.63 C-146.67 219.63 -147.33 219.63 -148.01 219.63 C-148.01 218.97 -148.01 218.31 -148.01 217.63 C-148.57 217.38 -149.12 217.14 -149.7 216.88 C-152.42 215.41 -154.59 213.57 -157.01 211.63 C-159.29 210.09 -161.58 208.58 -163.88 207.07 C-166.01 205.63 -166.01 205.63 -168.51 203.57 C-171.5 201.25 -174.66 199.6 -178.02 197.88 C-180.01 196.63 -180.01 196.63 -182.01 193.63 C-184.2 192.41 -186.36 191.31 -188.63 190.26 C-192.77 188.26 -196.83 186.24 -200.7 183.76 C-203.83 181.55 -203.83 181.55 -207.01 180.63 C-207.01 179.97 -207.01 179.31 -207.01 178.63 C-207.73 178.5 -208.46 178.38 -209.21 178.25 C-211.92 177.65 -214.26 176.82 -216.82 175.76 C-221.19 173.96 -225.58 172.27 -230.01 170.63 C-230.01 169.97 -230.01 169.31 -230.01 168.63 C-230.94 168.67 -231.86 168.71 -232.82 168.76 C-236.01 168.63 -236.01 168.63 -239.01 166.63 C-240.99 165.92 -243 165.26 -245.01 164.63 C-247.01 163.96 -249.01 163.3 -251.01 162.63 C-249.58 157.99 -246.92 155.12 -243.51 151.82 C-243.01 151.32 -242.51 150.81 -242 150.3 C-238.28 146.63 -238.28 146.63 -236.01 146.63 C-235.68 145.64 -235.35 144.65 -235.01 143.63 C-233.62 139.96 -231.25 137.74 -228.45 135.1 C-226.78 133.49 -226.78 133.49 -225.01 130.63 C-224.01 129.3 -223.01 127.96 -222.01 126.63 C-220.07 123.87 -220.07 123.87 -219.07 121.69 C-217.92 119.47 -216.51 117.63 -215.01 115.63 C-214.31 114.31 -213.64 112.98 -213.01 111.63 C-212.35 111.63 -211.69 111.63 -211.01 111.63 C-210.86 111.01 -210.72 110.39 -210.57 109.76 C-210.01 107.63 -210.01 107.63 -209.01 105.63 C-208.27 103.56 -207.54 101.49 -206.82 99.41 C-206.01 97.63 -206.01 97.63 -204.01 96.63 C-203.17 94.55 -203.17 94.55 -202.51 92.13 C-201.79 89.66 -201.79 89.66 -201.01 87.63 C-200.35 87.3 -199.69 86.97 -199.01 86.63 C-198.35 84.1 -198.35 84.1 -198.01 81.63 C-197.35 81.63 -196.69 81.63 -196.01 81.63 C-196.05 80.68 -196.09 79.73 -196.13 78.76 C-196.01 75.63 -196.01 75.63 -194.01 73.63 C-193.26 70.67 -193.26 70.67 -193.01 67.63 C-192.35 67.3 -191.69 66.97 -191.01 66.63 C-191.05 65.68 -191.09 64.73 -191.13 63.76 C-191.01 60.63 -191.01 60.63 -189.01 58.63 C-188.59 56.46 -188.59 56.46 -188.45 54.07 C-188.11 49.73 -188.11 49.73 -187.01 48.63 C-186.78 46.67 -186.56 44.7 -186.39 42.74 C-186.01 40.63 -186.01 40.63 -185.01 38.71 C-183.77 36.13 -183.63 33.98 -183.45 31.13 C-183.1 25.97 -183.1 25.97 -182.51 23.76 C-181.96 21.43 -181.8 19.26 -181.69 16.86 C-181.65 15.98 -181.61 15.09 -181.57 14.17 C-181.53 13.25 -181.49 12.33 -181.45 11.38 C-181.38 9.98 -181.38 9.98 -181.32 8.54 C-181.21 6.24 -181.11 3.94 -181.01 1.63 C-177.64 0.51 -175.08 0.49 -171.53 0.47 C-170.54 0.46 -170.54 0.46 -169.53 0.45 C-167.31 0.43 -165.09 0.42 -162.87 0.41 C-161.28 0.4 -159.69 0.39 -158.1 0.37 C-153.77 0.34 -149.44 0.32 -145.11 0.29 C-141.48 0.27 -137.86 0.25 -134.23 0.23 C-125.65 0.17 -117.07 0.12 -108.5 0.07 C-99.69 0.02 -90.89 -0.03 -82.09 -0.09 C-74.51 -0.14 -66.93 -0.19 -59.35 -0.24 C-54.83 -0.26 -50.32 -0.29 -45.8 -0.32 C-13.49 -0.54 -13.49 -0.54 0 0 Z M-187.01 49.63 C-186.01 51.63 -186.01 51.63 -186.01 51.63 Z M-207.01 101.63 C-206.01 103.63 -206.01 103.63 -206.01 103.63 Z " fill="#000100" transform="translate(1060.008544921875,488.36962890625)"/>
<path d="M0 0 C0.88 -0.01 1.76 -0.01 2.67 -0.02 C4.1 -0.01 4.1 -0.01 5.57 -0.01 C7.04 -0.01 7.04 -0.01 8.54 -0.01 C10.62 -0.01 12.7 -0.01 14.78 -0 C17.96 0.01 21.14 -0 24.31 -0.01 C26.33 -0.01 28.36 -0.01 30.38 -0.01 C31.33 -0.01 32.27 -0.01 33.25 -0.02 C38.2 0.02 42.04 0.51 46.74 2.26 C47.4 1.93 48.06 1.6 48.74 1.26 C48.74 1.92 48.74 2.58 48.74 3.26 C49.85 3.22 50.96 3.18 52.11 3.13 C59.26 3.13 66.04 4.88 72.74 7.26 C73.77 7.53 74.8 7.8 75.86 8.07 C80.33 9.31 84.52 11.21 88.77 13.04 C90.81 13.88 92.88 14.64 94.97 15.33 C97.74 16.26 97.74 16.26 99.99 17.63 C103.39 19.64 106.93 20.93 110.63 22.29 C112.74 23.26 112.74 23.26 113.74 25.26 C114.73 25.59 115.72 25.92 116.74 26.26 C116.74 26.92 116.74 27.58 116.74 28.26 C120.7 29.25 120.7 29.25 124.74 30.26 C125.07 31.58 125.4 32.9 125.74 34.26 C126.36 34.4 126.97 34.55 127.61 34.7 C129.74 35.26 129.74 35.26 131.74 36.26 C131.74 36.92 131.74 37.58 131.74 38.26 C134.07 39.47 136.23 40.42 138.74 41.26 C138.74 41.92 138.74 42.58 138.74 43.26 C139.57 43.6 139.57 43.6 140.42 43.95 C143.37 45.62 145.38 47.84 147.74 50.26 C148.73 50.92 149.72 51.58 150.74 52.26 C152.18 53.79 153.6 55.36 154.99 56.95 C157.76 60.07 160.54 63.11 163.55 66.01 C167.26 69.66 170.07 73.26 171.74 78.26 C172.4 78.26 173.06 78.26 173.74 78.26 C174.98 80.15 176.13 82.1 177.24 84.07 C179 87.2 180.74 90.27 182.74 93.26 C182.74 94.25 182.74 95.24 182.74 96.26 C183.73 96.59 184.72 96.92 185.74 97.26 C186.83 99.15 186.83 99.15 187.8 101.51 C188.14 102.32 188.48 103.14 188.82 103.98 C189.28 105.11 189.28 105.11 189.74 106.26 C190.13 107.17 190.52 108.07 190.92 109.01 C191.79 111.41 192.31 113.75 192.74 116.26 C193.4 116.26 194.06 116.26 194.74 116.26 C205.11 143.72 205.11 143.72 205.5 157.68 C205.62 160.31 205.62 160.31 206.74 162.78 C208.07 167.4 208.02 171.69 208 176.48 C208 177.45 208.01 178.43 208.01 179.44 C208.01 181.49 208.01 183.55 208 185.61 C207.99 188.75 208 191.89 208.01 195.03 C208.01 197.03 208.01 199.04 208 201.04 C208.01 201.97 208.01 202.91 208.02 203.87 C207.98 208.76 207.56 212.65 205.74 217.26 C205.53 219.13 205.39 221.01 205.3 222.88 C204.64 232.17 202.1 240.63 198.74 249.26 C198.3 250.87 198.3 250.87 197.86 252.51 C195.28 261.12 191.42 269.08 187.24 277.01 C186.87 277.71 186.5 278.4 186.12 279.12 C183.87 283.33 181.45 287.39 178.87 291.41 C177.71 293.31 176.71 295.25 175.74 297.26 C175.08 297.26 174.42 297.26 173.74 297.26 C173.46 297.84 173.18 298.43 172.9 299.03 C169.42 305.72 164.23 310.95 158.79 316.08 C156.64 318.18 156.64 318.18 155.28 320.84 C153.43 323.73 151.68 324.55 148.74 326.26 C146.63 328.16 144.69 330.21 142.74 332.26 C139.27 335.9 136.15 338.77 131.74 341.26 C130.94 341.9 130.15 342.53 129.33 343.19 C126.41 345.52 123.37 347.44 120.17 349.38 C119.06 350.07 117.94 350.75 116.8 351.45 C114.47 352.83 112.16 354.08 109.74 355.26 C108.91 355.77 108.09 356.29 107.24 356.82 C104.74 358.26 104.74 358.26 102.93 358.67 C100.08 359.43 97.72 360.75 95.11 362.13 C90.43 364.53 85.92 366.3 80.85 367.67 C78.61 368.25 78.61 368.25 76.05 369.38 C73.74 370.26 73.74 370.26 70.17 370.76 C66.9 371.05 66.9 371.05 64.82 372.22 C57.55 375.84 48.37 375.58 40.4 375.92 C36.44 376.02 36.44 376.02 32.74 377.26 C30.95 377.36 29.15 377.39 27.36 377.39 C26.29 377.39 25.23 377.39 24.13 377.4 C23.01 377.39 21.89 377.39 20.74 377.38 C19.62 377.39 18.5 377.39 17.35 377.4 C15.75 377.39 15.75 377.39 14.11 377.39 C13.13 377.39 12.15 377.39 11.14 377.39 C8.74 377.26 8.74 377.26 6.74 376.26 C5.4 376.13 4.05 376.06 2.7 376.01 C1.89 375.98 1.08 375.95 0.25 375.91 C-1.44 375.85 -3.13 375.8 -4.82 375.74 C-10.5 375.5 -15.75 374.65 -21.26 373.26 C-22.37 373 -23.48 372.74 -24.63 372.48 C-26.09 372.12 -26.09 372.12 -27.58 371.76 C-28.56 371.52 -29.55 371.28 -30.56 371.04 C-33.01 370.33 -35 369.41 -37.26 368.26 C-38.59 367.9 -39.92 367.57 -41.26 367.26 C-43.21 366.53 -45.15 365.81 -47.08 365.06 C-48.46 364.55 -49.85 364.09 -51.25 363.68 C-62 360.53 -71.93 354.31 -81.26 348.26 C-82.5 347.55 -82.5 347.55 -83.76 346.82 C-89.89 342.99 -95.5 338.32 -101.18 333.87 C-102.6 332.77 -104.05 331.71 -105.53 330.68 C-106.1 330.21 -106.67 329.74 -107.26 329.26 C-107.26 328.6 -107.26 327.94 -107.26 327.26 C-108.25 326.93 -109.24 326.6 -110.26 326.26 C-110.26 325.6 -110.26 324.94 -110.26 324.26 C-110.9 323.99 -111.54 323.72 -112.2 323.45 C-114.26 322.26 -114.26 322.26 -115.26 319.26 C-115.92 319.26 -116.58 319.26 -117.26 319.26 C-117.26 318.6 -117.26 317.94 -117.26 317.26 C-118.25 316.93 -119.24 316.6 -120.26 316.26 C-120.26 315.6 -120.26 314.94 -120.26 314.26 C-120.92 314.26 -121.58 314.26 -122.26 314.26 C-124.62 311.61 -126.13 309.64 -127.26 306.26 C-128.25 305.6 -129.24 304.94 -130.26 304.26 C-134.94 299.15 -137.9 293.25 -140.77 286.99 C-142.3 284.19 -143.99 282.47 -146.26 280.26 C-147.32 278.32 -147.32 278.32 -148.14 276.26 C-149.72 272.45 -151.49 268.8 -153.39 265.13 C-155.56 260.84 -157.14 256.93 -158.26 252.26 C-158.73 250.87 -158.73 250.87 -159.2 249.45 C-165.24 231.33 -168 213.43 -169.02 194.43 C-169.23 191.62 -169.64 189 -170.26 186.26 C-169.93 186.26 -169.6 186.26 -169.26 186.26 C-168.6 182.3 -167.94 178.34 -167.26 174.26 C-167.92 173.93 -168.58 173.6 -169.26 173.26 C-168.6 173.26 -167.94 173.26 -167.26 173.26 C-167.27 172.15 -167.29 171.04 -167.3 169.9 C-167.31 168.44 -167.32 166.97 -167.33 165.51 C-167.33 164.78 -167.34 164.05 -167.35 163.3 C-167.37 159.76 -167.18 156.66 -166.26 153.26 C-166.1 151.89 -165.95 150.51 -165.83 149.13 C-165.26 145.26 -165.26 145.26 -163.26 143.26 C-162.84 141.35 -162.84 141.35 -162.7 139.26 C-162.49 136.88 -162.34 135.41 -161.26 133.26 C-161.12 132.43 -160.97 131.61 -160.83 130.76 C-160.26 128.26 -160.26 128.26 -158.26 126.26 C-157.62 123.69 -157.62 123.69 -157.26 121.26 C-156.6 121.26 -155.94 121.26 -155.26 121.26 C-155.32 119.84 -155.32 119.84 -155.39 118.38 C-155.26 115.26 -155.26 115.26 -153.26 113.26 C-152.72 111.94 -152.22 110.61 -151.76 109.26 C-150.84 106.52 -150.36 105.35 -148.26 103.26 C-147.72 101.94 -147.22 100.61 -146.76 99.26 C-145.84 96.52 -145.36 95.35 -143.26 93.26 C-142.58 91.93 -141.92 90.6 -141.26 89.26 C-140.12 87.33 -138.95 85.41 -137.76 83.51 C-137.15 82.52 -136.55 81.54 -135.92 80.52 C-135.37 79.78 -134.83 79.03 -134.26 78.26 C-133.6 78.26 -132.94 78.26 -132.26 78.26 C-131.77 76.77 -131.77 76.77 -131.26 75.26 C-129.12 71.2 -126.5 68.31 -123.2 65.13 C-120.54 62.56 -118.32 60.35 -116.26 57.26 C-115.25 56.37 -114.2 55.52 -113.14 54.7 C-112.19 53.89 -111.24 53.09 -110.26 52.26 C-110.26 51.6 -110.26 50.94 -110.26 50.26 C-108.6 49.26 -106.93 48.26 -105.26 47.26 C-102.9 44.95 -100.68 42.55 -98.45 40.12 C-96.26 38.26 -96.26 38.26 -92.26 38.26 C-92.04 37.64 -91.81 37.02 -91.58 36.38 C-89.88 33.64 -88.27 33.21 -85.26 32.26 C-85.26 31.6 -85.26 30.94 -85.26 30.26 C-82.17 28.49 -81.03 28.26 -77.26 28.26 C-77.26 27.6 -77.26 26.94 -77.26 26.26 C-70.51 22.38 -70.51 22.38 -68.26 21.26 C-67.4 20.79 -67.4 20.79 -66.51 20.32 C-63.83 19.05 -61.09 18.16 -58.26 17.26 C-58.26 16.6 -58.26 15.94 -58.26 15.26 C-55.95 15.26 -53.64 15.26 -51.26 15.26 C-51.26 14.6 -51.26 13.94 -51.26 13.26 C-48.29 12.76 -48.29 12.76 -45.26 12.26 C-45.26 11.6 -45.26 10.94 -45.26 10.26 C-44.28 10.07 -43.29 9.87 -42.27 9.67 C-40.99 9.41 -39.71 9.15 -38.39 8.88 C-37.11 8.63 -35.84 8.37 -34.52 8.11 C-31.2 7.54 -31.2 7.54 -29.26 5.26 C-27.39 4.81 -27.39 4.81 -25.26 4.57 C-24.56 4.48 -23.86 4.4 -23.14 4.31 C-21.26 4.26 -21.26 4.26 -19.26 5.26 C-19.26 4.6 -19.26 3.94 -19.26 3.26 C-18.35 3.21 -17.43 3.16 -16.49 3.11 C-15.3 3.04 -14.11 2.96 -12.89 2.88 C-11.11 2.78 -11.11 2.78 -9.3 2.67 C-5.34 2.13 -4.18 0.01 0 0 Z " fill="#000100" transform="translate(629.2626953125,293.7412109375)"/>
<path d="M0 0 C7.03 -0.22 13.46 0.14 20.34 1.56 C23.02 2 25.47 2.07 28.19 2 C32.08 1.91 35.26 2.42 38.99 3.5 C41.94 4.23 44.9 4.44 47.92 4.66 C50 5 50 5 52.14 6.09 C52.75 6.39 53.37 6.69 54 7 C54.66 6.67 55.32 6.34 56 6 C56 6.66 56 7.32 56 8 C56.78 8.16 57.55 8.32 58.35 8.48 C68.71 10.72 78.9 13.45 88 19 C89.66 19.67 91.33 20.34 93 21 C94.95 22.02 96.89 23.06 98.81 24.12 C100.28 24.93 100.28 24.93 101.77 25.76 C102.51 26.17 103.24 26.58 104 27 C104 27.66 104 28.32 104 29 C104.89 29.25 105.77 29.5 106.69 29.75 C110.15 31.06 112.16 32.66 115 35 C116.98 36.04 118.97 37.06 121 38 C121 38.66 121 39.32 121 40 C121.78 40.27 122.57 40.54 123.38 40.81 C126 42 126 42 128 45 C128.99 45.33 129.98 45.66 131 46 C131 46.66 131 47.32 131 48 C131.54 48.22 132.08 48.43 132.64 48.66 C135.82 50.46 138.21 52.92 140.75 55.5 C141.26 56 141.76 56.5 142.29 57.01 C146 60.75 146 60.75 146 63 C146.99 63.33 147.98 63.66 149 64 C149 64.66 149 65.32 149 66 C149.66 66 150.32 66 151 66 C151.66 67.65 152.32 69.3 153 71 C153.66 71 154.32 71 155 71 C156.18 72.36 156.18 72.36 157.44 74.19 C157.88 74.83 158.32 75.47 158.77 76.13 C159.74 77.6 160.66 79.11 161.56 80.62 C162.99 83.1 162.99 83.1 165 85.5 C170 91.75 170 91.75 170 96 C170.66 96 171.32 96 172 96 C174.54 99.42 175.36 101.76 175 106 C175.66 106 176.32 106 177 106 C178.42 109.32 179.39 112.44 180 116 C180.66 116 181.32 116 182 116 C183.68 120.66 185.34 125.33 187 130 C187.31 130.86 187.61 131.73 187.93 132.62 C190.44 139.89 192.08 147.08 192.66 154.76 C192.94 157.12 192.94 157.12 193.99 159.67 C195.12 163.41 195.35 166.66 195.48 170.56 C195.52 171.62 195.52 171.62 195.56 172.7 C195.61 174.19 195.65 175.68 195.69 177.17 C195.75 179.43 195.83 181.69 195.92 183.95 C195.96 185.4 196.01 186.85 196.05 188.31 C196.09 189.62 196.13 190.92 196.17 192.27 C195.96 196.96 195.43 201.31 192.34 204.97 C191.37 205.73 191.37 205.73 190.38 206.5 C189.65 207.09 188.93 207.68 188.18 208.28 C187.46 208.85 186.74 209.42 186 210 C180.47 214.57 175.34 219.52 170.25 224.56 C169.6 225.2 168.95 225.84 168.28 226.49 C164.67 230.1 161.73 233.66 159 238 C158.03 239.19 157.03 240.36 156 241.5 C152.68 245.3 150.02 249.37 147.34 253.64 C146.73 254.61 146.13 255.57 145.5 256.56 C144.93 257.47 144.37 258.38 143.78 259.32 C141.99 262.01 140.02 264.48 138 267 C136.96 268.98 135.97 270.98 135 273 C134.17 274.48 133.34 275.96 132.5 277.44 C130.39 281.2 128.66 285.02 127 289 C126.34 290.27 125.67 291.54 125 292.81 C123 296.71 121.82 300.67 120.71 304.9 C120 307 120 307 118 309 C117.43 311.16 117.43 311.16 117.06 313.62 C116.46 316.97 115.72 319.98 114.44 323.12 C112.84 327.07 112.44 330.78 112 335 C111.67 335.33 111.34 335.66 111 336 C110.62 338.97 110.29 341.94 109.99 344.92 C108.26 350.3 103.96 352.59 99.2 355.1 C97.84 355.76 96.49 356.42 95.12 357.06 C94.46 357.39 93.79 357.71 93.1 358.05 C91.75 358.7 90.4 359.36 89.05 360 C86.27 361.35 83.52 362.75 80.76 364.15 C77.19 365.87 73.44 366.88 69.62 367.94 C65.96 368.95 65.96 368.95 62.38 370.44 C56.75 372.59 50.88 373.76 45 375 C44.3 375.16 43.6 375.33 42.87 375.49 C36.37 376.93 30.1 377.37 23.45 377.48 C21.85 377.52 21.85 377.52 20.22 377.56 C17.99 377.61 15.76 377.65 13.53 377.69 C10.11 377.75 6.7 377.83 3.28 377.92 C1.11 377.96 -1.07 378.01 -3.24 378.05 C-4.77 378.09 -4.77 378.09 -6.33 378.13 C-7.28 378.14 -8.23 378.15 -9.21 378.17 C-10.04 378.18 -10.87 378.2 -11.73 378.22 C-14.25 377.98 -15.78 377.18 -18 376 C-20.22 375.74 -22.45 375.56 -24.69 375.44 C-30.9 375.1 -30.9 375.1 -32 374 C-33.66 373.63 -35.33 373.3 -37 373 C-41.89 372.11 -41.89 372.11 -43 371 C-44.41 370.65 -45.83 370.35 -47.25 370.06 C-50.69 369.33 -53.77 368.41 -57 367 C-58.86 366.32 -58.86 366.32 -60.75 365.62 C-65.26 363.95 -69.63 361.99 -74 360 C-74 359.34 -74 358.68 -74 358 C-75.26 357.9 -76.52 357.79 -77.81 357.69 C-81.41 357.39 -82.55 356.57 -85 354 C-86.64 353.06 -88.31 352.17 -90 351.31 C-96.03 348.1 -101.8 344.46 -107 340 C-107 339.34 -107 338.68 -107 338 C-107.62 337.86 -108.24 337.71 -108.88 337.56 C-111 337 -111 337 -113 336 C-113 335.34 -113 334.68 -113 334 C-113.66 334 -114.32 334 -115 334 C-115 333.34 -115 332.68 -115 332 C-115.58 331.74 -116.16 331.48 -116.75 331.21 C-123.63 327.52 -129.83 321.13 -133 314 C-133.66 314 -134.32 314 -135 314 C-135 313.34 -135 312.68 -135 312 C-135.99 311.67 -136.98 311.34 -138 311 C-138.29 310.22 -138.58 309.43 -138.88 308.62 C-139.79 305.78 -139.79 305.78 -142.62 304.44 C-143.41 303.96 -144.19 303.49 -145 303 C-145 301.68 -145 300.36 -145 299 C-145.66 299 -146.32 299 -147 299 C-147.5 297.51 -147.5 297.51 -148 296 C-148.44 295.57 -148.88 295.13 -149.34 294.69 C-156.54 287.38 -160.78 275.52 -165.03 266.31 C-165.39 265.53 -165.75 264.76 -166.12 263.96 C-166.43 263.27 -166.75 262.57 -167.07 261.86 C-168.08 259.75 -168.08 259.75 -170 257 C-170 255.68 -170 254.36 -170 253 C-170.79 250.69 -170.79 250.69 -171.88 248.31 C-173.58 244.23 -174.71 240.34 -175.57 236.01 C-175.99 233.82 -175.99 233.82 -177.06 231.12 C-178.23 227.25 -178.48 223.51 -178.75 219.49 C-178.92 216.87 -178.92 216.87 -180 214 C-180.37 209.59 -180.47 205.17 -180.62 200.75 C-180.67 199.46 -180.71 198.17 -180.76 196.83 C-181.6 167.87 -181.6 167.87 -179 158 C-178.75 155.64 -178.56 153.29 -178.38 150.93 C-178.25 150.29 -178.13 149.65 -178 149 C-177.34 148.67 -176.68 148.34 -176 148 C-175.53 145.64 -175.53 145.64 -175.38 142.94 C-175.26 141.56 -175.26 141.56 -175.15 140.15 C-175.1 139.44 -175.05 138.73 -175 138 C-174.67 138 -174.34 138 -174 138 C-173.88 136.7 -173.75 135.4 -173.62 134.06 C-173.41 131.85 -173.41 131.85 -173 130 C-172.34 129.67 -171.68 129.34 -171 129 C-170.34 126.47 -170.34 126.47 -170 124 C-169.34 124 -168.68 124 -168 124 C-168.04 122.89 -168.08 121.77 -168.12 120.62 C-168 117 -168 117 -166 115 C-165.45 113.69 -164.96 112.35 -164.5 111 C-163.57 108.26 -163.09 107.09 -161 105 C-160.47 103.73 -160 102.43 -159.56 101.12 C-158.44 97.99 -157.34 95.44 -155 93 C-154.34 93 -153.68 93 -153 93 C-153.33 92.01 -153.66 91.02 -154 90 C-153.34 90 -152.68 90 -152 90 C-152 89.34 -152 88.68 -152 88 C-151.34 88 -150.68 88 -150 88 C-149.9 87.24 -149.79 86.47 -149.69 85.69 C-148.93 82.71 -148.15 82.06 -146 80 C-145.69 79.2 -145.38 78.39 -145.06 77.56 C-143.84 74.62 -142.42 73.04 -140 71 C-139.34 71 -138.68 71 -138 71 C-137.5 69.02 -137.5 69.02 -137 67 C-136.01 67.5 -136.01 67.5 -135 68 C-134.91 66.92 -134.91 66.92 -134.81 65.81 C-133.74 62.1 -131.78 60.67 -129 58 C-128.16 57.12 -127.33 56.23 -126.46 55.32 C-125.63 54.45 -124.8 53.58 -123.94 52.69 C-123.1 51.8 -122.26 50.92 -121.4 50.01 C-119 48 -119 48 -115 48 C-115 47.01 -115 46.02 -115 45 C-114.01 45 -113.02 45 -112 45 C-111.79 44.42 -111.59 43.84 -111.38 43.25 C-109.51 40.2 -106.99 38.91 -104 37 C-103.5 36.01 -103.5 36.01 -103 35 C-101.15 34.15 -101.15 34.15 -98.94 33.38 C-97.84 32.98 -97.84 32.98 -96.71 32.59 C-96.15 32.39 -95.58 32.2 -95 32 C-95 31.34 -95 30.68 -95 30 C-91.91 28.24 -90.77 28 -87 28 C-86.5 26.52 -86.5 26.52 -86 25 C-83.68 23.97 -81.35 22.96 -79 22 C-78.67 21.34 -78.34 20.68 -78 20 C-76.34 19.64 -74.67 19.31 -73 19 C-69.83 17.74 -69.83 17.74 -68 15 C-64.69 13.66 -61.73 12.96 -58.19 12.5 C-56.61 12.25 -56.61 12.25 -55 12 C-54.67 11.34 -54.34 10.68 -54 10 C-51.68 9.59 -49.34 9.26 -47 9 C-47 8.67 -47 8.34 -47 8 C-46.04 7.93 -46.04 7.93 -45.07 7.85 C-44.24 7.78 -43.41 7.7 -42.56 7.62 C-41.74 7.56 -40.92 7.49 -40.07 7.41 C-39.38 7.28 -38.7 7.14 -38 7 C-37.67 6.34 -37.34 5.68 -37 5 C-34.5 4.59 -34.5 4.59 -31.44 4.38 C-30.43 4.3 -29.41 4.23 -28.37 4.15 C-27.59 4.1 -26.81 4.05 -26 4 C-26 3.67 -26 3.34 -26 3 C-24.71 2.94 -23.42 2.88 -22.09 2.82 C-20.37 2.73 -18.65 2.65 -16.94 2.56 C-16.09 2.52 -15.24 2.48 -14.37 2.44 C-9.52 2.2 -4.79 1.77 0 1 C0 0.67 0 0.34 0 0 Z " fill="#000100" transform="translate(312,99)"/>
<path d="M0 0 C7.99 -0.21 15.46 0.06 23.32 1.56 C25.71 1.95 27.84 2.08 30.25 2 C33.86 2 36.56 2.53 39.99 3.5 C42.06 4.02 44.06 4.28 46.19 4.5 C49.54 4.94 51.92 5.73 55 7 C55.66 6.67 56.32 6.34 57 6 C57 6.66 57 7.32 57 8 C57.59 8.1 58.19 8.2 58.8 8.3 C65.52 9.51 71.65 11.52 78 14 C79.25 14.46 79.25 14.46 80.53 14.94 C86.16 17.08 91.33 19.72 96.55 22.73 C98.74 23.87 100.59 24.54 103 25 C103.33 26.32 103.66 27.64 104 29 C104.68 29.06 105.36 29.12 106.06 29.19 C109.45 30.12 111.45 31.63 114.22 33.72 C116.66 35.47 119.28 36.74 122 38 C122 38.66 122 39.32 122 40 C122.78 40.27 123.57 40.54 124.38 40.81 C127 42 127 42 129 45 C129.99 45.33 130.98 45.66 132 46 C132 46.66 132 47.32 132 48 C132.54 48.22 133.08 48.43 133.64 48.66 C136.82 50.46 139.21 52.92 141.75 55.5 C142.26 56 142.76 56.5 143.29 57.01 C147 60.75 147 60.75 147 63 C147.59 63.24 148.17 63.48 148.78 63.73 C151.44 65.25 152.74 66.92 154.56 69.38 C155.43 70.53 155.43 70.53 156.32 71.71 C156.87 72.47 157.43 73.22 158 74 C158.54 74.71 159.07 75.41 159.62 76.14 C161 78 161 78 162.44 80.44 C163.97 83.06 163.97 83.06 166 85.5 C171 91.75 171 91.75 171 96 C171.66 96 172.32 96 173 96 C173.79 97.56 174.59 99.12 175.38 100.69 C175.82 101.56 176.26 102.43 176.71 103.32 C178.73 107.51 180.21 111.41 181 116 C181.66 116 182.32 116 183 116 C184.68 120.66 186.34 125.33 188 130 C188.31 130.86 188.61 131.73 188.93 132.62 C191.44 139.89 193.08 147.08 193.66 154.76 C193.94 157.12 193.94 157.12 194.99 159.7 C196.09 163.29 196.33 166.35 196.45 170.1 C196.47 170.77 196.49 171.44 196.52 172.13 C196.58 174.3 196.64 176.46 196.69 178.62 C196.71 179.36 196.73 180.1 196.75 180.86 C196.98 189.81 197.11 198.74 196.69 207.69 C196.65 208.46 196.62 209.24 196.58 210.04 C196.32 214.34 195.42 217.95 194 222 C193.73 223.95 193.52 225.91 193.38 227.88 C193.3 228.84 193.23 229.81 193.15 230.8 C193.1 231.53 193.05 232.25 193 233 C192.34 233 191.68 233 191 233 C191.08 234.11 191.16 235.23 191.25 236.38 C191.25 240.86 189.91 244.17 188.13 248.24 C186.9 251.24 186.01 254.25 185.12 257.38 C183.13 264.02 180.23 269.89 177 276 C176.19 277.71 175.37 279.42 174.56 281.12 C170.77 288.71 165.54 295.32 160.41 302.04 C158.45 304.76 156.75 307.62 155.08 310.53 C154.54 311.26 154.54 311.26 154 312 C153.34 312 152.68 312 152 312 C152 312.66 152 313.32 152 314 C151.34 314 150.68 314 150 314 C149.74 314.59 149.47 315.18 149.2 315.78 C147.96 318.08 146.65 319.61 144.81 321.45 C144.2 322.07 143.58 322.69 142.95 323.33 C142.3 323.96 141.66 324.6 141 325.25 C140.36 325.9 139.72 326.55 139.05 327.22 C138.44 327.83 137.82 328.45 137.19 329.08 C136.62 329.64 136.06 330.2 135.48 330.78 C134 332 134 332 132 332 C132 332.66 132 333.32 132 334 C131.34 334 130.68 334 130 334 C130 334.66 130 335.32 130 336 C128.43 337.15 128.43 337.15 126.31 338.38 C122.98 340.38 120.03 342.55 117 345 C111.85 348.78 106.81 352.3 101 355 C100.13 355.54 99.27 356.07 98.38 356.62 C96 358 96 358 94.22 358.4 C90.24 359.47 86.71 361.63 83.07 363.53 C80.09 364.96 77.15 365.99 74 367 C72.3 367.77 72.3 367.77 70.56 368.56 C66.97 370.01 63.82 370.49 60 371 C59.01 371.66 58.02 372.32 57 373 C54.99 373.38 54.99 373.38 52.88 373.56 C49.23 373.57 49.23 373.57 48 375 C44.64 375.33 41.28 375.51 37.91 375.72 C35.11 375.68 35.11 375.68 34 377 C32.44 377.1 30.88 377.13 29.31 377.13 C28.31 377.13 27.32 377.14 26.29 377.14 C25.2 377.14 24.12 377.13 23 377.13 C21.34 377.13 21.34 377.13 19.65 377.14 C17.3 377.14 14.96 377.13 12.62 377.13 C9.02 377.13 5.41 377.13 1.81 377.14 C-0.46 377.14 -2.73 377.13 -5 377.13 C-6.09 377.13 -7.17 377.14 -8.29 377.14 C-9.29 377.14 -10.28 377.13 -11.31 377.13 C-12.2 377.13 -13.08 377.13 -13.99 377.13 C-16 377 -16 377 -17 376 C-18.77 375.84 -20.54 375.72 -22.31 375.62 C-31.71 374.91 -40.26 372.41 -49 369 C-50.15 368.67 -51.31 368.34 -52.5 368 C-55.69 367.09 -58.76 366.1 -61.83 364.86 C-63.24 364.3 -64.66 363.77 -66.09 363.27 C-71.48 361.09 -71.48 361.09 -72.86 358.19 C-73.33 355.91 -73.57 353.7 -73.75 351.38 C-73.95 349.67 -74.15 347.96 -74.36 346.25 C-74.46 345.38 -74.56 344.51 -74.66 343.62 C-75.2 339.46 -76.08 335.4 -77 331.31 C-77.15 330.6 -77.31 329.88 -77.47 329.14 C-78.43 324.86 -79.75 320.86 -81.34 316.77 C-82.11 314.7 -82.57 312.67 -82.94 310.5 C-83.72 306.71 -85.03 303.71 -86.85 300.32 C-89.75 294.47 -91.94 288.19 -94 282 C-94.45 281.59 -94.91 281.18 -95.38 280.75 C-97.75 278.2 -98.67 275.2 -100 272 C-100.97 270.32 -101.97 268.65 -103 267 C-106.66 260.74 -106.66 260.74 -108 257.81 C-108.99 255.81 -108.99 255.81 -111.12 253.94 C-113 252 -113 252 -113 249 C-114.32 248.67 -115.64 248.34 -117 248 C-117 246.68 -117 245.36 -117 244 C-117.66 244 -118.32 244 -119 244 C-121 242 -121 242 -122 239 C-122.66 238.67 -123.32 238.34 -124 238 C-124 237.01 -124 236.02 -124 235 C-124.99 234.67 -125.98 234.34 -127 234 C-129.53 231.47 -131.78 228.8 -134 226 C-134 225.34 -134 224.68 -134 224 C-134.64 223.73 -135.28 223.46 -135.94 223.19 C-138 222 -138 222 -139 219 C-139.58 218.71 -140.15 218.42 -140.75 218.12 C-143.75 216.62 -145.64 214.36 -148 212 C-150.17 210.7 -150.17 210.7 -152 210 C-152 209.01 -152 208.02 -152 207 C-152.66 207 -153.32 207 -154 207 C-154 206.34 -154 205.68 -154 205 C-154.99 205 -155.98 205 -157 205 C-157 204.34 -157 203.68 -157 203 C-158.14 202.6 -158.14 202.6 -159.31 202.19 C-162 201 -162.97 200.03 -165 198 C-166.15 197.31 -167.32 196.65 -168.5 196 C-171.09 194.58 -172.95 193.15 -175 191 C-176.32 190.34 -177.64 189.68 -179 189 C-179 180.42 -179 171.84 -179 163 C-178.67 163 -178.34 163 -178 163 C-177.95 162 -177.9 161 -177.85 159.97 C-177.78 158.68 -177.7 157.39 -177.62 156.06 C-177.56 154.77 -177.49 153.49 -177.41 152.16 C-177.28 151.12 -177.14 150.07 -177 149 C-176.34 148.67 -175.68 148.34 -175 148 C-174.53 145.87 -174.53 145.87 -174.38 143.44 C-174.3 142.61 -174.23 141.78 -174.15 140.93 C-174.07 139.98 -174.07 139.98 -174 139 C-173.67 139 -173.34 139 -173 139 C-172.93 138.04 -172.93 138.04 -172.85 137.07 C-172.78 136.24 -172.7 135.41 -172.62 134.56 C-172.56 133.74 -172.49 132.92 -172.41 132.07 C-172.28 131.38 -172.14 130.7 -172 130 C-171.34 129.67 -170.68 129.34 -170 129 C-169.34 126.47 -169.34 126.47 -169 124 C-168.34 124 -167.68 124 -167 124 C-167 121.69 -167 119.38 -167 117 C-166.01 116.5 -166.01 116.5 -165 116 C-164.17 113.95 -164.17 113.95 -163.5 111.56 C-162.22 107.22 -162.22 107.22 -160 105 C-159.47 103.73 -159 102.43 -158.56 101.12 C-157.44 97.99 -156.34 95.44 -154 93 C-153.34 93 -152.68 93 -152 93 C-152.33 92.01 -152.66 91.02 -153 90 C-152.34 90 -151.68 90 -151 90 C-151 89.34 -151 88.68 -151 88 C-150.34 88 -149.68 88 -149 88 C-148.9 87.24 -148.79 86.47 -148.69 85.69 C-147.93 82.71 -147.15 82.06 -145 80 C-144.69 79.2 -144.38 78.39 -144.06 77.56 C-142.84 74.62 -141.42 73.04 -139 71 C-138.34 71 -137.68 71 -137 71 C-137 70.01 -137 69.02 -137 68 C-136.01 68 -135.02 68 -134 68 C-134 66.68 -134 65.36 -134 64 C-132.06 61.81 -132.06 61.81 -130.7 60.56 C-128.51 58.55 -126.46 56.43 -124.38 54.31 C-121.96 51.87 -119.87 49.91 -117 48 C-116.01 48 -115.02 48 -114 48 C-114 47.01 -114 46.02 -114 45 C-113.01 45 -112.02 45 -111 45 C-110.76 44.4 -110.53 43.81 -110.28 43.2 C-108.72 40.52 -107.12 39.5 -104.5 37.88 C-102.05 36.34 -100.05 35.05 -98 33 C-96.68 32.32 -95.34 31.65 -94 31 C-93.01 30.34 -92.02 29.68 -91 29 C-90.34 29.33 -89.68 29.66 -89 30 C-89 29.34 -89 28.68 -89 28 C-82.37 24.18 -82.37 24.18 -79.62 22.88 C-77.81 22.1 -77.81 22.1 -77 20 C-75.34 19.64 -73.67 19.31 -72 19 C-69.41 17.89 -68.02 17.02 -66 15 C-64.01 14.6 -62.01 14.26 -60 14 C-60 13.67 -60 13.34 -60 13 C-57.69 12.34 -55.38 11.68 -53 11 C-53 10.67 -53 10.34 -53 10 C-49.53 9.5 -49.53 9.5 -46 9 C-46 8.67 -46 8.34 -46 8 C-45.04 7.93 -45.04 7.93 -44.07 7.85 C-43.24 7.78 -42.41 7.7 -41.56 7.62 C-40.74 7.56 -39.92 7.49 -39.07 7.41 C-38.38 7.28 -37.7 7.14 -37 7 C-36.67 6.34 -36.34 5.68 -36 5 C-33.5 4.59 -33.5 4.59 -30.44 4.38 C-29.43 4.3 -28.41 4.23 -27.37 4.15 C-26.59 4.1 -25.81 4.05 -25 4 C-25 3.67 -25 3.34 -25 3 C-12.62 2.01 -12.62 2.01 0 1 C0 0.67 0 0.34 0 0 Z " fill="#000100" transform="translate(951,99)"/>
<path d="M0 0 C0.33 0 0.66 0 1 0 C1 65.34 1 130.68 1 198 C0.67 198 0.34 198 0 198 C0 132.66 0 67.32 0 0 Z " fill="#FDFDFD" transform="translate(970,919)"/>
<path d="M0 0 C0.33 0 0.66 0 1 0 C1 21.78 1 43.56 1 66 C0.67 66 0.34 66 0 66 C0 44.22 0 22.44 0 0 Z " fill="#FDFDFD" transform="translate(285,916)"/>
<path d="M0 0 C14.52 0 29.04 0 44 0 C44 0.33 44 0.66 44 1 C29.48 1 14.96 1 0 1 C0 0.67 0 0.34 0 0 Z " fill="#000100" transform="translate(992,487)"/>
<path d="M0 0 C14.19 0 28.38 0 43 0 C43 0.33 43 0.66 43 1 C28.81 1 14.62 1 0 1 C0 0.67 0 0.34 0 0 Z " fill="#000100" transform="translate(353,487)"/>
<path d="M0 0 C13.86 0 27.72 0 42 0 C42 0.33 42 0.66 42 1 C28.14 1 14.28 1 0 1 C0 0.67 0 0.34 0 0 Z " fill="#000100" transform="translate(240,487)"/>
<path d="M0 0 C11.22 0 22.44 0 34 0 C34 0.33 34 0.66 34 1 C22.78 1 11.56 1 0 1 C0 0.67 0 0.34 0 0 Z " fill="#000100" transform="translate(888,487)"/>
<path d="M0 0 C10.56 0 21.12 0 32 0 C32 0.33 32 0.66 32 1 C21.44 1 10.88 1 0 1 C0 0.67 0 0.34 0 0 Z " fill="#FDFDFD" transform="translate(945,477)"/>
<path d="M0 0 C10.23 0 20.46 0 31 0 C31 0.33 31 0.66 31 1 C20.77 1 10.54 1 0 1 C0 0.67 0 0.34 0 0 Z " fill="#FDFDFD" transform="translate(302,477)"/>
<path d="M0 0 C9.24 0 18.48 0 28 0 C28 0.33 28 0.66 28 1 C18.76 1 9.52 1 0 1 C0 0.67 0 0.34 0 0 Z " fill="#FDFDFD" transform="translate(709,1177)"/>
<path d="M0 0 C8.91 0 17.82 0 27 0 C27 0.33 27 0.66 27 1 C18.09 1 9.18 1 0 1 C0 0.67 0 0.34 0 0 Z " fill="#FDFDFD" transform="translate(599,1177)"/>
<path d="M0 0 C6.93 0 13.86 0 21 0 C21 0.33 21 0.66 21 1 C14.07 1 7.14 1 0 1 C0 0.67 0 0.34 0 0 Z " fill="#000100" transform="translate(927,487)"/>
<path d="M0 0 C6.93 0 13.86 0 21 0 C21 0.33 21 0.66 21 1 C14.07 1 7.14 1 0 1 C0 0.67 0 0.34 0 0 Z " fill="#000100" transform="translate(287,487)"/>
<path d="M0 0 C5.61 0 11.22 0 17 0 C17 0.33 17 0.66 17 1 C11.39 1 5.78 1 0 1 C0 0.67 0 0.34 0 0 Z " fill="#FDFDFD" transform="translate(262,982)"/>
<path d="M0 0 C5.28 0 10.56 0 16 0 C16 0.33 16 0.66 16 1 C10.72 1 5.44 1 0 1 C0 0.67 0 0.34 0 0 Z " fill="#FDFDFD" transform="translate(1044,982)"/>
<path d="M0 0 C3.63 0 7.26 0 11 0 C11 0.33 11 0.66 11 1 C7.37 1 3.74 1 0 1 C0 0.67 0 0.34 0 0 Z " fill="#FDFDFD" transform="translate(550,1172)"/>
<path d="M0 0 C3.3 0 6.6 0 10 0 C10 0.33 10 0.66 10 1 C6.7 1 3.4 1 0 1 C0 0.67 0 0.34 0 0 Z " fill="#FDFDFD" transform="translate(626,670)"/>
<path d="M0 0 C2.97 0 5.94 0 9 0 C9 0.33 9 0.66 9 1 C6.03 1 3.06 1 0 1 C0 0.67 0 0.34 0 0 Z " fill="#FDFDFD" transform="translate(776,1172)"/>
<path d="M0 0 C2.64 0 5.28 0 8 0 C8 0.33 8 0.66 8 1 C5.36 1 2.72 1 0 1 C0 0.67 0 0.34 0 0 Z " fill="#FDFDFD" transform="translate(241,980)"/>
<path d="M0 0 C2.64 0 5.28 0 8 0 C8 0.33 8 0.66 8 1 C5.36 1 2.72 1 0 1 C0 0.67 0 0.34 0 0 Z " fill="#FDFDFD" transform="translate(213,977)"/>
<path d="M0 0 C2.64 0 5.28 0 8 0 C8 0.33 8 0.66 8 1 C5.36 1 2.72 1 0 1 C0 0.67 0 0.34 0 0 Z " fill="#FDFDFD" transform="translate(180,972)"/>
<path d="M0 0 C2.64 0 5.28 0 8 0 C8 0.33 8 0.66 8 1 C5.36 1 2.72 1 0 1 C0 0.67 0 0.34 0 0 Z " fill="#FDFDFD" transform="translate(664,670)"/>
<path d="M0 0 C2.31 0 4.62 0 7 0 C7 0.33 7 0.66 7 1 C4.69 1 2.38 1 0 1 C0 0.67 0 0.34 0 0 Z " fill="#FDFDFD" transform="translate(579,1175)"/>
<path d="M0 0 C2.31 0 4.62 0 7 0 C7 0.33 7 0.66 7 1 C4.69 1 2.38 1 0 1 C0 0.67 0 0.34 0 0 Z " fill="#FDFDFD" transform="translate(514,1167)"/>
<path d="M0 0 C1.98 0 3.96 0 6 0 C6 0.33 6 0.66 6 1 C4.02 1 2.04 1 0 1 C0 0.67 0 0.34 0 0 Z " fill="#FDFDFD" transform="translate(749,1175)"/>
<path d="M0 0 C1.98 0 3.96 0 6 0 C6 0.33 6 0.66 6 1 C4.02 1 2.04 1 0 1 C0 0.67 0 0.34 0 0 Z " fill="#FDFDFD" transform="translate(485,1162)"/>
<path d="M0 0 C1.98 0 3.96 0 6 0 C6 0.33 6 0.66 6 1 C4.02 1 2.04 1 0 1 C0 0.67 0 0.34 0 0 Z " fill="#FDFDFD" transform="translate(1111,975)"/>
<path d="M0 0 C1.65 0 3.3 0 5 0 C5 0.33 5 0.66 5 1 C3.35 1 1.7 1 0 1 C0 0.67 0 0.34 0 0 Z " fill="#FDFDFD" transform="translate(536,1170)"/>
<path d="M0 0 C1.65 0 3.3 0 5 0 C5 0.33 5 0.66 5 1 C3.35 1 1.7 1 0 1 C0 0.67 0 0.34 0 0 Z " fill="#FDFDFD" transform="translate(1074,980)"/>
<path d="M0 0 C0.66 0.33 1.32 0.66 2 1 C1.01 1.66 0.02 2.32 -1 3 C-0.67 2.01 -0.34 1.02 0 0 Z " fill="#000100" transform="translate(54,573)"/>
<path d="M0 0 C0.33 0 0.66 0 1 0 C1 1.65 1 3.3 1 5 C0.67 5 0.34 5 0 5 C0 3.35 0 1.7 0 0 Z " fill="#FDFDFD" transform="translate(835,511)"/>
<path d="M0 0 C1.65 0 3.3 0 5 0 C5 0.33 5 0.66 5 1 C3.35 1 1.7 1 0 1 C0 0.67 0 0.34 0 0 Z " fill="#FDFDFD" transform="translate(986,475)"/>
<path d="M0 0 C1.65 0 3.3 0 5 0 C5 0.33 5 0.66 5 1 C3.35 1 1.7 1 0 1 C0 0.67 0 0.34 0 0 Z " fill="#FDFDFD" transform="translate(289,475)"/>
<path d="M0 0 C0.66 0.33 1.32 0.66 2 1 C1.01 1.66 0.02 2.32 -1 3 C-0.67 2.01 -0.34 1.02 0 0 Z " fill="#000100" transform="translate(514,348)"/>
<path d="M0 0 C0.33 0 0.66 0 1 0 C1 1.65 1 3.3 1 5 C0.67 5 0.34 5 0 5 C0 3.35 0 1.7 0 0 Z " fill="#FDFDFD" transform="translate(1145,321)"/>
<path d="M0 0 C4 1 4 1 4 1 Z " fill="#FDFDFD" transform="translate(1099,977)"/>
<path d="M0 0 C4 1 4 1 4 1 Z " fill="#FDFDFD" transform="translate(930,475)"/>
<path d="M0 0 C1 4 1 4 1 4 Z " fill="#FDFDFD" transform="translate(835,450)"/>
<path d="M0 0 C3 1 3 1 3 1 Z " fill="#FDFDFD" transform="translate(794,1170)"/>
<path d="M0 0 C3 1 3 1 3 1 Z " fill="#FDFDFD" transform="translate(824,1165)"/>
<path d="M0 0 C3 1 3 1 3 1 Z " fill="#FDFDFD" transform="translate(503,1165)"/>
<path d="M0 0 C3 1 3 1 3 1 Z " fill="#FDFDFD" transform="translate(451,1155)"/>
<path d="M0 0 C3 1 3 1 3 1 Z " fill="#FDFDFD" transform="translate(378,1137)"/>
<path d="M0 0 C3 1 3 1 3 1 Z " fill="#FDFDFD" transform="translate(201,975)"/>
<path d="M0 0 C3 1 3 1 3 1 Z " fill="#FDFDFD" transform="translate(168,970)"/>
<path d="M0 0 C3 1 3 1 3 1 Z " fill="#FDFDFD" transform="translate(141,965)"/>
<path d="M0 0 C3 1 3 1 3 1 Z " fill="#FDFDFD" transform="translate(28,937)"/>
<path d="" fill="#FDFDFD" transform="translate(0,0)"/>
<path d="M0 0 C3 1 3 1 3 1 Z " fill="#FDFDFD" transform="translate(811,652)"/>
<path d="" fill="#FDFDFD" transform="translate(0,0)"/>
<path d="" fill="#FDFDFD" transform="translate(0,0)"/>
<path d="" fill="#FDFDFD" transform="translate(0,0)"/>
<path d="M0 0 C2 1 2 1 2 1 Z " fill="#FDFDFD" transform="translate(814,1167)"/>
<path d="M0 0 C2 1 2 1 2 1 Z " fill="#FDFDFD" transform="translate(849,1160)"/>
<path d="M0 0 C2 1 2 1 2 1 Z " fill="#FDFDFD" transform="translate(354,1130)"/>
<path d="M0 0 C2 1 2 1 2 1 Z " fill="#FDFDFD" transform="translate(1141,970)"/>
<path d="M0 0 C2 1 2 1 2 1 Z " fill="#FDFDFD" transform="translate(94,955)"/>
<path d="M0 0 C2 1 2 1 2 1 Z " fill="#FDFDFD" transform="translate(57,945)"/>
<path d="M0 0 C2 1 2 1 2 1 Z " fill="#FDFDFD" transform="translate(39,940)"/>
<path d="" fill="#FDFDFD" transform="translate(0,0)"/>
<path d="" fill="#FDFDFD" transform="translate(0,0)"/>
<path d="" fill="#FDFDFD" transform="translate(0,0)"/>
<path d="M0 0 C2 1 2 1 2 1 Z " fill="#FDFDFD" transform="translate(696,665)"/>
<path d="" fill="#FDFDFD" transform="translate(0,0)"/>
<path d="M0 0 C2 1 2 1 2 1 Z " fill="#FDFDFD" transform="translate(349,475)"/>
<path d="M0 0 C2 1 2 1 2 1 Z " fill="#FDFDFD" transform="translate(1011,470)"/>
<path d="M0 0 C2 1 2 1 2 1 Z " fill="#FDFDFD" transform="translate(371,470)"/>
<path d="M0 0 C2 1 2 1 2 1 Z " fill="#FDFDFD" transform="translate(267,470)"/>
<path d="M0 0 C2 1 2 1 2 1 Z " fill="#FDFDFD" transform="translate(899,467)"/>
<path d="M0 0 C2 1 2 1 2 1 Z " fill="#FDFDFD" transform="translate(1026,465)"/>
<path d="M0 0 C2 1 2 1 2 1 Z " fill="#FDFDFD" transform="translate(252,465)"/>
<path d="" fill="#FDFDFD" transform="translate(0,0)"/>
<path d="" fill="#FDFDFD" transform="translate(0,0)"/>
<path d="" fill="#FDFDFD" transform="translate(0,0)"/>
<path d="" fill="#FDFDFD" transform="translate(0,0)"/>
<path d="" fill="#FDFDFD" transform="translate(0,0)"/>
<path d="" fill="#FDFDFD" transform="translate(0,0)"/>
<path d="" fill="#FDFDFD" transform="translate(0,0)"/>
<path d="" fill="#FDFDFD" transform="translate(0,0)"/>
<path d="" fill="#FDFDFD" transform="translate(0,0)"/>
<path d="" fill="#FDFDFD" transform="translate(0,0)"/>
<path d="" fill="#FDFDFD" transform="translate(0,0)"/>
<path d="" fill="#FDFDFD" transform="translate(0,0)"/>
<path d="" fill="#FDFDFD" transform="translate(0,0)"/>
<path d="" fill="#FDFDFD" transform="translate(0,0)"/>
<path d="" fill="#FDFDFD" transform="translate(0,0)"/>
<path d="" fill="#FDFDFD" transform="translate(0,0)"/>
<path d="" fill="#FDFDFD" transform="translate(0,0)"/>
<path d="" fill="#FDFDFD" transform="translate(0,0)"/>
<path d="" fill="#FDFDFD" transform="translate(0,0)"/>
<path d="" fill="#FDFDFD" transform="translate(0,0)"/>
<path d="" fill="#FDFDFD" transform="translate(0,0)"/>
<path d="" fill="#FDFDFD" transform="translate(0,0)"/>
<path d="" fill="#FDFDFD" transform="translate(0,0)"/>
<path d="" fill="#FDFDFD" transform="translate(0,0)"/>
<path d="" fill="#FDFDFD" transform="translate(0,0)"/>
<path d="" fill="#FDFDFD" transform="translate(0,0)"/>
<path d="" fill="#FDFDFD" transform="translate(0,0)"/>
<path d="" fill="#FDFDFD" transform="translate(0,0)"/>
<path d="" fill="#FDFDFD" transform="translate(0,0)"/>
<path d="" fill="#FDFDFD" transform="translate(0,0)"/>
<path d="" fill="#FDFDFD" transform="translate(0,0)"/>
<path d="" fill="#FDFDFD" transform="translate(0,0)"/>
<path d="" fill="#FDFDFD" transform="translate(0,0)"/>
<path d="" fill="#FDFDFD" transform="translate(0,0)"/>
<path d="" fill="#FDFDFD" transform="translate(0,0)"/>
<path d="" fill="#FDFDFD" transform="translate(0,0)"/>
<path d="" fill="#FDFDFD" transform="translate(0,0)"/>
<path d="" fill="#FDFDFD" transform="translate(0,0)"/>
<path d="" fill="#FDFDFD" transform="translate(0,0)"/>
<path d="" fill="#FDFDFD" transform="translate(0,0)"/>
<path d="" fill="#000100" transform="translate(0,0)"/>
<path d="" fill="#000100" transform="translate(0,0)"/>
<path d="" fill="#FDFDFD" transform="translate(0,0)"/>
<path d="" fill="#000100" transform="translate(0,0)"/>
<path d="" fill="#FDFDFD" transform="translate(0,0)"/>
<path d="" fill="#000100" transform="translate(0,0)"/>
<path d="" fill="#FDFDFD" transform="translate(0,0)"/>
<path d="" fill="#FDFDFD" transform="translate(0,0)"/>
<path d="" fill="#000100" transform="translate(0,0)"/>
<path d="" fill="#FDFDFD" transform="translate(0,0)"/>
<path d="" fill="#000100" transform="translate(0,0)"/>
<path d="" fill="#FDFDFD" transform="translate(0,0)"/>
<path d="" fill="#000100" transform="translate(0,0)"/>
<path d="" fill="#FDFDFD" transform="translate(0,0)"/>
<path d="" fill="#FDFDFD" transform="translate(0,0)"/>
<path d="" fill="#000100" transform="translate(0,0)"/>
<path d="" fill="#FDFDFD" transform="translate(0,0)"/>
<path d="" fill="#000100" transform="translate(0,0)"/>
<path d="" fill="#000100" transform="translate(0,0)"/>
<path d="" fill="#000100" transform="translate(0,0)"/>
<path d="" fill="#000100" transform="translate(0,0)"/>
<path d="" fill="#000100" transform="translate(0,0)"/>
<path d="" fill="#000100" transform="translate(0,0)"/>
<path d="" fill="#000100" transform="translate(0,0)"/>
<path d="" fill="#000100" transform="translate(0,0)"/>
<path d="" fill="#FDFDFD" transform="translate(0,0)"/>
<path d="" fill="#FDFDFD" transform="translate(0,0)"/>
<path d="" fill="#FDFDFD" transform="translate(0,0)"/>
<path d="" fill="#FDFDFD" transform="translate(0,0)"/>
<path d="" fill="#FDFDFD" transform="translate(0,0)"/>
<path d="" fill="#FDFDFD" transform="translate(0,0)"/>
<path d="" fill="#FDFDFD" transform="translate(0,0)"/>
<path d="" fill="#FDFDFD" transform="translate(0,0)"/>
<path d="" fill="#FDFDFD" transform="translate(0,0)"/>
<path d="" fill="#FDFDFD" transform="translate(0,0)"/>
<path d="" fill="#FDFDFD" transform="translate(0,0)"/>
<path d="" fill="#FDFDFD" transform="translate(0,0)"/>
<path d="" fill="#FDFDFD" transform="translate(0,0)"/>
<path d="" fill="#FDFDFD" transform="translate(0,0)"/>
<path d="" fill="#FDFDFD" transform="translate(0,0)"/>
<path d="" fill="#FDFDFD" transform="translate(0,0)"/>
<path d="" fill="#FDFDFD" transform="translate(0,0)"/>
<path d="" fill="#000100" transform="translate(0,0)"/>
<path d="" fill="#000100" transform="translate(0,0)"/>
<path d="" fill="#000100" transform="translate(0,0)"/>
<path d="" fill="#000100" transform="translate(0,0)"/>
<path d="" fill="#000100" transform="translate(0,0)"/>
<path d="" fill="#000100" transform="translate(0,0)"/>
<path d="" fill="#000100" transform="translate(0,0)"/>
<path d="" fill="#000100" transform="translate(0,0)"/>
<path d="" fill="#000100" transform="translate(0,0)"/>
<path d="" fill="#000100" transform="translate(0,0)"/>
<path d="" fill="#000100" transform="translate(0,0)"/>
<path d="" fill="#000100" transform="translate(0,0)"/>
<path d="" fill="#000100" transform="translate(0,0)"/>
<path d="" fill="#000100" transform="translate(0,0)"/>
<path d="" fill="#000100" transform="translate(0,0)"/>
<path d="" fill="#FDFDFD" transform="translate(0,0)"/>
<path d="" fill="#000100" transform="translate(0,0)"/>
<path d="" fill="#FDFDFD" transform="translate(0,0)"/>
<path d="" fill="#000100" transform="translate(0,0)"/>
<path d="" fill="#FDFDFD" transform="translate(0,0)"/>
<path d="" fill="#000100" transform="translate(0,0)"/>
<path d="" fill="#FDFDFD" transform="translate(0,0)"/>
<path d="" fill="#FDFDFD" transform="translate(0,0)"/>
<path d="" fill="#000100" transform="translate(0,0)"/>
<path d="" fill="#000100" transform="translate(0,0)"/>
<path d="" fill="#000100" transform="translate(0,0)"/>
<path d="" fill="#000100" transform="translate(0,0)"/>
<path d="" fill="#000100" transform="translate(0,0)"/>
<path d="" fill="#000100" transform="translate(0,0)"/>
<path d="" fill="#000100" transform="translate(0,0)"/>
<path d="" fill="#000100" transform="translate(0,0)"/>
<path d="" fill="#000100" transform="translate(0,0)"/>
<path d="" fill="#000100" transform="translate(0,0)"/>
<path d="" fill="#000100" transform="translate(0,0)"/>
<path d="" fill="#000100" transform="translate(0,0)"/>
<path d="" fill="#000100" transform="translate(0,0)"/>
<path d="" fill="#FDFDFD" transform="translate(0,0)"/>
<path d="" fill="#000100" transform="translate(0,0)"/>
<path d="" fill="#000100" transform="translate(0,0)"/>
<path d="" fill="#000100" transform="translate(0,0)"/>
<path d="" fill="#000100" transform="translate(0,0)"/>
<path d="" fill="#FDFDFD" transform="translate(0,0)"/>
<path d="" fill="#FDFDFD" transform="translate(0,0)"/>
<path d="" fill="#FDFDFD" transform="translate(0,0)"/>
<path d="" fill="#FDFDFD" transform="translate(0,0)"/>
<path d="" fill="#FDFDFD" transform="translate(0,0)"/>
<path d="" fill="#FDFDFD" transform="translate(0,0)"/>
<path d="" fill="#FDFDFD" transform="translate(0,0)"/>
<path d="" fill="#FDFDFD" transform="translate(0,0)"/>
<path d="" fill="#000100" transform="translate(0,0)"/>
<path d="" fill="#000100" transform="translate(0,0)"/>
<path d="" fill="#000100" transform="translate(0,0)"/>
<path d="" fill="#FDFDFD" transform="translate(0,0)"/>
<path d="" fill="#000100" transform="translate(0,0)"/>
<path d="" fill="#FDFDFD" transform="translate(0,0)"/>
<path d="" fill="#000100" transform="translate(0,0)"/>
<path d="" fill="#FDFDFD" transform="translate(0,0)"/>
<path d="" fill="#000100" transform="translate(0,0)"/>
<path d="" fill="#FDFDFD" transform="translate(0,0)"/>
<path d="" fill="#000100" transform="translate(0,0)"/>
<path d="" fill="#FDFDFD" transform="translate(0,0)"/>
<path d="" fill="#000100" transform="translate(0,0)"/>
<path d="" fill="#FDFDFD" transform="translate(0,0)"/>
<path d="" fill="#000100" transform="translate(0,0)"/>
<path d="" fill="#FDFDFD" transform="translate(0,0)"/>
<path d="" fill="#000100" transform="translate(0,0)"/>
<path d="" fill="#000100" transform="translate(0,0)"/>
<path d="" fill="#000100" transform="translate(0,0)"/>
<path d="" fill="#000100" transform="translate(0,0)"/>
<path d="" fill="#000100" transform="translate(0,0)"/>
<path d="" fill="#FDFDFD" transform="translate(0,0)"/>
<path d="" fill="#000100" transform="translate(0,0)"/>
<path d="" fill="#000100" transform="translate(0,0)"/>
<path d="" fill="#FDFDFD" transform="translate(0,0)"/>
<path d="" fill="#000100" transform="translate(0,0)"/>
<path d="" fill="#000100" transform="translate(0,0)"/>
<path d="" fill="#000100" transform="translate(0,0)"/>
<path d="" fill="#000100" transform="translate(0,0)"/>
<path d="" fill="#000100" transform="translate(0,0)"/>
<path d="" fill="#000100" transform="translate(0,0)"/>
<path d="" fill="#FDFDFD" transform="translate(0,0)"/>
<path d="" fill="#000100" transform="translate(0,0)"/>
<path d="" fill="#000100" transform="translate(0,0)"/>
<path d="" fill="#FDFDFD" transform="translate(0,0)"/>
<path d="" fill="#FDFDFD" transform="translate(0,0)"/>
<path d="" fill="#000100" transform="translate(0,0)"/>
<path d="" fill="#000100" transform="translate(0,0)"/>
<path d="" fill="#000100" transform="translate(0,0)"/>
<path d="" fill="#FDFDFD" transform="translate(0,0)"/>
<path d="" fill="#FDFDFD" transform="translate(0,0)"/>
<path d="" fill="#FDFDFD" transform="translate(0,0)"/>
<path d="" fill="#000100" transform="translate(0,0)"/>
<path d="" fill="#000100" transform="translate(0,0)"/>
<path d="" fill="#000100" transform="translate(0,0)"/>
<path d="" fill="#000100" transform="translate(0,0)"/>
<path d="" fill="#000100" transform="translate(0,0)"/>
<path d="" fill="#000100" transform="translate(0,0)"/>
<path d="" fill="#000100" transform="translate(0,0)"/>
<path d="" fill="#000100" transform="translate(0,0)"/>
<path d="" fill="#000100" transform="translate(0,0)"/>
<path d="" fill="#000100" transform="translate(0,0)"/>
<path d="" fill="#000100" transform="translate(0,0)"/>
<path d="" fill="#000100" transform="translate(0,0)"/>
<path d="" fill="#000100" transform="translate(0,0)"/>
<path d="" fill="#000100" transform="translate(0,0)"/>
<path d="" fill="#000100" transform="translate(0,0)"/>
<path d="" fill="#000100" transform="translate(0,0)"/>
</svg>
